<svg id="Illustration" xmlns="http://www.w3.org/2000/svg" xmlns:xlink="http://www.w3.org/1999/xlink" viewBox="0 0 1000 750">
  <defs>
    <linearGradient id="linear-gradient" x1="496.4828" y1="650.8417" x2="496.4828" y2="709.4629" gradientUnits="userSpaceOnUse">
      <stop offset="0" stop-color="#d9cfe6"/>
      <stop offset="1" stop-color="#bdacd4"/>
    </linearGradient>
    <linearGradient id="linear-gradient-2" x1="502.6864" y1="46.5469" x2="502.6864" y2="650.8417" gradientUnits="userSpaceOnUse">
      <stop offset="0" stop-color="#f6eeff"/>
      <stop offset="1" stop-color="#dcceef"/>
    </linearGradient>
    <linearGradient id="linear-gradient-3" x1="283.502" y1="156.0862" x2="283.502" y2="650.6035" gradientUnits="userSpaceOnUse">
      <stop offset="0" stop-color="#b7a1f0"/>
      <stop offset="1" stop-color="#9885dd"/>
    </linearGradient>
    <linearGradient id="linear-gradient-4" x1="132.0082" y1="183.8246" x2="181.1489" y2="183.8246" gradientUnits="userSpaceOnUse">
      <stop offset="0" stop-color="#4a5999"/>
      <stop offset="1" stop-color="#3e487d"/>
    </linearGradient>
    <linearGradient id="linear-gradient-5" x1="185.5492" y1="368.5093" x2="385.487" y2="368.5093" xlink:href="#linear-gradient-4"/>
    <linearGradient id="linear-gradient-6" x1="185.5492" y1="325.504" x2="385.487" y2="325.504" xlink:href="#linear-gradient-4"/>
    <linearGradient id="linear-gradient-7" x1="185.5492" y1="282.4988" x2="385.487" y2="282.4988" xlink:href="#linear-gradient-4"/>
    <linearGradient id="linear-gradient-8" x1="185.5492" y1="239.4936" x2="385.487" y2="239.4936" xlink:href="#linear-gradient-4"/>
    <linearGradient id="linear-gradient-9" x1="824.3091" y1="113.3764" x2="824.3091" y2="162.0482" gradientTransform="translate(736.2075 -693.3643) rotate(74.4643)" xlink:href="#linear-gradient-3"/>
    <linearGradient id="linear-gradient-10" x1="828.8501" y1="114.5937" x2="828.8501" y2="145.7799" gradientUnits="userSpaceOnUse">
      <stop offset="0" stop-color="#7158cc"/>
      <stop offset="1" stop-color="#5844b7"/>
    </linearGradient>
    <linearGradient id="linear-gradient-11" x1="293.3488" y1="167.4678" x2="293.3488" y2="207.6554" gradientTransform="translate(22.0697 -30.7054) rotate(6.2256)" gradientUnits="userSpaceOnUse">
      <stop offset="0" stop-color="#fe7078"/>
      <stop offset="1" stop-color="#ea4e5e"/>
    </linearGradient>
    <linearGradient id="linear-gradient-12" x1="291.5102" y1="167.9607" x2="291.5102" y2="195.8858" gradientUnits="userSpaceOnUse">
      <stop offset="0" stop-color="#c9414e"/>
      <stop offset="1" stop-color="#af2338"/>
    </linearGradient>
    <linearGradient id="linear-gradient-13" x1="146.6013" y1="163.3142" x2="146.6013" y2="186.6906" gradientUnits="userSpaceOnUse">
      <stop offset="0" stop-color="#d19847"/>
      <stop offset="1" stop-color="#bf7c2c"/>
    </linearGradient>
    <linearGradient id="linear-gradient-14" x1="142.1835" y1="163.3142" x2="142.1835" y2="210.067" gradientUnits="userSpaceOnUse">
      <stop offset="0" stop-color="#fed670"/>
      <stop offset="1" stop-color="#eab05c"/>
    </linearGradient>
    <linearGradient id="linear-gradient-15" x1="137.1374" y1="283.5928" x2="137.1374" y2="323.8501" xlink:href="#linear-gradient-10"/>
    <linearGradient id="linear-gradient-16" x1="119.5783" y1="333.1207" x2="119.5783" y2="386.8353" gradientUnits="userSpaceOnUse">
      <stop offset="0" stop-color="#98c8f4"/>
      <stop offset="1" stop-color="#79aee2"/>
    </linearGradient>
    <linearGradient id="linear-gradient-17" x1="853.3388" y1="359.9572" x2="899.8022" y2="359.9572" xlink:href="#linear-gradient-10"/>
    <linearGradient id="linear-gradient-18" x1="854.3936" y1="362.805" x2="899.8022" y2="362.805" gradientTransform="translate(80.7328 -153.6549) rotate(10.4922)" xlink:href="#linear-gradient-3"/>
    <linearGradient id="linear-gradient-19" x1="891.4593" y1="380.2592" x2="899.8022" y2="380.2592" gradientTransform="translate(84.2211 -156.738) rotate(10.4922)" xlink:href="#linear-gradient-10"/>
    <linearGradient id="linear-gradient-20" x1="593.1665" y1="454.1395" x2="593.1665" y2="788.7761" gradientUnits="userSpaceOnUse">
      <stop offset="0" stop-color="#fff"/>
      <stop offset="1" stop-color="#eefaff"/>
    </linearGradient>
    <linearGradient id="linear-gradient-21" x1="398.8958" y1="164.271" x2="398.8958" y2="200.3866" gradientTransform="matrix(1, 0, 0, 1, 0, 0)" xlink:href="#linear-gradient-11"/>
    <linearGradient id="linear-gradient-22" x1="470.5712" y1="164.271" x2="470.5712" y2="200.3866" gradientTransform="matrix(1, 0, 0, 1, 0, 0)" xlink:href="#linear-gradient-11"/>
    <linearGradient id="linear-gradient-23" x1="542.2466" y1="164.271" x2="542.2466" y2="200.3866" gradientTransform="matrix(1, 0, 0, 1, 0, 0)" xlink:href="#linear-gradient-11"/>
    <linearGradient id="linear-gradient-24" x1="613.922" y1="164.271" x2="613.922" y2="200.3866" gradientTransform="matrix(1, 0, 0, 1, 0, 0)" xlink:href="#linear-gradient-11"/>
    <linearGradient id="linear-gradient-25" x1="685.5974" y1="164.271" x2="685.5974" y2="200.3866" gradientTransform="matrix(1, 0, 0, 1, 0, 0)" xlink:href="#linear-gradient-11"/>
    <linearGradient id="linear-gradient-26" x1="757.2728" y1="164.271" x2="757.2728" y2="200.3866" gradientTransform="matrix(1, 0, 0, 1, 0, 0)" xlink:href="#linear-gradient-11"/>
    <linearGradient id="linear-gradient-27" x1="450.6337" y1="444.1927" x2="450.6337" y2="528.741" gradientUnits="userSpaceOnUse">
      <stop offset="0" stop-color="#e3f5ff"/>
      <stop offset="1" stop-color="#c2d8f2"/>
    </linearGradient>
    <linearGradient id="linear-gradient-28" x1="737.3353" y1="444.1927" x2="737.3353" y2="528.741" xlink:href="#linear-gradient-27"/>
    <linearGradient id="linear-gradient-29" x1="593.9845" y1="444.1927" x2="593.9845" y2="528.741" gradientTransform="matrix(1, 0, 0, 1, 0, 0)" xlink:href="#linear-gradient-11"/>
    <linearGradient id="linear-gradient-30" x1="450.6337" y1="544.5382" x2="450.6337" y2="629.0865" xlink:href="#linear-gradient-27"/>
    <linearGradient id="linear-gradient-31" x1="737.3353" y1="544.5382" x2="737.3353" y2="629.0865" xlink:href="#linear-gradient-27"/>
    <linearGradient id="linear-gradient-32" x1="593.9845" y1="544.5382" x2="593.9845" y2="629.0865" xlink:href="#linear-gradient-27"/>
    <linearGradient id="linear-gradient-33" x1="450.6337" y1="343.8471" x2="450.6337" y2="428.3954" xlink:href="#linear-gradient-27"/>
    <linearGradient id="linear-gradient-34" x1="593.9845" y1="343.8471" x2="593.9845" y2="428.3954" xlink:href="#linear-gradient-27"/>
    <linearGradient id="linear-gradient-35" x1="737.3353" y1="343.8471" x2="737.3353" y2="428.3954" xlink:href="#linear-gradient-27"/>
    <linearGradient id="linear-gradient-36" x1="722.7889" y1="386.3852" x2="755.1033" y2="386.3852" xlink:href="#linear-gradient-16"/>
    <linearGradient id="linear-gradient-37" x1="450.6337" y1="243.5016" x2="450.6337" y2="328.0499" xlink:href="#linear-gradient-27"/>
    <linearGradient id="linear-gradient-38" x1="737.3353" y1="243.5016" x2="737.3353" y2="328.0499" xlink:href="#linear-gradient-27"/>
    <linearGradient id="linear-gradient-39" x1="689.4591" y1="261.9616" x2="753.4111" y2="261.9616" xlink:href="#linear-gradient-16"/>
    <linearGradient id="linear-gradient-40" x1="689.822" y1="276.9404" x2="770.1023" y2="276.9404" xlink:href="#linear-gradient-16"/>
    <linearGradient id="linear-gradient-41" x1="689.822" y1="289.8419" x2="770.1023" y2="289.8419" xlink:href="#linear-gradient-16"/>
    <linearGradient id="linear-gradient-42" x1="689.822" y1="302.7435" x2="770.1023" y2="302.7435" xlink:href="#linear-gradient-16"/>
    <linearGradient id="linear-gradient-43" x1="58.7563" y1="607.4714" x2="171.457" y2="607.4714" gradientTransform="translate(36.7912 -5.4524) rotate(3.457)" xlink:href="#linear-gradient-4"/>
    <linearGradient id="linear-gradient-44" x1="60.094" y1="529.9881" x2="172.7947" y2="529.9881" xlink:href="#linear-gradient-3"/>
    <linearGradient id="linear-gradient-45" x1="102.404" y1="509.827" x2="175.7695" y2="509.827" xlink:href="#linear-gradient-4"/>
    <linearGradient id="linear-gradient-46" x1="112.7445" y1="579.6856" x2="162.7431" y2="579.6856" xlink:href="#linear-gradient-4"/>
    <linearGradient id="linear-gradient-47" x1="110.5538" y1="584.2271" x2="350.2184" y2="584.2271" gradientUnits="userSpaceOnUse">
      <stop offset="0" stop-color="#3e4a80"/>
      <stop offset="1" stop-color="#333b66"/>
    </linearGradient>
    <linearGradient id="linear-gradient-48" x1="840.0834" y1="613.3682" x2="931.2997" y2="613.3682" gradientTransform="translate(-90.6492 154.8696) rotate(-9.6855)" xlink:href="#linear-gradient-4"/>
    <linearGradient id="linear-gradient-49" x1="792.2825" y1="505.3483" x2="849.9032" y2="505.3483" gradientTransform="translate(-56.4861 103.1454) rotate(-7.0926)" xlink:href="#linear-gradient-4"/>
    <linearGradient id="linear-gradient-50" x1="825.5487" y1="536.787" x2="938.2494" y2="536.787" gradientTransform="translate(-39.4747 69.9966) rotate(-4.536)" xlink:href="#linear-gradient-4"/>
    <linearGradient id="linear-gradient-51" x1="820.4995" y1="519.2456" x2="893.865" y2="519.2456" xlink:href="#linear-gradient-3"/>
    <linearGradient id="linear-gradient-52" x1="840.341" y1="584.4735" x2="897.0276" y2="584.4735" gradientTransform="translate(-151.4255 340.2041) rotate(-20.8643)" xlink:href="#linear-gradient-3"/>
    <linearGradient id="linear-gradient-53" x1="646.0506" y1="584.2271" x2="885.7152" y2="584.2271" xlink:href="#linear-gradient-47"/>
    <linearGradient id="linear-gradient-54" x1="342.6724" y1="279.0173" x2="342.6724" y2="293.2354" xlink:href="#linear-gradient-14"/>
    <linearGradient id="linear-gradient-55" x1="342.6724" y1="258.0706" x2="342.6724" y2="279.0173" gradientTransform="matrix(1, 0, 0, 1, 0, 0)" xlink:href="#linear-gradient-11"/>
    <linearGradient id="linear-gradient-56" x1="341.4687" y1="286.4774" x2="341.4687" y2="652.0807" gradientTransform="matrix(1, 0, 0, 1, 0, 0)" xlink:href="#linear-gradient-11"/>
    <linearGradient id="linear-gradient-57" x1="341.4687" y1="324.4581" x2="341.4687" y2="614.1" xlink:href="#linear-gradient-20"/>
    <linearGradient id="linear-gradient-58" x1="338.6018" y1="605.1928" x2="344.3358" y2="605.1928" xlink:href="#linear-gradient-4"/>
    <linearGradient id="linear-gradient-59" x1="466.4171" y1="469.9468" x2="488.887" y2="469.9468" xlink:href="#linear-gradient-4"/>
    <linearGradient id="linear-gradient-60" x1="194.0506" y1="469.9468" x2="216.5205" y2="469.9468" xlink:href="#linear-gradient-4"/>
    <linearGradient id="linear-gradient-61" x1="338.6018" y1="332.8264" x2="344.3358" y2="332.8264" xlink:href="#linear-gradient-4"/>
    <linearGradient id="linear-gradient-62" x1="216.8194" y1="538.1029" x2="233.731" y2="538.1029" xlink:href="#linear-gradient-27"/>
    <linearGradient id="linear-gradient-63" x1="252.8811" y1="357.9859" x2="268.3347" y2="357.9859" xlink:href="#linear-gradient-27"/>
    <linearGradient id="linear-gradient-64" x1="208.4423" y1="410.5889" x2="226.756" y2="410.5889" xlink:href="#linear-gradient-27"/>
    <linearGradient id="linear-gradient-65" x1="450.9696" y1="536.2202" x2="468.1859" y2="536.2202" xlink:href="#linear-gradient-27"/>
    <linearGradient id="linear-gradient-66" x1="272.377" y1="592.4398" x2="286.3291" y2="592.4398" xlink:href="#linear-gradient-27"/>
    <linearGradient id="linear-gradient-67" x1="407.1267" y1="586.7058" x2="421.0788" y2="586.7058" xlink:href="#linear-gradient-27"/>
    <linearGradient id="linear-gradient-68" x1="414.8675" y1="357.9859" x2="430.3211" y2="357.9859" xlink:href="#linear-gradient-27"/>
    <linearGradient id="linear-gradient-69" x1="456.4461" y1="410.5889" x2="474.7599" y2="410.5889" xlink:href="#linear-gradient-27"/>
    <linearGradient id="linear-gradient-70" x1="341.4687" y1="316.5811" x2="341.4687" y2="621.9771" xlink:href="#linear-gradient-14"/>
    <linearGradient id="linear-gradient-71" x1="314.3959" y1="414.9994" x2="314.3959" y2="469.0467" xlink:href="#linear-gradient-4"/>
    <linearGradient id="linear-gradient-72" x1="376.0412" y1="374.8576" x2="376.0412" y2="469.2791" xlink:href="#linear-gradient-4"/>
    <linearGradient id="linear-gradient-73" x1="340.0352" y1="502.7493" x2="409.9938" y2="502.7493" gradientTransform="matrix(1, 0, 0, 1, 0, 0)" xlink:href="#linear-gradient-11"/>
    <linearGradient id="linear-gradient-74" x1="341.4687" y1="460.8681" x2="341.4687" y2="477.6901" xlink:href="#linear-gradient-4"/>
    <linearGradient id="linear-gradient-75" x1="456.1513" y1="616.5054" x2="759.3569" y2="616.5054" gradientTransform="matrix(1, 0, 0, 1, 0, 0)" xlink:href="#linear-gradient-11"/>
    <linearGradient id="linear-gradient-76" x1="511.0479" y1="610.5286" x2="712.3525" y2="610.5286" xlink:href="#linear-gradient-27"/>
    <linearGradient id="linear-gradient-77" x1="524.2704" y1="625.1594" x2="718.262" y2="625.1594" xlink:href="#linear-gradient-27"/>
    <linearGradient id="linear-gradient-78" x1="464.0062" y1="546.2635" x2="783.7266" y2="546.2635" xlink:href="#linear-gradient-14"/>
    <linearGradient id="linear-gradient-79" x1="511.0479" y1="540.2867" x2="712.3525" y2="540.2867" xlink:href="#linear-gradient-27"/>
    <linearGradient id="linear-gradient-80" x1="524.2704" y1="554.9176" x2="718.262" y2="554.9176" xlink:href="#linear-gradient-27"/>
    <linearGradient id="linear-gradient-81" x1="342.8181" y1="664.3914" x2="342.8181" y2="603.9506" xlink:href="#linear-gradient-4"/>
    <linearGradient id="linear-gradient-82" x1="432.4763" y1="649.4151" x2="432.4763" y2="667.5178" gradientUnits="userSpaceOnUse">
      <stop offset="0" stop-color="#70affe"/>
      <stop offset="1" stop-color="#8582e4"/>
    </linearGradient>
    <linearGradient id="linear-gradient-83" x1="412.5856" y1="645.4413" x2="412.5856" y2="658.7332" gradientUnits="userSpaceOnUse">
      <stop offset="0" stop-color="#f1baa6"/>
      <stop offset="1" stop-color="#ff8e86"/>
    </linearGradient>
    <linearGradient id="linear-gradient-84" x1="318.0072" y1="598.99" x2="318.0072" y2="672.0561" xlink:href="#linear-gradient-4"/>
    <linearGradient id="linear-gradient-85" x1="414.6808" y1="660.3661" x2="414.6808" y2="678.4688" xlink:href="#linear-gradient-82"/>
    <linearGradient id="linear-gradient-86" x1="396.1916" y1="655.6728" x2="396.1916" y2="669.91" xlink:href="#linear-gradient-83"/>
    <linearGradient id="linear-gradient-87" x1="325.7625" y1="590.218" x2="325.7625" y2="603.9506" xlink:href="#linear-gradient-83"/>
    <linearGradient id="linear-gradient-88" x1="298.4998" y1="535.1621" x2="298.4998" y2="601.7837" xlink:href="#linear-gradient-82"/>
    <linearGradient id="linear-gradient-89" x1="262.9578" y1="523.9244" x2="262.9578" y2="647.59" xlink:href="#linear-gradient-82"/>
    <linearGradient id="linear-gradient-90" x1="308.068" y1="591.6275" x2="308.068" y2="607.7341" xlink:href="#linear-gradient-83"/>
    <linearGradient id="linear-gradient-91" x1="237.733" y1="549.4474" x2="284.4984" y2="640.4639" xlink:href="#linear-gradient-82"/>
    <linearGradient id="linear-gradient-92" x1="352.7715" y1="548.9431" x2="352.7715" y2="594.4233" gradientTransform="translate(774.1528 48.5459) rotate(70.5637)" xlink:href="#linear-gradient-11"/>
    <linearGradient id="linear-gradient-93" x1="325.3539" y1="590.4607" x2="325.3539" y2="615.7313" gradientTransform="translate(273.6183 -80.253) rotate(24.015)" xlink:href="#linear-gradient-11"/>
    <linearGradient id="linear-gradient-94" x1="277.4437" y1="513.2825" x2="277.4437" y2="545.1633" xlink:href="#linear-gradient-83"/>
    <linearGradient id="linear-gradient-95" x1="291.0677" y1="483.2414" x2="291.0677" y2="521.9418" xlink:href="#linear-gradient-83"/>
    <linearGradient id="linear-gradient-96" x1="593.9845" y1="243.5016" x2="593.9845" y2="327.7781" xlink:href="#linear-gradient-27"/>
    <linearGradient id="linear-gradient-97" x1="593.9845" y1="246.3686" x2="593.9845" y2="330.6451" gradientTransform="matrix(1, 0, 0, 1, 0, 0)" xlink:href="#linear-gradient-11"/>
    <linearGradient id="linear-gradient-98" x1="566.6162" y1="282.6162" x2="629.6604" y2="282.6162" xlink:href="#linear-gradient-14"/>
    <linearGradient id="linear-gradient-99" x1="779.9228" y1="630.6015" x2="779.9228" y2="672.1508" xlink:href="#linear-gradient-14"/>
    <linearGradient id="linear-gradient-100" x1="748.0146" y1="491.5277" x2="748.0146" y2="631.6019" xlink:href="#linear-gradient-3"/>
    <linearGradient id="linear-gradient-101" x1="775.5166" y1="619.4902" x2="775.5166" y2="639.7615" xlink:href="#linear-gradient-83"/>
    <linearGradient id="linear-gradient-102" x1="708.9881" y1="486.2618" x2="708.9881" y2="648.9795" xlink:href="#linear-gradient-3"/>
    <linearGradient id="linear-gradient-103" x1="725.8682" y1="648.9795" x2="725.8682" y2="661.0912" xlink:href="#linear-gradient-83"/>
    <linearGradient id="linear-gradient-104" x1="714.0177" y1="661.0912" x2="714.0177" y2="680.0486" xlink:href="#linear-gradient-14"/>
    <linearGradient id="linear-gradient-105" x1="660.0362" y1="302.1291" x2="660.0362" y2="359.9572" xlink:href="#linear-gradient-83"/>
    <linearGradient id="linear-gradient-106" x1="685.3306" y1="351.4535" x2="685.3306" y2="400.7231" xlink:href="#linear-gradient-14"/>
    <linearGradient id="linear-gradient-107" x1="706.062" y1="374.3282" x2="706.062" y2="497.2375" xlink:href="#linear-gradient-4"/>
    <linearGradient id="linear-gradient-108" x1="706.7292" y1="365.5914" x2="706.7292" y2="388.8028" xlink:href="#linear-gradient-83"/>
    <linearGradient id="linear-gradient-109" x1="727.595" y1="378.8219" x2="727.595" y2="506.6332" xlink:href="#linear-gradient-14"/>
    <linearGradient id="linear-gradient-110" x1="701.2559" y1="327.4057" x2="701.2559" y2="371.4754" xlink:href="#linear-gradient-83"/>
    <linearGradient id="linear-gradient-111" x1="673.2521" y1="364.9506" x2="673.2521" y2="409.0893" xlink:href="#linear-gradient-14"/>
    <linearGradient id="linear-gradient-112" x1="616.6716" y1="315.7705" x2="616.6716" y2="377.3769" xlink:href="#linear-gradient-83"/>
  </defs>
  <g id="Background">
    <path id="Ground" d="M493.8821,709.4629c-164.8244,0-381.7859-13.64-413.2408-58.6212h831.683C863.27,692.4123,640.9912,709.4629,493.8821,709.4629Z" fill="url(#linear-gradient)"/>
    <g id="Background-2" data-name="Background">
      <path d="M80.6413,650.8417h831.683c68.4445-69.2458,71.508-199.7758-18.0264-225.8674-45.0453-13.1269-65.965-39.2839,10.9166-119.19,46.0378-47.8491,53.9045-137.1114,13.6743-186.7152C882.6444,74.38,794.4733,31.0265,671.8355,110.5846,576.26,172.5872,461.2335,48.7684,310.5194,46.58c-120.4689-1.75-229.92,67.0592-238.1182,148.4355-9.6545,95.8319,82.2659,168.6961,14.5695,243.3782C37.2962,493.1938,21.752,580.6,80.6413,650.8417Z" fill="url(#linear-gradient-2)"/>
      <path d="M224.0356,359.6951A126.4083,126.4083,0,0,1,58.9971,479.9692a174.4884,174.4884,0,0,1,18.2947-29.9209,92.6181,92.6181,0,1,0,4.4693-181.5718,244.52,244.52,0,0,1-7.9-32.8326A126.3806,126.3806,0,0,1,224.0356,359.6951Z" fill="#fff" opacity="0.5"/>
      <path d="M950.0277,471.0205a120.9233,120.9233,0,1,1-11.0563-226.7739,156.618,156.618,0,0,1-11.6567,30.2161,88.6473,88.6473,0,1,0,2.27,169.7521A90.96,90.96,0,0,1,950.0277,471.0205Z" fill="#fff" opacity="0.5"/>
    </g>
  </g>
  <g id="File">
    <polygon points="434.996 156.086 434.996 650.603 132.008 650.603 132.008 211.563 181.149 156.086 434.996 156.086" fill="url(#linear-gradient-3)"/>
    <polygon points="181.149 156.086 181.149 211.563 132.008 211.563 181.149 156.086" fill="none" stroke="#000" stroke-linecap="round" stroke-linejoin="round"/>
    <polygon points="181.149 156.086 181.149 211.563 132.008 211.563 181.149 156.086" fill="url(#linear-gradient-4)"/>
    <g>
      <rect x="185.5492" y="359.4874" width="199.9378" height="18.0438" rx="6.2936" fill="url(#linear-gradient-5)"/>
      <rect x="185.5492" y="316.4821" width="199.9378" height="18.0438" rx="6.2936" fill="url(#linear-gradient-6)"/>
      <rect x="185.5492" y="273.4769" width="199.9378" height="18.0438" rx="6.2936" fill="url(#linear-gradient-7)"/>
      <rect x="185.5492" y="230.4717" width="199.9378" height="18.0438" rx="6.2936" fill="url(#linear-gradient-8)"/>
    </g>
  </g>
  <g id="Ornament">
    <g id="Envelope_2" data-name="Envelope 2">
      <rect x="807.3548" y="107.8396" width="33.9086" height="59.7455" transform="translate(470.8459 895.0194) rotate(-74.4643)" fill="url(#linear-gradient-9)"/>
      <polygon points="853.253 128.161 822.066 145.78 804.448 114.594 853.253 128.161" fill="url(#linear-gradient-10)"/>
    </g>
    <g id="Envelope_1" data-name="Envelope 1">
      <rect x="263.476" y="170.6073" width="59.7455" height="33.9086" transform="translate(-18.6097 32.9177) rotate(-6.2256)" fill="url(#linear-gradient-11)"/>
      <polygon points="316.689 167.961 294.257 195.886 266.332 173.454 316.689 167.961" fill="url(#linear-gradient-12)"/>
    </g>
    <g id="Paper_Plane" data-name="Paper Plane">
      <path d="M113.0719,163.3142c-.0691,1.11,58.2244,23.3764,58.2244,23.3764l8.8345-11.0674Z" fill="url(#linear-gradient-13)"/>
      <path d="M113.0719,163.3142c-.2813,1.0763,51.591,46.7528,51.591,46.7528l6.6334-23.3764Z" fill="url(#linear-gradient-14)"/>
    </g>
    <g id="Gears">
      <path d="M154.247,299.6514h-.0014a3.0191,3.0191,0,0,1-2.1348-5.1539h0a3.0192,3.0192,0,0,0,0-4.27l-1.48-1.48a3.0192,3.0192,0,0,0-4.27,0h0a3.0191,3.0191,0,0,1-5.1539-2.1348v-.0014a3.0191,3.0191,0,0,0-3.0191-3.0191h-2.1019a3.0191,3.0191,0,0,0-3.0191,3.0191v.0014a3.0191,3.0191,0,0,1-5.154,2.1348h0a3.0191,3.0191,0,0,0-4.27,0l-1.48,1.48a3.0192,3.0192,0,0,0,0,4.27h0a3.0191,3.0191,0,0,1-2.1349,5.1539h-.0013a3.0191,3.0191,0,0,0-3.0191,3.0191v2.1019a3.0191,3.0191,0,0,0,3.0191,3.0191h.0013a3.0191,3.0191,0,0,1,2.1349,5.1539h0a3.0192,3.0192,0,0,0,0,4.27l1.48,1.48a3.0191,3.0191,0,0,0,4.27,0h0a3.0191,3.0191,0,0,1,5.154,2.1348v.0014a3.0191,3.0191,0,0,0,3.0191,3.0191h2.1019a3.0191,3.0191,0,0,0,3.0191-3.0191V320.83a3.0191,3.0191,0,0,1,5.1539-2.1348h0a3.0192,3.0192,0,0,0,4.27,0l1.48-1.48a3.0192,3.0192,0,0,0,0-4.27h0a3.0191,3.0191,0,0,1,2.1348-5.1539h.0014a3.0191,3.0191,0,0,0,3.0191-3.0191v-2.1019A3.0191,3.0191,0,0,0,154.247,299.6514Zm-9.1211,8.14a9.0216,9.0216,0,0,1-3.9184,3.9184,7.9477,7.9477,0,0,1-1.2945.5365,8.9129,8.9129,0,0,1-5.5512,0,7.3834,7.3834,0,0,1-1.2944-.5365,8.842,8.842,0,0,1-3.9185-3.9184,7.3776,7.3776,0,0,1-.5364-1.2945,8.9126,8.9126,0,0,1,0-5.5511,7.3808,7.3808,0,0,1,.5364-1.2945,8.8427,8.8427,0,0,1,3.9185-3.9185,7.3983,7.3983,0,0,1,1.2944-.5364,8.9148,8.9148,0,0,1,5.5512,0,7.9562,7.9562,0,0,1,1.2945.5364,9.0223,9.0223,0,0,1,3.9184,3.9185,7.3808,7.3808,0,0,1,.5364,1.2945,8.9126,8.9126,0,0,1,0,5.5511A7.3776,7.3776,0,0,1,145.1259,307.7915Z" fill="url(#linear-gradient-15)"/>
      <path d="M142.4072,354.5475h-.0018a4.0283,4.0283,0,0,1-2.8484-6.8768h0a4.0284,4.0284,0,0,0,0-5.697l-1.9744-1.9743a4.0282,4.0282,0,0,0-5.6969,0h0a4.0283,4.0283,0,0,1-6.8768-2.8485v-.0018a4.0283,4.0283,0,0,0-4.0283-4.0284H118.176a4.0283,4.0283,0,0,0-4.0283,4.0284v.0018a4.0283,4.0283,0,0,1-6.8768,2.8485h0a4.0282,4.0282,0,0,0-5.6969,0L99.6,341.9737a4.0285,4.0285,0,0,0,0,5.697h0a4.0283,4.0283,0,0,1-2.8484,6.8768h-.0018a4.0283,4.0283,0,0,0-4.0283,4.0283V361.38a4.0283,4.0283,0,0,0,4.0283,4.0283h.0018A4.0283,4.0283,0,0,1,99.6,372.2854h0a4.0284,4.0284,0,0,0,0,5.6969l1.9744,1.9744a4.0284,4.0284,0,0,0,5.6969,0h0a4.0283,4.0283,0,0,1,6.8768,2.8484v.0019a4.0283,4.0283,0,0,0,4.0283,4.0283h2.8046a4.0283,4.0283,0,0,0,4.0283-4.0283v-.0019a4.0283,4.0283,0,0,1,6.8768-2.8484h0a4.0284,4.0284,0,0,0,5.6969,0l1.9744-1.9744a4.0282,4.0282,0,0,0,0-5.6969h0a4.0283,4.0283,0,0,1,2.8484-6.8768h.0018a4.0283,4.0283,0,0,0,4.0283-4.0283v-2.8045A4.0283,4.0283,0,0,0,142.4072,354.5475Zm-12.17,10.8611a12.0379,12.0379,0,0,1-5.2283,5.2283,10.6043,10.6043,0,0,1-1.7273.7158,11.8928,11.8928,0,0,1-7.4067,0,9.8629,9.8629,0,0,1-1.7272-.7158,11.7983,11.7983,0,0,1-5.2283-5.2283,9.8566,9.8566,0,0,1-.7158-1.7272,11.8931,11.8931,0,0,1,0-7.4068,9.8524,9.8524,0,0,1,.7158-1.7271,11.799,11.799,0,0,1,5.2283-5.2284,9.8549,9.8549,0,0,1,1.7272-.7157,11.8928,11.8928,0,0,1,7.4067,0,10.6039,10.6039,0,0,1,1.7273.7157,12.0381,12.0381,0,0,1,5.2283,5.2284,9.852,9.852,0,0,1,.7157,1.7271,11.8931,11.8931,0,0,1,0,7.4068A9.8562,9.8562,0,0,1,130.2372,365.4086Z" fill="url(#linear-gradient-16)"/>
    </g>
    <g id="Task">
      <polygon points="899.802 384.188 862.502 385.205 853.339 335.726 890.639 334.71 899.802 384.188" fill="url(#linear-gradient-17)"/>
      <rect x="858.6671" y="337.6452" width="36.8616" height="50.3196" transform="translate(-51.4021 165.7874) rotate(-10.4922)" fill="url(#linear-gradient-18)"/>
      <rect x="892.2445" y="375.6366" width="6.7726" height="9.2452" transform="translate(-54.2707 169.4541) rotate(-10.4922)" fill="url(#linear-gradient-19)"/>
    </g>
    <g id="Dashed_Line" data-name="Dashed Line">
      <path d="M661.9941,385.8869a1.018,1.018,0,0,1-.0617-2.0341c2.6675-.1641,5.3906-.3718,8.0919-.6174a1.0183,1.0183,0,0,1,.1849,2.0282c-2.7222.2465-5.4642.4563-8.1515.6213C662.0358,385.8859,662.0149,385.8869,661.9941,385.8869Zm16.2244-1.4674A1.0181,1.0181,0,0,1,678.1,382.39c2.6455-.3132,5.3538-.6711,8.05-1.0618a1.0177,1.0177,0,1,1,.2923,2.0143c-2.7131.3947-5.44.7546-8.1037,1.07A.9718.9718,0,0,1,678.2185,384.42Zm16.125-2.3384a1.0179,1.0179,0,0,1-.17-2.0212c2.6366-.4514,5.3249-.9435,7.9894-1.4655a1.0182,1.0182,0,0,1,.3917,1.9984c-2.6814.5249-5.3856,1.02-8.0391,1.4734A1.0189,1.0189,0,0,1,694.3435,382.0811Zm15.9917-3.1268a1.018,1.018,0,0,1-.2177-2.0122c2.6337-.5786,5.2971-1.1951,7.9159-1.8323a1.018,1.018,0,0,1,.4812,1.9784c-2.6337.64-5.3111,1.2607-7.96,1.8423A1.0406,1.0406,0,0,1,710.3352,378.9543Zm15.8337-3.8495a1.0182,1.0182,0,0,1-.26-2.0023c2.589-.688,5.2315-1.4208,7.8543-2.1783a1.0182,1.0182,0,0,1,.5647,1.9566c-2.6367.76-5.2932,1.4982-7.896,2.19A1.038,1.038,0,0,1,726.1689,375.1048Zm15.6995-4.5286a1.0184,1.0184,0,0,1-.3022-1.9909c2.5769-.8013,5.1837-1.64,7.7478-2.4935a1.0179,1.0179,0,1,1,.6422,1.9318c-2.5759.8575-5.1957,1.7006-7.7856,2.5059A1.0023,1.0023,0,0,1,741.8684,370.5762Zm15.4758-5.15a1.0183,1.0183,0,0,1-.34-1.9779c2.5123-.8909,5.08-1.8294,7.6315-2.7893a1.0183,1.0183,0,0,1,.7178,1.9059c-2.5641.9644-5.144,1.9074-7.6693,2.8022A1.0181,1.0181,0,0,1,757.3442,365.4257Zm15.24-5.734a1.0186,1.0186,0,0,1-.3768-1.9646c2.4875-.99,5.0128-2.0232,7.5063-3.0706a1.0182,1.0182,0,0,1,.7894,1.8771c-2.5054,1.0523-5.0426,2.09-7.5421,3.0855A1.017,1.017,0,0,1,772.5843,359.6917Zm15.0075-6.3053a1.0181,1.0181,0,0,1-.4126-1.9491c2.4786-1.0971,4.97-2.227,7.4039-3.3589a1.0181,1.0181,0,1,1,.859,1.8462c-2.4458,1.1369-4.9482,2.2722-7.44,3.3748A1.01,1.01,0,0,1,787.5918,353.3864ZM802.37,346.514a1.018,1.018,0,0,1-.4474-1.9328c2.42-1.1811,4.8656-2.4044,7.2706-3.6363a1.0183,1.0183,0,0,1,.9286,1.8125c-2.4169,1.2373-4.8746,2.4666-7.3064,3.6537A1.0132,1.0132,0,0,1,802.37,346.514Zm14.5064-7.4287a1.0179,1.0179,0,0,1-.4822-1.9148c2.3762-1.2761,4.7732-2.5934,7.1245-3.9157a1.018,1.018,0,1,1,.9982,1.7746c-2.3623,1.3288-4.7712,2.6526-7.16,3.9346A1.01,1.01,0,0,1,816.8761,339.0853Zm14.2042-7.9919a1.0181,1.0181,0,0,1-.518-1.895c2.3354-1.3764,4.6767-2.79,6.9594-4.2a1.0178,1.0178,0,1,1,1.07,1.7319c-2.2946,1.4183-4.6479,2.839-6.9952,4.2224A1.01,1.01,0,0,1,831.08,331.0934Zm13.8632-8.572a1.018,1.018,0,0,1-.5548-1.8721c2.2737-1.4749,4.5505-2.9891,6.7665-4.4993a1.0181,1.0181,0,0,1,1.1474,1.6822c-2.229,1.5191-4.5187,3.0418-6.8064,4.5251A1.0085,1.0085,0,0,1,844.9435,322.5214Zm13.4655-9.182a1.0181,1.0181,0,0,1-.5946-1.8453c2.2181-1.5907,4.4193-3.2117,6.5419-4.8184a1.0181,1.0181,0,1,1,1.2288,1.6236c-2.1365,1.617-4.3516,3.2485-6.5836,4.8492A1.0168,1.0168,0,0,1,858.409,313.3394ZM871.4042,303.5a1.0181,1.0181,0,0,1-.6373-1.8125c2.1435-1.7175,4.25-3.4558,6.2615-5.1674a1.0184,1.0184,0,0,1,1.32,1.551c-2.0272,1.7244-4.15,3.4757-6.3092,5.2052A1.0129,1.0129,0,0,1,871.4042,303.5Zm12.4067-10.5655a1.0182,1.0182,0,0,1-.685-1.7716c2.0371-1.85,4.0245-3.72,5.9085-5.56a1.0177,1.0177,0,1,1,1.4217,1.4565c-1.9009,1.8567-3.9062,3.7437-5.96,5.61A1.018,1.018,0,0,1,883.8109,292.9348Zm11.652-11.3915a1.0178,1.0178,0,0,1-.74-1.717c1.8851-1.9954,3.7114-4.0186,5.4294-6.013a1.0183,1.0183,0,0,1,1.543,1.3293c-1.7389,2.0177-3.5861,4.0638-5.493,6.0815A1.012,1.012,0,0,1,895.4629,281.5433Zm10.6151-12.3565a1.0178,1.0178,0,0,1-.8043-1.64c1.6872-2.1848,3.2829-4.3865,4.7414-6.5434a1.0178,1.0178,0,1,1,1.6862,1.14c-1.4814,2.1922-3.103,4.4291-4.817,6.6477A1.0144,1.0144,0,0,1,906.078,269.1868Zm9.0891-13.5023a1.0173,1.0173,0,0,1-.8829-1.5226c1.371-2.403,2.6058-4.81,3.6686-7.1558a1.0185,1.0185,0,0,1,1.8552.8411c-1.09,2.402-2.3533,4.8661-3.7561,7.3238A1.0169,1.0169,0,0,1,915.1671,255.6845Zm6.65-14.8171a1.0187,1.0187,0,0,1-.9694-1.3287,54.7764,54.7764,0,0,0,1.888-7.7379,1.0177,1.0177,0,1,1,2.0083.331,56.678,56.678,0,0,1-1.9576,8.0272A1.0178,1.0178,0,0,1,921.8173,240.8674Zm2.576-15.9689h-.014a1.0189,1.0189,0,0,1-1.0041-1.032q.0105-.77.0109-1.5271c-.001-2.224-.0745-4.4192-.22-6.5244a1.0185,1.0185,0,0,1,2.0322-.1392c.1471,2.1509.2227,4.3929.2237,6.6631q0,.7717-.011,1.555A1.0188,1.0188,0,0,1,924.3933,224.8985Zm-1.16-16.205a1.0177,1.0177,0,0,1-1.0021-.8471,67.9432,67.9432,0,0,0-1.7966-7.7985,1.018,1.018,0,0,1,1.9527-.5767,69.8329,69.8329,0,0,1,1.85,8.0332,1.0174,1.0174,0,0,1-1.0042,1.1891Zm-4.6469-15.531a1.0178,1.0178,0,0,1-.9276-.597,51.2822,51.2822,0,0,0-3.8436-6.9768,1.0181,1.0181,0,1,1,1.7-1.12,53.2445,53.2445,0,0,1,3.9967,7.2547,1.0188,1.0188,0,0,1-.9256,1.44Zm-8.9419-13.5047a1.0163,1.0163,0,0,1-.7446-.3237,47.8946,47.8946,0,0,0-5.8986-5.3478,1.018,1.018,0,0,1,1.2378-1.6165,49.9852,49.9852,0,0,1,6.15,5.5754,1.0184,1.0184,0,0,1-.7447,1.7126Zm-12.86-9.8755a1.0161,1.0161,0,0,1-.4832-.1223,55.1507,55.1507,0,0,0-7.2964-3.2724,1.0181,1.0181,0,1,1,.6979-1.9128,57.2638,57.2638,0,0,1,7.5669,3.3937,1.0181,1.0181,0,0,1-.4852,1.9138Zm-15.264-5.5978a1.0434,1.0434,0,0,1-.2167-.0229,46.5322,46.5322,0,0,0-7.9089-1.0951,1.018,1.018,0,0,1-.9952-1.0394,1.0453,1.0453,0,0,1,1.0379-.9967,47.6441,47.6441,0,0,1,8.2977,1.1408,1.0182,1.0182,0,0,1-.2148,2.0133Z" fill="#7158cc"/>
      <path d="M822.4764,595.7017l-.09-1.0181v-1.018c2.8026-.001,5.5009-.0418,8.1117-.1223h.0318a1.0183,1.0183,0,0,1,.03,2.0361C827.9287,595.6589,825.21,595.7007,822.4764,595.7017Zm-8.234-.1213h-.0308c-.6571-.0189-1.3183-.0408-1.9794-.0646a1.0178,1.0178,0,0,1,.0735-2.0342q.9858.0359,1.9656.0627a1.0183,1.0183,0,0,1-.0289,2.0361Zm24.4177-.3828a1.0181,1.0181,0,0,1-.0636-2.0341c2.73-.175,5.4482-.3967,8.0769-.6612a1.0182,1.0182,0,1,1,.2028,2.0262c-2.6525.2665-5.3946.4912-8.1505.6671C838.7038,595.1966,838.682,595.1976,838.66,595.1976Zm16.1956-1.63a1.018,1.018,0,0,1-.14-2.0262c2.7062-.38,5.3955-.8142,7.9944-1.2914a1.0179,1.0179,0,1,1,.3678,2.0023c-2.6267.4832-5.3458.9216-8.08,1.3054A.98.98,0,0,1,854.8557,593.5671Zm16.0067-2.9547a1.0179,1.0179,0,0,1-.23-2.0093c2.6555-.6184,5.2892-1.3034,7.8274-2.0352a1.0182,1.0182,0,0,1,.5647,1.9566c-2.573.7417-5.2415,1.4357-7.9308,2.061A.9746.9746,0,0,1,870.8624,590.6124Zm15.6338-4.5217a1.0181,1.0181,0,0,1-.338-1.9784c2.5809-.9077,5.1132-1.889,7.5291-2.916a1.0178,1.0178,0,1,1,.7973,1.873c-2.4557,1.0449-5.03,2.0421-7.65,2.9638A1.0084,1.0084,0,0,1,886.4962,586.0907Zm14.9648-6.3867a1.018,1.018,0,0,1-.4653-1.9238c2.4278-1.2458,4.7871-2.578,7.0131-3.96a1.018,1.018,0,1,1,1.0737,1.73c-2.2727,1.4108-4.6807,2.7708-7.1582,4.0414A1.0072,1.0072,0,0,1,901.461,579.704Zm13.7975-8.6029a1.0181,1.0181,0,0,1-.6164-1.8293,75.5775,75.5775,0,0,0,6.1362-5.1768,1.0184,1.0184,0,1,1,1.3959,1.4833,77.9239,77.9239,0,0,1-6.3013,5.316A1.0164,1.0164,0,0,1,915.2585,571.1011ZM927.05,559.9322a1.018,1.018,0,0,1-.7835-1.6672,55.8214,55.8214,0,0,0,4.65-6.4942,1.0178,1.0178,0,0,1,1.7379,1.06,57.8109,57.8109,0,0,1-4.8189,6.7328A1.0158,1.0158,0,0,1,927.05,559.9322Zm8.3851-13.8771a1.0069,1.0069,0,0,1-.3768-.0725,1.017,1.017,0,0,1-.5687-1.3223,41.2132,41.2132,0,0,0,2.227-7.61,1.0177,1.0177,0,0,1,2,.3758,43.1705,43.1705,0,0,1-2.3364,7.9875A1.0166,1.0166,0,0,1,935.4349,546.0551Zm2.912-15.8953a1.0175,1.0175,0,0,1-1.0161-.9843,33.4035,33.4035,0,0,0-1.1851-7.7945,1.0181,1.0181,0,0,1,1.9626-.5428,35.4194,35.4194,0,0,1,1.2567,8.27,1.017,1.017,0,0,1-.9833,1.0509C938.37,530.16,938.3588,530.16,938.3469,530.16Zm-4.3119-15.5424a1.0164,1.0164,0,0,1-.8888-.5209,35.0239,35.0239,0,0,0-4.624-6.4007,1.0178,1.0178,0,0,1,1.5072-1.3681,36.9019,36.9019,0,0,1,4.8925,6.7746,1.0183,1.0183,0,0,1-.8869,1.5151ZM923.2082,502.62a1.0127,1.0127,0,0,1-.5826-.184,37.6736,37.6736,0,0,0-6.9406-3.7392,1.0185,1.0185,0,0,1,.7914-1.877,39.7192,39.7192,0,0,1,7.3164,3.948,1.0181,1.0181,0,0,1-.5846,1.8522Zm-14.8176-6.5021a.9966.9966,0,0,1-.2784-.0388c-2.402-.681-5.0436-1.3143-7.8522-1.884a1.0185,1.0185,0,1,1,.4046-1.9964c2.8593.5806,5.5516,1.2269,8.0023,1.9218a1.018,1.018,0,0,1-.2763,1.9974Zm-15.965-3.3028a1.1345,1.1345,0,0,1-.1521-.0109c-2.5123-.3758-5.2225-.7278-8.054-1.0459a1.0184,1.0184,0,1,1,.2267-2.0242c2.8573.3211,5.5924.676,8.13,1.0558a1.0182,1.0182,0,0,1-.15,2.0252Zm-16.2134-1.85a.8854.8854,0,0,1-.0885-.004c-2.5641-.2207-5.22-.4225-8.1177-.6154a1.02,1.02,0,0,1-.9485-1.0837,1.0311,1.0311,0,0,1,1.0837-.9484c2.911.1938,5.5795.3967,8.1575.6194a1.0179,1.0179,0,0,1-.0865,2.0321Zm-16.2841-1.1006c-.0189,0-.0368,0-.0547-.001q-4.0264-.2147-8.1415-.3907a1.0179,1.0179,0,0,1-.9733-1.0608,1.0288,1.0288,0,0,1,1.0608-.9733q4.122.1789,8.1614.3907a1.0183,1.0183,0,0,1-.0527,2.0351Zm-16.3069-.7188c-.013,0-.0259,0-.0388-.001q-4.0578-.1521-8.1525-.2933a1.0177,1.0177,0,1,1,.0716-2.0341q4.0937.1431,8.1565.2933a1.0179,1.0179,0,0,1-.0368,2.0351Zm-16.3089-.5756c-.013,0-.0249,0-.0368-.001q-4.0848-.1447-8.1595-.2983a1.0172,1.0172,0,0,1-.9783-1.0558,1.0474,1.0474,0,0,1,1.0559-.9783q4.0683.1566,8.1534.2982a1.0179,1.0179,0,0,1-.0347,2.0352Zm-16.311-.6333c-.0159,0-.0308,0-.0467-.001q-4.107-.1834-8.1594-.4007a1.0183,1.0183,0,0,1-.9614-1.0717,1.035,1.035,0,0,1,1.0708-.9624q4.04.2191,8.1415.4006a1.0181,1.0181,0,0,1-.0448,2.0352Zm-16.2959-.8948c-.0229,0-.0458-.001-.07-.002-2.8087-.1889-5.5527-.3987-8.1555-.6224a1.0171,1.0171,0,0,1-.9266-1.1016,1.001,1.001,0,0,1,1.1016-.9265c2.59.2227,5.321.43,8.1177.6183a1.0183,1.0183,0,0,1-.0676,2.0342ZM778.4481,485.63a1.0978,1.0978,0,0,1-.1123-.0059c-2.8355-.3122-5.57-.6562-8.1306-1.0211a1.0184,1.0184,0,1,1,.2883-2.0162c2.5382.3628,5.2514.7039,8.065,1.0131a1.0181,1.0181,0,0,1-.11,2.03Zm-16.1508-2.3344a1.1028,1.1028,0,0,1-.1879-.0169c-2.83-.5289-5.5318-1.1135-8.0332-1.7388a1.0176,1.0176,0,0,1,.4931-1.9745c2.4627.6144,5.1252,1.19,7.9139,1.711a1.0182,1.0182,0,0,1-.1859,2.0192Zm-15.7959-4.0185a1.0149,1.0149,0,0,1-.3311-.0557,63.0585,63.0585,0,0,1-7.6414-3.1636,1.0182,1.0182,0,1,1,.9107-1.8214,60.9791,60.9791,0,0,0,7.3929,3.06,1.018,1.018,0,0,1-.3311,1.98Zm-14.3752-7.4208a1.0165,1.0165,0,0,1-.6363-.2237,25.3,25.3,0,0,1-5.6252-6.18,1.0186,1.0186,0,1,1,1.7239-1.0857,23.2222,23.2222,0,0,0,5.1759,5.6769,1.0181,1.0181,0,0,1-.6383,1.8124Zm-8.2111-13.3651a1.0171,1.0171,0,0,1-1.0032-.853,23.8282,23.8282,0,0,1-.3072-3.8545,28.9547,28.9547,0,0,1,.3708-4.5256,1.0177,1.0177,0,1,1,2.01.3181,27.0778,27.0778,0,0,0-.345,4.2075,21.9093,21.9093,0,0,0,.2794,3.5244,1.0167,1.0167,0,0,1-.8391,1.1692A.9386.9386,0,0,1,723.9151,458.4916Zm2.1812-15.9092a1.018,1.018,0,0,1-.96-1.3561,75.4277,75.4277,0,0,1,3.1547-7.6077,1.0183,1.0183,0,0,1,1.8353.8829,73.2341,73.2341,0,0,0-3.0692,7.4009A1.0184,1.0184,0,0,1,726.0963,442.5824Zm7.038-14.6148a1.0181,1.0181,0,0,1-.861-1.56,74.5289,74.5289,0,0,1,4.7653-6.7208,1.0175,1.0175,0,1,1,1.5927,1.2666,72.8886,72.8886,0,0,0-4.634,6.5379A1.02,1.02,0,0,1,733.1343,427.9676ZM743.23,415.2547a1.0181,1.0181,0,0,1-.7248-1.7329c1.893-1.9218,3.9341-3.7949,6.0656-5.5685a1.018,1.018,0,1,1,1.3024,1.5649c-2.0808,1.7309-4.0712,3.5592-5.9185,5.4333A1.0138,1.0138,0,0,1,743.23,415.2547Zm12.4742-10.4093a1.0181,1.0181,0,0,1-.58-1.8562c2.2052-1.5211,4.5435-2.9965,6.95-4.3844a1.0182,1.0182,0,1,1,1.0181,1.7637c-2.3593,1.36-4.6509,2.8056-6.81,4.2969A1.02,1.02,0,0,1,755.7037,404.8454ZM769.7866,396.7a1.0181,1.0181,0,0,1-.4444-1.9347c2.399-1.1613,4.9263-2.2827,7.51-3.3316a1.0182,1.0182,0,1,1,.7656,1.887c-2.5432,1.032-5.0287,2.1345-7.3889,3.2779A1.02,1.02,0,0,1,769.7866,396.7Zm15.0881-6.1472a1.0181,1.0181,0,0,1-.3271-1.9824c2.5332-.861,5.1708-1.6782,7.8393-2.4318a1.0185,1.0185,0,0,1,.5527,1.96c-2.6336.7427-5.2374,1.55-7.7378,2.4A1.0157,1.0157,0,0,1,784.8747,390.5527Zm15.69-4.4391a1.0182,1.0182,0,0,1-.2287-2.01c2.6138-.6044,5.316-1.1662,8.0322-1.6673a1.0181,1.0181,0,0,1,.37,2.0024c-2.6863.4961-5.3587,1.0508-7.9426,1.6494A1.02,1.02,0,0,1,800.5642,386.1136Zm16.0395-2.9717a1.0181,1.0181,0,0,1-.1412-2.0262c2.6983-.3817,5.4383-.7128,8.1425-.9842a1.0318,1.0318,0,0,1,1.1145.9117,1.019,1.019,0,0,1-.9116,1.1145c-2.6764.2684-5.3886.5965-8.0611.9743A.9932.9932,0,0,1,816.6037,383.1419Zm16.2423-1.6225a1.0179,1.0179,0,0,1-.0567-2.0341c3.77-.2158,6.4136-.2476,7.6534-.2476l.5965.003a1.0182,1.0182,0,1,1-.03,2.0361l-.5667-.003c-1.2179,0-3.8177.0318-7.5381.2436C832.8848,381.5184,832.8659,381.5194,832.846,381.5194Z" fill="#7158cc"/>
      <path d="M294.7621,587.62q-2.973,0-6.2576-.0368a1.0181,1.0181,0,0,1,.0115-2.0361h.0124c2.1783.0258,4.26.0368,6.2337.0368l1.8984-.004h.005a1.0181,1.0181,0,0,1,.0049,2.0361Zm10.0484-.1a1.0182,1.0182,0,0,1-.02-2.0361c2.8588-.0587,5.5914-.14,8.1221-.2436a1.0179,1.0179,0,0,1,.0831,2.0341c-2.5442.1044-5.2907.1869-8.1634.2456Zm-24.447-.0954h-.0278q-3.9363-.1074-8.1649-.2834a1.018,1.018,0,1,1,.0865-2.0341q4.2054.179,8.1331.2813a1.0183,1.0183,0,0,1-.0269,2.0362Zm-16.2915-.691c-.02,0-.04-.001-.06-.002q-3.9892-.2311-8.1514-.5389a1.0179,1.0179,0,1,1,.1511-2.03q4.1413.3072,8.1186.5368a1.0179,1.0179,0,0,1-.0581,2.0342Zm-16.26-1.211c-.0308,0-.0622-.001-.0935-.0039-2.733-.25-5.4681-.523-8.13-.8133a1.0181,1.0181,0,0,1,.2207-2.0242c2.65.2893,5.3727.5617,8.0939.8093a1.0181,1.0181,0,0,1-.0915,2.0321Zm-16.207-1.7706a1.1692,1.1692,0,0,1-.1308-.008c-2.7166-.349-5.44-.7258-8.0943-1.12a1.0182,1.0182,0,1,1,.2993-2.0142c2.6411.3927,5.3513.7675,8.0545,1.1145a1.0183,1.0183,0,0,1-.1287,2.0282Zm-16.1235-2.403a1.0274,1.0274,0,0,1-.1725-.0149c-2.6953-.4594-5.4-.9545-8.0411-1.4695a1.018,1.018,0,1,1,.39-1.9983c2.6252.512,5.3145,1.0041,7.9944,1.4615a1.0179,1.0179,0,0,1-.1705,2.0212Zm-16.0052-3.1268a1.0531,1.0531,0,0,1-.2212-.0239c-2.7033-.6-5.3812-1.2308-7.96-1.877a1.0178,1.0178,0,1,1,.4951-1.9745c2.5606.6413,5.2206,1.2686,7.9054,1.8631a1.0182,1.0182,0,0,1-.2192,2.0123Zm-15.8024-3.9679a.996.996,0,0,1-.2779-.0387c-2.656-.7527-5.2881-1.545-7.8234-2.3563a1.0178,1.0178,0,1,1,.62-1.9387c2.5134.8033,5.1237,1.59,7.7578,2.3364a1.0179,1.0179,0,0,1-.2769,1.9973Zm-15.5051-4.972a1.01,1.01,0,0,1-.3465-.0606c-2.5983-.94-5.17-1.9308-7.6424-2.9458a1.0177,1.0177,0,1,1,.7725-1.8831c2.4462,1.0032,4.9909,1.9835,7.5629,2.914a1.0182,1.0182,0,0,1-.3465,1.9755Zm-15.0667-6.1959a1.0172,1.0172,0,0,1-.4294-.0954c-2.51-1.17-4.979-2.402-7.3378-3.6617a1.0176,1.0176,0,1,1,.9584-1.7955c2.327,1.2418,4.7623,2.4567,7.2393,3.612a1.0179,1.0179,0,0,1-.4305,1.9406ZM138.7461,555.4a1.0127,1.0127,0,0,1-.5323-.1512c-2.3727-1.4585-4.6758-2.9846-6.8451-4.5365a1.0181,1.0181,0,1,1,1.1841-1.6564c2.1315,1.5242,4.3948,3.0244,6.7277,4.459a1.018,1.018,0,0,1-.5344,1.8851Zm-13.2184-9.4838a1.0122,1.0122,0,0,1-.6552-.24l-.429-.3638c-1.9735-1.68-3.8883-3.3933-5.6918-5.0923a1.0177,1.0177,0,1,1,1.3959-1.4814c1.7786,1.6742,3.6681,3.3654,5.6162,5.0237l.42.3569a1.0176,1.0176,0,0,1-.6562,1.7965Zm-11.835-11.1778a1.0184,1.0184,0,0,1-.7427-.3211c-1.92-2.0481-3.7377-4.1319-5.4005-6.1939a1.0181,1.0181,0,1,1,1.5848-1.2785c1.6315,2.0232,3.4151,4.0682,5.3011,6.0785a1.0183,1.0183,0,0,1-.7427,1.715Zm-10.1767-12.691a1.0164,1.0164,0,0,1-.848-.4534,73.7393,73.7393,0,0,1-4.197-7.1075,1.0178,1.0178,0,1,1,1.81-.9306,71.651,71.651,0,0,0,4.0807,6.9087,1.0184,1.0184,0,0,1-.8461,1.5828Zm-7.361-14.48a1.017,1.017,0,0,1-.9619-.685,47.3615,47.3615,0,0,1-2.0426-8.055,1.0181,1.0181,0,0,1,2.0112-.3182,45.3969,45.3969,0,0,0,1.9552,7.7071,1.0172,1.0172,0,0,1-.9619,1.3511Zm-2.44-15.9957c-.0184,0-.0368,0-.0557-.001a1.0188,1.0188,0,0,1-.9619-1.0718,36.4288,36.4288,0,0,1,1.3954-8.23,1.0178,1.0178,0,1,1,1.9546.5687,34.4,34.4,0,0,0-1.3168,7.7707A1.0177,1.0177,0,0,1,93.7152,491.5718ZM98.206,476.08a1.0177,1.0177,0,0,1-.8893-1.5122,43.3355,43.3355,0,0,1,4.7344-6.8371,1.0182,1.0182,0,0,1,1.5589,1.31,41.2735,41.2735,0,0,0-4.5127,6.5151A1.018,1.018,0,0,1,98.206,476.08ZM108.55,463.6287a1.0178,1.0178,0,0,1-.6676-1.7866,66.7393,66.7393,0,0,1,6.5737-5.0018,1.0183,1.0183,0,0,1,1.1334,1.6921,64.6322,64.6322,0,0,0-6.3724,4.8467A1.011,1.011,0,0,1,108.55,463.6287Zm13.458-9.101a1.0181,1.0181,0,0,1-.4812-1.9158c2.3285-1.2457,4.82-2.4477,7.4049-3.5722a1.0181,1.0181,0,1,1,.8122,1.8672c-2.5347,1.1025-4.9765,2.2807-7.2567,3.5A1.0139,1.0139,0,0,1,122.0082,454.5277Zm14.9007-6.5259a1.0181,1.0181,0,0,1-.3435-1.9765c2.4969-.8938,5.1186-1.75,7.7925-2.5441a1.0184,1.0184,0,0,1,.58,1.9526c-2.6382.7824-5.2241,1.6265-7.6857,2.5083A1.0108,1.0108,0,0,1,136.9089,448.0018Zm15.5965-4.6519a1.0179,1.0179,0,0,1-.2421-2.0063c2.582-.6353,5.2693-1.2358,7.9875-1.7856a1.0184,1.0184,0,0,1,.4036,1.9964c-2.69.5438-5.35,1.1383-7.9049,1.7657A.9805.9805,0,0,1,152.5054,443.35Zm15.955-3.2421a1.0179,1.0179,0,0,1-.1645-2.0222c2.6242-.4345,5.3453-.8381,8.0873-1.2a1.0179,1.0179,0,1,1,.2665,2.0182c-2.72.36-5.4189.76-8.0218,1.19A.9635.9635,0,0,1,168.46,440.1078Zm16.1424-2.1455a1.0182,1.0182,0,0,1-.1029-2.0311c2.6406-.2715,5.3781-.517,8.1366-.73a1.0181,1.0181,0,0,1,.1561,2.03c-2.7411.2108-5.4607.4553-8.0839.7258C184.6734,437.96,184.6381,437.9623,184.6028,437.9623Zm16.2279-1.367a1.018,1.018,0,0,1-.1074-2.03c2.7326-.2943,5.4065-.7049,7.9467-1.2209a1.0185,1.0185,0,0,1,.4051,1.9964c-2.6018.5279-5.3388.9485-8.1341,1.2487A1.0177,1.0177,0,0,1,200.8307,436.5953Zm15.9152-3.2739a1.0179,1.0179,0,0,1-.31-1.9874,63.3849,63.3849,0,0,0,7.455-2.9071,1.0181,1.0181,0,1,1,.861,1.8453,65.4741,65.4741,0,0,1-7.6956,3A1.0226,1.0226,0,0,1,216.7459,433.3214Zm14.6824-6.9018a1.0181,1.0181,0,0,1-.5587-1.87,52.3853,52.3853,0,0,0,6.32-4.86,1.0179,1.0179,0,1,1,1.3621,1.5131,54.3471,54.3471,0,0,1-6.5667,5.0506A1.0153,1.0153,0,0,1,231.4283,426.42Zm12.0453-10.8448a1.0182,1.0182,0,0,1-.7889-1.6613,54.5707,54.5707,0,0,0,4.5629-6.5418,1.0183,1.0183,0,0,1,1.75,1.0419,56.72,56.72,0,0,1-4.7339,6.7864A1.017,1.017,0,0,1,243.4736,415.5748Zm8.3244-13.9228a1.0178,1.0178,0,0,1-.936-1.4177,69.008,69.008,0,0,0,2.7008-7.551,1.0182,1.0182,0,0,1,1.9536.5747,71.15,71.15,0,0,1-2.7813,7.7756A1.0183,1.0183,0,0,1,251.798,401.652Zm4.6355-15.5811a1.1106,1.1106,0,0,1-.1884-.0169,1.0189,1.0189,0,0,1-.8132-1.1881c.4812-2.569.86-5.2524,1.1264-7.9745a1.018,1.018,0,0,1,2.0262.1988c-.2719,2.7808-.6592,5.5228-1.1513,8.15A1.0178,1.0178,0,0,1,256.4335,386.0709Zm1.6151-16.1916h-.0224a1.0188,1.0188,0,0,1-.9962-1.04q.0261-1.2132.0259-2.4328c0-1.8517-.0447-3.75-.1327-5.6416a1.0184,1.0184,0,0,1,.97-1.0643,1.0329,1.0329,0,0,1,1.0643.97c.09,1.9228.1347,3.8526.1347,5.7361q0,1.2416-.0258,2.4766A1.0185,1.0185,0,0,1,258.0486,369.8793Zm-.7382-16.2667a1.0179,1.0179,0,0,1-1.0111-.9092c-.2848-2.6411-.6527-5.3384-1.0941-8.0168a1.0182,1.0182,0,0,1,2.0093-.331c.4474,2.7161.82,5.4512,1.109,8.13a1.0193,1.0193,0,0,1-1.0131,1.1269Zm-2.6381-16.0763a1.0184,1.0184,0,0,1-.9937-.8c-.5722-2.6143-1.2229-5.26-1.9337-7.8627a1.0181,1.0181,0,1,1,1.9645-.5359c.7193,2.6357,1.3785,5.3151,1.9586,7.9631a1.0184,1.0184,0,0,1-.777,1.2125A1.03,1.03,0,0,1,254.6723,337.5363Zm-4.2885-15.7173a1.0194,1.0194,0,0,1-.9674-.701c-.845-2.5764-1.7607-5.142-2.7211-7.6265a1.0179,1.0179,0,0,1,1.8989-.7342c.9734,2.5168,1.9,5.1162,2.757,7.7254a1.02,1.02,0,0,1-.9674,1.3363Zm-47.4971-9.6543-.0283,0a15.7023,15.7023,0,0,1-8.2355-2.4313,1.0179,1.0179,0,1,1,1.1055-1.7095,13.7058,13.7058,0,0,0,7.1856,2.1057,1.018,1.018,0,0,1-.0273,2.0356Zm7.99-1.3277a1.0183,1.0183,0,0,1-.3271-1.9825,36.8056,36.8056,0,0,0,7.1414-3.3957,1.0181,1.0181,0,0,1,1.0529,1.7429,38.849,38.849,0,0,1-7.54,3.5806A1.0167,1.0167,0,0,1,210.8771,310.837Zm33.621-4.211a1.0185,1.0185,0,0,1-.9281-.5985c-1.1364-2.51-2.3339-4.9526-3.56-7.2577a1.0181,1.0181,0,0,1,1.7975-.9564c1.2467,2.3438,2.4636,4.8249,3.6179,7.375a1.0179,1.0179,0,0,1-.9271,1.4376ZM190.0938,303.7a1.0181,1.0181,0,0,1-.9435-.6348,16.3582,16.3582,0,0,1-1.1821-6.1959,18.1721,18.1721,0,0,1,.15-2.313,1.0179,1.0179,0,1,1,2.0192.26,16.2019,16.2019,0,0,0-.1327,2.0535,14.3273,14.3273,0,0,0,1.032,5.4284,1.0192,1.0192,0,0,1-.9425,1.4023Zm34.7489-1.0747a1.0181,1.0181,0,0,1-.6452-1.806q.7165-.5861,1.4421-1.2144a59.5173,59.5173,0,0,0,4.4257-4.23,1.0181,1.0181,0,0,1,1.4833,1.3949,61.7128,61.7128,0,0,1-4.5773,4.3755q-.7464.6465-1.4844,1.25A1.0148,1.0148,0,0,1,224.8427,302.6249Zm11.9737-10.36a1.0167,1.0167,0,0,1-.8595-.4713,75.986,75.986,0,0,0-4.6519-6.5548,1.0179,1.0179,0,0,1,1.5907-1.2706c.98,1.2274,1.9611,2.5492,2.932,3.9505a38.5178,38.5178,0,0,0,2.9234-5.76,1.0179,1.0179,0,0,1,1.888.7615,40.8427,40.8427,0,0,1-3.5687,6.8451q.3027.4623.6035.9351a1.0182,1.0182,0,0,1-.8575,1.5649Zm-44.9584-4.1682a1.0181,1.0181,0,0,1-.8684-1.548,25.2826,25.2826,0,0,1,5.576-6.3386,1.0178,1.0178,0,0,1,1.2934,1.5719,23.2631,23.2631,0,0,0-5.1306,5.8265A1.0174,1.0174,0,0,1,191.858,288.0966Zm34.6858-8.4214a1.0139,1.0139,0,0,1-.6746-.2561,22.0791,22.0791,0,0,0-6.4921-4.1955,1.0181,1.0181,0,0,1,.7327-1.9,24.08,24.08,0,0,1,7.1095,4.5713,1.0181,1.0181,0,0,1-.6755,1.78Zm-22.4312-1.94a1.0183,1.0183,0,0,1-.428-1.9422,44.0531,44.0531,0,0,1,7.8616-2.73,1.0181,1.0181,0,0,1,.4912,1.976,42.0717,42.0717,0,0,0-7.4978,2.6008A1.0141,1.0141,0,0,1,204.1126,277.7355Zm37.7658-2.0053a.9991.9991,0,0,1-.1626-.013,1.0182,1.0182,0,0,1-.8441-1.1662,36.3434,36.3434,0,0,0,.4514-5.7321q0-1.0848-.0616-2.1663a1.0182,1.0182,0,1,1,2.0331-.1144q.0642,1.1386.0646,2.2807a38.3383,38.3383,0,0,1-.4772,6.0542A1.0179,1.0179,0,0,1,241.8784,275.73Zm-.8262-16.15a1.0182,1.0182,0,0,1-.9877-.776,54.7461,54.7461,0,0,0-2.4856-7.5912,1.0181,1.0181,0,1,1,1.886-.7675,56.7372,56.7372,0,0,1,2.577,7.8746,1.0182,1.0182,0,0,1-.99,1.26Zm-6.0463-15.0781a1.0184,1.0184,0,0,1-.8932-.5279c-1.24-2.2583-2.6551-4.57-4.2055-6.8714a1.0178,1.0178,0,1,1,1.6881-1.1374c1.5853,2.3518,3.0328,4.717,4.3019,7.0285a1.0181,1.0181,0,0,1-.8913,1.5082Zm-9.0636-13.53a1.016,1.016,0,0,1-.8-.3882c-1.6181-2.0556-3.3689-4.14-5.2032-6.1964a1.0178,1.0178,0,0,1,1.5191-1.3551c1.8622,2.0868,3.64,4.204,5.2837,6.2918a1.018,1.018,0,0,1-.7993,1.6479ZM215.1065,218.79a1.0163,1.0163,0,0,1-.7228-.3007c-1.8731-1.8875-3.8411-3.7775-5.8494-5.6173a1.018,1.018,0,0,1,1.3755-1.5012c2.0321,1.8616,4.0235,3.774,5.9194,5.6838a1.018,1.018,0,0,1-.7227,1.7354Zm-12.03-11.0237a1.0153,1.0153,0,0,1-.6517-.2361c-3.8078-3.1755-6.346-5.0039-6.3714-5.0218a1.0182,1.0182,0,0,1,1.1876-1.6543c.1054.0755,2.6178,1.8845,6.4882,5.1122a1.0181,1.0181,0,0,1-.6527,1.8Z" fill="#d6e7f2"/>
      <path d="M504.6882,212.1021a1.0326,1.0326,0,0,1-.16-.0124c-2.7947-.4409-5.5029-.9843-8.0486-1.6141a1.0181,1.0181,0,0,1,.4892-1.9765c2.4895.6159,5.1395,1.1473,7.8766,1.5793a1.0181,1.0181,0,0,1-.1571,2.0237Zm-15.7219-3.9485a1.0257,1.0257,0,0,1-.3494-.0621,62.1491,62.1491,0,0,1-7.5376-3.3192,1.0179,1.0179,0,1,1,.9465-1.8024,60.0612,60.0612,0,0,0,7.29,3.2087,1.0185,1.0185,0,0,1-.35,1.975Zm-14.2708-7.57a1.013,1.013,0,0,1-.6084-.2024,48.3232,48.3232,0,0,1-6.181-5.5,1.018,1.018,0,0,1,1.4794-1.3988,46.2369,46.2369,0,0,0,5.9205,5.2673,1.0181,1.0181,0,0,1-.6105,1.8338Zm-11.1022-11.7247a1.0178,1.0178,0,0,1-.8466-.4509,59.2453,59.2453,0,0,1-4.0936-7.1816,1.0183,1.0183,0,1,1,1.8333-.8868,57.0571,57.0571,0,0,0,3.9514,6.9341,1.018,1.018,0,0,1-.8445,1.5852Zm-7.1538-14.568a1.0188,1.0188,0,0,1-.9579-.6736c-.85-2.3608-1.6673-4.9208-2.498-7.8259a1.018,1.018,0,1,1,1.9576-.56c.8182,2.8608,1.6216,5.3781,2.4562,7.6956a1.0193,1.0193,0,0,1-.9579,1.3636Zm-4.5749-15.6379a1.0186,1.0186,0,0,1-.9862-.7685l-.6283-2.4994c-.4554-1.8139-.9073-3.6159-1.3715-5.3976a1.0181,1.0181,0,0,1,1.9705-.513c.4657,1.7871.9191,3.5951,1.3759,5.415l.6279,2.4959a1.0185,1.0185,0,0,1-.7377,1.2368A1.0306,1.0306,0,0,1,451.8646,158.6527ZM298.4391,145.0088a1.0181,1.0181,0,0,1-1.018-1.0181,32.3109,32.3109,0,0,1,1.1508-8.3076,1.0183,1.0183,0,1,1,1.9675.526,30.2545,30.2545,0,0,0-1.0822,7.7816A1.0182,1.0182,0,0,1,298.4391,145.0088Zm149.2042-2.1018a1.0185,1.0185,0,0,1-.97-.7128,77.3307,77.3307,0,0,0-2.7693-7.5416,1.0181,1.0181,0,0,1,1.8681-.81,79.171,79.171,0,0,1,2.8429,7.74,1.02,1.02,0,0,1-.9713,1.3243Zm-66.1061-.4056a16.56,16.56,0,0,1-3.517-.3549,1.0181,1.0181,0,1,1,.4344-1.9894,16.4993,16.4993,0,0,0,5.12.2023c.8977-.0895,1.7577-.2138,2.5556-.3689a1.0179,1.0179,0,0,1,.3887,1.9984c-.859.1675-1.7816.3007-2.7425.3967C383.0056,142.4626,382.2525,142.5014,381.5372,142.5014Zm12.06-3.8779a1.018,1.018,0,0,1-.7247-1.7334,6.257,6.257,0,0,0,1.8338-4.552,9.2666,9.2666,0,0,0-.2451-2.0535,1.0182,1.0182,0,1,1,1.9854-.4533,11.3048,11.3048,0,0,1,.2958,2.5068,8.2308,8.2308,0,0,1-2.42,5.9827A1.0158,1.0158,0,0,1,393.5968,138.6235ZM372.02,137.4314a1.0179,1.0179,0,0,1-.9365-.6183,10.0807,10.0807,0,0,1-.7745-3.9833,14.4668,14.4668,0,0,1,.8421-4.7086,1.0182,1.0182,0,0,1,1.9248.6651,12.4376,12.4376,0,0,0-.7308,4.043,8.0655,8.0655,0,0,0,.6105,3.1834,1.0192,1.0192,0,0,1-.9356,1.4187Zm-69.5709-8.0679a1.0181,1.0181,0,0,1-.9111-1.47,48.5341,48.5341,0,0,1,4.3242-7.0987,1.0184,1.0184,0,0,1,1.6435,1.203,46.5,46.5,0,0,0-4.1434,6.7994A1.0181,1.0181,0,0,1,302.4487,129.3635Zm138.5746-1.2656a1.0176,1.0176,0,0,1-.852-.4594,32.9853,32.9853,0,0,0-5.0272-6.0323,1.0181,1.0181,0,1,1,1.3939-1.4843,35.0147,35.0147,0,0,1,5.3354,6.3992,1.0181,1.0181,0,0,1-.85,1.5768Zm-49.23-4.2269a1.0161,1.0161,0,0,1-.8108-.4017,38.0619,38.0619,0,0,0-5.48-5.7151,1.018,1.018,0,0,1,1.3273-1.544,40.07,40.07,0,0,1,5.7733,6.0263,1.018,1.018,0,0,1-.81,1.6345Zm-15.5126-1.3372a1.018,1.018,0,0,1-.7645-1.69,30.0571,30.0571,0,0,1,6.3982-5.4458,1.0179,1.0179,0,1,1,1.0986,1.714,28.04,28.04,0,0,0-5.9668,5.0749A1.0159,1.0159,0,0,1,376.2808,122.5338Zm53.0169-5.3821a1.0168,1.0168,0,0,1-.4876-.1248,37.0115,37.0115,0,0,0-7.2717-2.9816,1.018,1.018,0,0,1,.5767-1.9526,39.0532,39.0532,0,0,1,7.6723,3.1476,1.0181,1.0181,0,0,1-.49,1.9114Zm-117.2857-.8864A1.018,1.018,0,0,1,311.3,114.52a50.5342,50.5342,0,0,1,6.3868-5.3046,1.018,1.018,0,0,1,1.1672,1.6683,48.5254,48.5254,0,0,0-6.1293,5.0908A1.0149,1.0149,0,0,1,312.012,116.2653Zm77.7651-2.5277a1.0184,1.0184,0,0,1-.3365-1.98,42.21,42.21,0,0,1,8.1008-1.9412,1.0179,1.0179,0,1,1,.2813,2.0163,40.1864,40.1864,0,0,0-7.709,1.8467A1.0213,1.0213,0,0,1,389.7771,113.7376Zm-10.1687-.56a1.0107,1.0107,0,0,1-.5438-.158,66.5563,66.5563,0,0,0-7.0266-3.8625,1.0182,1.0182,0,0,1,.8739-1.8393,68.6282,68.6282,0,0,1,7.2423,3.9818,1.018,1.018,0,0,1-.5458,1.878Zm34.2916-.9385a1.0161,1.0161,0,0,1-.172-.0144,57.4629,57.4629,0,0,0-7.9541-.8078,1.018,1.018,0,0,1-.9883-1.0469,1.0076,1.0076,0,0,1,1.0469-.9882,59.519,59.519,0,0,1,8.2375.8356,1.0181,1.0181,0,0,1-.17,2.0217Zm-88.593-5.2519a1.0181,1.0181,0,0,1-.434-1.9392,47.7,47.7,0,0,1,7.798-2.8672,1.0182,1.0182,0,1,1,.5329,1.9655,45.6522,45.6522,0,0,0-7.4639,2.744A1.0128,1.0128,0,0,1,325.307,106.9874Zm39.6314-.8117a1.0149,1.0149,0,0,1-.3335-.0567c-2.2768-.7894-4.63-1.48-6.9952-2.0535-.2416-.0587-.4812-.1149-.72-.1695a1.0182,1.0182,0,0,1,.4523-1.9855q.3736.0851.7482.1765c2.4273.5881,4.8442,1.2974,7.1821,2.1082a1.0184,1.0184,0,0,1-.3336,1.9805Zm-24-3.4256a1.0181,1.0181,0,0,1-.0909-2.0321,50.5264,50.5264,0,0,1,8.3006-.0562,1.0179,1.0179,0,0,1-.1521,2.03,48.3552,48.3552,0,0,0-7.9646.0542C341.0005,102.7486,340.97,102.75,340.9388,102.75Z" fill="#7158cc"/>
    </g>
  </g>
  <g id="Calendar">
    <rect x="364.9755" y="221.0336" width="456.3821" height="429.8081" fill="url(#linear-gradient-20)"/>
    <rect x="364.9755" y="182.3288" width="456.3821" height="38.7047" fill="#3e487d"/>
    <g>
      <rect x="395.0341" y="164.271" width="7.7234" height="36.1156" rx="2.6939" fill="url(#linear-gradient-21)"/>
      <rect x="466.7095" y="164.271" width="7.7234" height="36.1156" rx="2.6939" fill="url(#linear-gradient-22)"/>
      <rect x="538.3849" y="164.271" width="7.7234" height="36.1156" rx="2.6939" fill="url(#linear-gradient-23)"/>
      <rect x="610.0603" y="164.271" width="7.7234" height="36.1156" rx="2.6939" fill="url(#linear-gradient-24)"/>
      <rect x="681.7357" y="164.271" width="7.7234" height="36.1156" rx="2.6939" fill="url(#linear-gradient-25)"/>
      <rect x="753.4111" y="164.271" width="7.7234" height="36.1156" rx="2.6939" fill="url(#linear-gradient-26)"/>
    </g>
    <rect x="389.5519" y="444.1927" width="122.1636" height="84.5483" fill="url(#linear-gradient-27)"/>
    <rect x="676.2535" y="444.1927" width="122.1636" height="84.5483" fill="url(#linear-gradient-28)"/>
    <rect x="532.9027" y="444.1927" width="122.1636" height="84.5483" fill="url(#linear-gradient-29)"/>
    <rect x="389.5519" y="544.5382" width="122.1636" height="84.5483" fill="url(#linear-gradient-30)"/>
    <rect x="676.2535" y="544.5382" width="122.1636" height="84.5483" fill="url(#linear-gradient-31)"/>
    <rect x="532.9027" y="544.5382" width="122.1636" height="84.5483" fill="url(#linear-gradient-32)"/>
    <rect x="389.5519" y="343.8471" width="122.1636" height="84.5483" fill="url(#linear-gradient-33)"/>
    <rect x="532.9027" y="343.8471" width="122.1636" height="84.5483" fill="url(#linear-gradient-34)"/>
    <g>
      <rect x="676.2535" y="343.8471" width="122.1636" height="84.5483" fill="url(#linear-gradient-35)"/>
      <circle cx="738.9461" cy="386.3852" r="16.1572" fill="url(#linear-gradient-36)"/>
    </g>
    <rect x="389.5519" y="243.5016" width="122.1636" height="84.5483" fill="url(#linear-gradient-37)"/>
    <polygon points="567.306 495.234 586.813 513.652 630.35 470.442 630.35 458.872 586.813 502.082 567.306 483.664 567.306 495.234" fill="#fff"/>
    <g>
      <rect x="676.2535" y="243.5016" width="122.1636" height="84.5483" fill="url(#linear-gradient-38)"/>
      <g>
        <rect x="689.4591" y="257.9536" width="63.952" height="8.0161" rx="2.796" fill="url(#linear-gradient-39)"/>
        <rect x="689.822" y="274.4829" width="80.2804" height="4.9149" rx="1.7143" fill="url(#linear-gradient-40)"/>
        <rect x="689.822" y="287.3845" width="80.2804" height="4.9149" rx="1.7143" fill="url(#linear-gradient-41)"/>
        <rect x="689.822" y="300.2861" width="80.2804" height="4.9149" rx="1.7143" fill="url(#linear-gradient-42)"/>
      </g>
    </g>
  </g>
  <g id="Plants">
    <g id="Plant_2" data-name="Plant 2">
      <g>
        <path d="M168.991,649.5752s-50.785,9.1064-86.1839-23.9819-23.14-61.3633-5.762-60.841,37.1649,13.5584,53.3589,33.6751S168.991,649.5752,168.991,649.5752Z" fill="url(#linear-gradient-43)"/>
        <path d="M168.9609,650.0832a.4819.4819,0,0,1-.1167-.021c-49.3244-14.8771-77.1235-50.2307-77.3989-50.586a.5089.5089,0,0,1,.8051-.6227c.2735.3522,27.8871,35.4546,76.8877,50.2344a.509.509,0,0,1-.1772.9953Z" fill="#fff"/>
      </g>
      <g>
        <path d="M172.7947,568.3807s-50.1435,12.1521-87.4732-18.7414-26.7978-59.8563-9.42-60.3829,37.9148,11.2927,55.2924,30.3963S172.7947,568.3807,172.7947,568.3807Z" fill="url(#linear-gradient-44)"/>
        <path d="M172.7952,568.89a.4825.4825,0,0,1-.1179-.0139C122.5456,557,92.6653,523.3871,92.3691,523.049a.5089.5089,0,0,1,.766-.67c.2943.3351,29.9742,33.7085,79.7769,45.5067a.509.509,0,0,1-.1168,1.0042Z" fill="#fff"/>
      </g>
      <g>
        <path d="M171.0131,554.1061s-33.5038-2.5557-60.4593-43.1422,19.9115-61.0651,39.9221-31.2336C169.1408,507.5556,183.6514,553.0529,171.0131,554.1061Z" fill="url(#linear-gradient-45)"/>
        <path d="M171.013,554.6147a.5107.5107,0,0,1-.3564-.1452c-.0432-.0427-4.5191-4.463-21.093-23.7277a96.1229,96.1229,0,0,1-20.6526-40.79.5091.5091,0,0,1,1.0021-.1809,95.0534,95.0534,0,0,0,20.422,40.307c16.5251,19.208,20.9911,23.6223,21.0344,23.664a.51.51,0,0,1-.3565.873Z" fill="#fff"/>
      </g>
      <path d="M162.5271,586.988s-7.2708-23.1314-32.8388-23.1991-17.55,18.1677-6.1232,25.2328S165.6037,600.0824,162.5271,586.988Z" fill="url(#linear-gradient-46)"/>
      <path d="M252.1274,521.4669a90.1228,90.1228,0,0,0-61.3375,3.2914c-13.0939,5.6669-24.9111,14.5052-27.1491,28.381-5.266,32.6489-19.4841,35.3335-40.0212,46.3662a23.2794,23.2794,0,0,0-7.6369,6.7056c-13.7324,18.3862.2653,44.6306,23.2137,44.6306h181.188a28.374,28.374,0,0,0,27.3186-20.7426c4.5268-16.1748,5.2479-36.1433-18.0164-37.6089-39.512-2.4893-20.0036-55.4987-51.4237-63.7492C267.9081,526.0219,259.1784,523.554,252.1274,521.4669Z" fill="url(#linear-gradient-47)"/>
    </g>
    <g id="Plant_1" data-name="Plant 1">
      <g>
        <path d="M845.8808,648.79s41.6607,2.8674,67.2368-26.8636,13.23-51.4041-.7065-49.458-28.7119,14.1725-39.975,31.78S845.8808,648.79,845.8808,648.79Z" fill="url(#linear-gradient-48)"/>
        <path d="M845.9662,649.2915a.5089.5089,0,0,1-.2846-.97c38.1119-16.1881,57.2192-46.8241,57.4077-47.1316a.5087.5087,0,0,1,.8674.5318c-.19.3108-19.4692,31.2222-57.8772,47.5364A.4818.4818,0,0,1,845.9662,649.2915Z" fill="#fff"/>
      </g>
      <g>
        <path d="M797.7447,551.9233s37.0245-14.9864,46.5623-51.2654-10.1577-49.7434-21.3258-42.232S804.2294,482.64,801.92,502.4988,797.7447,551.9233,797.7447,551.9233Z" fill="url(#linear-gradient-49)"/>
        <path d="M797.808,552.4289a.5091.5091,0,0,1-.447-.8391c25.9742-29.8675,29.58-64.2194,29.613-64.5632a.5094.5094,0,0,1,1.0141.0982c-.034.3469-3.6628,35.01-29.8587,65.1328A.5066.5066,0,0,1,797.808,552.4289Z" fill="#fff"/>
      </g>
      <g>
        <path d="M828.9765,578.0858s50.9475,8.1485,85.7171-25.6006,21.98-61.7881,4.6153-60.9387-36.903,14.2559-52.7154,34.6739S828.9765,578.0858,828.9765,578.0858Z" fill="url(#linear-gradient-50)"/>
        <path d="M829.0171,578.5933a.5089.5089,0,0,1-.1964-.9917c48.7136-15.7,75.6612-51.3161,75.9281-51.6734a.5087.5087,0,1,1,.8161.6075c-.2676.36-27.3965,36.2312-76.432,52.0344A.4778.4778,0,0,1,829.0171,578.5933Z" fill="#fff"/>
      </g>
      <g>
        <path d="M825.2559,563.5247s33.5038-2.5557,60.4593-43.1422-19.9115-61.0651-39.9221-31.2336C827.1282,516.9742,812.6177,562.4715,825.2559,563.5247Z" fill="url(#linear-gradient-51)"/>
        <path d="M825.2562,564.0333a.5091.5091,0,0,1-.3559-.873c.0428-.0417,4.5087-4.456,21.0334-23.664a94.9736,94.9736,0,0,0,20.4219-40.307.5092.5092,0,0,1,1.0022.1809,96.11,96.11,0,0,1-20.6526,40.79c-16.5734,19.2647-21.0493,23.6849-21.093,23.7277A.5089.5089,0,0,1,825.2562,564.0333Z" fill="#fff"/>
      </g>
      <path d="M842.2328,583.851s8.4509-24.44,35.7109-23.7393,18.1609,19.8992,5.7649,27.0858S838.5569,597.7178,842.2328,583.851Z" fill="url(#linear-gradient-52)"/>
      <path d="M744.1416,521.4669a90.1228,90.1228,0,0,1,61.3375,3.2914c13.0939,5.6669,24.9111,14.5052,27.1492,28.381,5.2659,32.6489,19.484,35.3335,40.0212,46.3662a23.28,23.28,0,0,1,7.6368,6.7056c13.7324,18.3862-.2653,44.6306-23.2137,44.6306H675.8846a28.3738,28.3738,0,0,1-27.3185-20.7426c-4.5269-16.1748-5.248-36.1433,18.0163-37.6089,39.512-2.4893,20.0036-55.4987,51.4237-63.7492C728.361,526.0219,737.0906,523.554,744.1416,521.4669Z" fill="url(#linear-gradient-53)"/>
    </g>
  </g>
  <g id="Stopwatch">
    <rect x="316.94" y="279.0173" width="51.4647" height="14.2181" fill="url(#linear-gradient-54)"/>
    <rect x="298.4278" y="258.0706" width="88.4891" height="20.9468" fill="url(#linear-gradient-55)"/>
    <circle cx="341.4687" cy="469.2791" r="182.8016" fill="url(#linear-gradient-56)"/>
    <circle cx="341.4687" cy="469.2791" r="144.821" fill="url(#linear-gradient-57)"/>
    <g>
      <g>
        <path d="M341.4688,616.4278a2.8671,2.8671,0,0,1-2.867-2.867V596.8249a2.867,2.867,0,0,1,5.734,0v16.7359A2.8671,2.8671,0,0,1,341.4688,616.4278Z" fill="url(#linear-gradient-58)"/>
        <path d="M486.02,472.8139H469.2841a2.8671,2.8671,0,0,1,0-5.7341H486.02a2.8671,2.8671,0,0,1,0,5.7341Z" fill="url(#linear-gradient-59)"/>
        <path d="M213.6535,472.8139H196.9176a2.8671,2.8671,0,0,1,0-5.7341h16.7359a2.8671,2.8671,0,0,1,0,5.7341Z" fill="url(#linear-gradient-60)"/>
        <path d="M341.4688,344.0613a2.8671,2.8671,0,0,1-2.867-2.867V324.4584a2.867,2.867,0,0,1,5.734,0v16.7359A2.8671,2.8671,0,0,1,341.4688,344.0613Z" fill="url(#linear-gradient-61)"/>
      </g>
      <g>
        <path d="M218.2529,546.5583a1.4335,1.4335,0,0,1-1.0135-2.447l14.0446-14.0439a1.4333,1.4333,0,1,1,2.027,2.027l-14.0446,14.0439A1.4286,1.4286,0,0,1,218.2529,546.5583Z" fill="url(#linear-gradient-62)"/>
        <path d="M266.9012,365.7123a1.4293,1.4293,0,0,1-1.0136-.42L253.301,352.7065a1.4334,1.4334,0,0,1,2.0271-2.0271l12.5866,12.5859a1.4335,1.4335,0,0,1-1.0135,2.447Z" fill="url(#linear-gradient-63)"/>
        <path d="M225.321,416.4451a1.426,1.426,0,0,1-.7111-.19L209.1633,407.41a1.4335,1.4335,0,1,1,1.4251-2.4877l15.4466,8.8453a1.4335,1.4335,0,0,1-.714,2.6774Z" fill="url(#linear-gradient-64)"/>
        <path d="M466.7509,542.92a1.4279,1.4279,0,0,1-.8469-.2785l-14.3491-10.533a1.433,1.433,0,1,1,1.6967-2.31l14.3491,10.5329a1.4331,1.4331,0,0,1-.85,2.5884Z" fill="url(#linear-gradient-65)"/>
        <path d="M273.81,600.837a1.4339,1.4339,0,0,1-1.1206-2.3266l11.0852-13.9277a1.4335,1.4335,0,0,1,2.2426,1.7863l-11.0851,13.9277A1.43,1.43,0,0,1,273.81,600.837Z" fill="url(#linear-gradient-66)"/>
        <path d="M419.6461,595.103a1.43,1.43,0,0,1-1.1221-.54l-11.0852-13.9277a1.4336,1.4336,0,0,1,2.2427-1.7863l11.0852,13.9277a1.434,1.434,0,0,1-1.1206,2.3267Z" fill="url(#linear-gradient-67)"/>
        <path d="M416.301,365.7123a1.4335,1.4335,0,0,1-1.0136-2.447l12.5866-12.5859a1.4334,1.4334,0,1,1,2.0271,2.0271l-12.5866,12.5859A1.4292,1.4292,0,0,1,416.301,365.7123Z" fill="url(#linear-gradient-68)"/>
        <path d="M457.8811,416.4451a1.4336,1.4336,0,0,1-.714-2.6774l15.4467-8.8453a1.4335,1.4335,0,0,1,1.4251,2.4877l-15.4466,8.8453A1.4261,1.4261,0,0,1,457.8811,416.4451Z" fill="url(#linear-gradient-69)"/>
      </g>
    </g>
    <path d="M341.4687,316.5811a152.698,152.698,0,1,0,152.698,152.698A152.698,152.698,0,0,0,341.4687,316.5811Zm0,297.5189A144.821,144.821,0,1,1,486.29,469.2791,144.821,144.821,0,0,1,341.4687,614.1Z" fill="url(#linear-gradient-70)"/>
    <g>
      <path d="M342.6724,469.0467l-17.0061-19.6761a140.0081,140.0081,0,0,0-19.3489-18.4778l-20.198-15.8934S307.3036,449.4964,342.6724,469.0467Z" fill="url(#linear-gradient-71)"/>
      <path d="M341.4687,469.2791l19.896-33.4363a209.4774,209.4774,0,0,1,23.6606-32.2848l25.5884-28.7S388.4453,431.2188,341.4687,469.2791Z" fill="url(#linear-gradient-72)"/>
      <path d="M408.56,537.6535a1.433,1.433,0,0,1-1.0129-.4186L340.4559,470.294a1.4339,1.4339,0,0,1,2.0257-2.03L409.573,535.205a1.4339,1.4339,0,0,1-1.0128,2.4485Z" fill="url(#linear-gradient-73)"/>
      <circle cx="341.4687" cy="469.2791" r="8.411" fill="url(#linear-gradient-74)"/>
    </g>
  </g>
  <g id="Books">
    <g id="Book_2" data-name="Book 2">
      <path d="M759.3569,616.0125a34.8394,34.8394,0,0,0-34.8394-34.84H462.8135a6.6623,6.6623,0,0,0,0,13.3245h23.4414v44.0159H462.8135a6.6622,6.6622,0,0,0,0,13.3244H720.1612a13.2757,13.2757,0,0,0,5.0681-1.0038A34.8324,34.8324,0,0,0,759.3569,616.0125Z" fill="url(#linear-gradient-75)"/>
      <path d="M741.6657,616.5321a22.0244,22.0244,0,0,1-22.033,22.0331h-250.85v-.2437a26.059,26.059,0,0,0,0-43.5643v-.2581h250.85A22.03,22.03,0,0,1,741.6657,616.5321Z" fill="#fff"/>
      <g>
        <rect x="511.0479" y="607.8954" width="201.3045" height="5.2665" rx="1.8369" fill="url(#linear-gradient-76)"/>
        <rect x="524.2704" y="622.8468" width="193.9916" height="4.6253" rx="1.6133" fill="url(#linear-gradient-77)"/>
      </g>
    </g>
    <g id="Book_1" data-name="Book 1">
      <path d="M783.7266,545.7706c0-19.2413-16.4478-34.8394-36.737-34.8394H471.0313a6.6716,6.6716,0,1,0,0,13.3244H495.75v44.0159H471.0313a6.6716,6.6716,0,1,0,0,13.3244H742.3959a14.6633,14.6633,0,0,0,5.3442-1.0038C767.6816,580.2117,783.7266,564.7733,783.7266,545.7706Z" fill="url(#linear-gradient-78)"/>
      <path d="M765.0718,546.29a21.4288,21.4288,0,0,1-6.8022,15.5822,23.8038,23.8038,0,0,1-16.4309,6.4508H477.3261V568.08a25.3368,25.3368,0,0,0,0-43.5643v-.2581H741.8387C754.6721,524.2572,765.0718,534.12,765.0718,546.29Z" fill="#fff"/>
      <g>
        <rect x="511.0479" y="537.6535" width="201.3045" height="5.2665" rx="1.8369" fill="url(#linear-gradient-79)"/>
        <rect x="524.2704" y="552.6049" width="193.9916" height="4.6253" rx="1.6133" fill="url(#linear-gradient-80)"/>
      </g>
    </g>
  </g>
  <g id="Woman_2" data-name="Woman 2">
    <g id="Leg">
      <path d="M283.1427,624.4959s62.9723-20.5453,69.677-20.5453,62.3456,41.4907,62.3456,41.4907l-10.6673,9.2258L357.9,631.2006s-68.3881,33.5236-80.4566,33.1883S270.0685,634.5529,283.1427,624.4959Z" fill="url(#linear-gradient-81)"/>
      <path d="M283.1427,624.4959s62.9723-20.5453,69.677-20.5453,62.3456,41.4907,62.3456,41.4907l-10.6673,9.2258L357.9,631.2006s-68.3881,33.5236-80.4566,33.1883S270.0685,634.5529,283.1427,624.4959Z" fill="#19171a" opacity="0.2"/>
      <path d="M409.89,658.9589l6.4223,8.5589h37.6163s5.8106-4.3788-8.8689-8.5589a149.9383,149.9383,0,0,1-25.0775-9.5438Z" fill="url(#linear-gradient-82)"/>
      <path d="M454.6107,663.9168c-7.5439-1.3745-30.15-1.3457-31.7384-2.21a19.1005,19.1005,0,0,1-7.707-7.737h0l-5.2755,4.9889,6.4224,8.5588h37.6161A2.7,2.7,0,0,0,454.6107,663.9168Z" fill="#19171a" opacity="0.2"/>
      <path d="M415.1653,645.4413l5.5079,4.1135a28.2907,28.2907,0,0,1-4.0229,7.5428c-4.0647,4.7771-12.1523-2.4305-12.1523-2.4305Z" fill="url(#linear-gradient-83)"/>
      <path d="M236.88,639.9167c0,1.0057,8.0457,24.8075,19.779,31.5122s78.4451-42.575,81.127-41.5693,51.2911,37.2112,51.2911,37.2112l10.0571-11.398s-48.274-55.6491-54.6435-56.6548-61.3481,25.4779-61.3481,25.4779Z" fill="url(#linear-gradient-84)"/>
      <path d="M283.1427,624.4959,236.88,639.9167c0,.5678,2.5653,8.4015,6.91,16.3224,4.5348-2.4,10.2026-5.2028,17.2269-8.3713,18.2226-8.22,27.1816-20.9214,30.8081-27.4908C286.5756,622.8422,283.1427,624.4959,283.1427,624.4959Z" fill="#19171a" opacity="0.2"/>
      <path d="M392.0943,669.91l6.4223,8.5588h37.6163s5.8106-4.3787-8.8689-8.5588a149.9328,149.9328,0,0,1-25.0775-9.5439Z" fill="url(#linear-gradient-85)"/>
      <path d="M399.1343,655.6728l4.0228,4.6933s1.3409,6.0342-4.0228,8.7161-10.0571-2.0114-10.0571-2.0114Z" fill="url(#linear-gradient-86)"/>
    </g>
    <g id="Head_and_Body" data-name="Head and Body">
      <path d="M274.8173,522.5548c2.0049-2.7928,5.56-11.7877,5.56-11.7877,4.5132,4.0658,24.9465-6.5984,28.8264-19.5765,5.1271-17.15-14.5022-30.6945-29.9524-23.8144-14.0539,6.2583-12.85,21.6385-14.5631,27.9645,0,0-16.745-1.2515-22.7792,4.1122s3.6876,14.08-7.71,18.1028-19.779,11.398-14.75,28.83,24.8074,14.75,31.8474,14.08S274.8173,522.5548,274.8173,522.5548Z" fill="#19171a"/>
      <path d="M316.331,591.6275l7.2914-1.41,11.978,6.1484-16.5037,7.5842S314.571,598.0656,316.331,591.6275Z" fill="url(#linear-gradient-87)"/>
      <path d="M319.6319,590.9894l-3.3008.6381a13.8606,13.8606,0,0,0,1.0221,9.2735S318.9928,594.2576,319.6319,590.9894Z" fill="#19171a" opacity="0.2"/>
      <path d="M319.0967,603.9506l12.3812-5.69-6.5942-3.2658s3.1386,4.2007,1.7558,4.6775-1.6342.5969-4.2742-1.4117-3.31-1.0588-4.3581.7291a4.7134,4.7134,0,0,0-.654,1.911A16.8885,16.8885,0,0,0,319.0967,603.9506Z" fill="#19171a" opacity="0.2"/>
      <path d="M282.3924,535.1914c.6768.0967,8.9673,6.5012,11.5216,16.0555s7.8343,34.5145,7.8343,34.5145l17.3484,2.6256-3.2685,13.3967-24.76-2.7937-10.9421-27.5714S273.8479,533.97,282.3924,535.1914Z" fill="url(#linear-gradient-88)"/>
      <path d="M297.474,590.9446c1.4076-3.7153,4.2743-5.1831,3.0171-5.1831s-5.7828,4.7079-7.77,0-.527-8.6177,0-23.2a30.9864,30.9864,0,0,0-8.8889-23.03s-2.5737-1.7974-4.8724-1.2807c-2.9237,8.7571,1.1659,33.1686,1.1659,33.1686L291.0677,598.99l15.9889,1.804c2.71-2.71,3.9624-5.8672,2.9786-6.5532C307.5109,592.4809,296.0664,594.66,297.474,590.9446Z" fill="#19171a" opacity="0.2"/>
      <path d="M291.1273,621.46a49.9713,49.9713,0,0,1-5.39,5.003h-.0143c-2.609,2.136-5.6481,4.3579-8.83,6.4938-8.171,5.476-17.26,10.4216-22.2481,11.9841-1.3045.4014-2.5659.7884-3.77,1.1324a40.76,40.76,0,0,1-6.4364,1.3762c-5.4044.6451-9.3035-.8171-11.2388-6.8664a26.8685,26.8685,0,0,1-.9748-5.92c-.1576-1.8493-.2293-3.9565-.2149-6.2931a225.5324,225.5324,0,0,1,2.48-29.76c.344-2.3366.7024-4.7305,1.1038-7.1819.9031-5.5333,1.9925-11.296,3.254-17.1734q.7527-3.5263,1.5912-7.0815c.3584-1.5625.7455-3.1394,1.1325-4.7019,8.7158-34.8629,26.8209-38.547,26.8209-38.547l4.6016,6.0637,4.5156,5.9777,6.6371,8.7445a52.9571,52.9571,0,0,1,2.8671,4.8165,43.2309,43.2309,0,0,1,3.211,7.5546,24.8585,24.8585,0,0,1,.8457,3.9422c.8888,7.5832-7.2535,16.5426-6.9238,28.9425a29.8511,29.8511,0,0,0,2.0212,9.9486c2.566,6.8091,6.7663,11.7547,7.698,16.1986C294.1376,617.4321,293.0912,619.2956,291.1273,621.46Z" fill="url(#linear-gradient-89)"/>
      <path d="M287.0132,549.5268a10.883,10.883,0,1,1-10.5364-13.6183,8.3054,8.3054,0,0,1,1.0322.0573l-4.5156-5.9777a17.1661,17.1661,0,1,0,17.2308,27.0933A43.2309,43.2309,0,0,0,287.0132,549.5268Z" fill="#fff" opacity="0.2"/>
      <path d="M293.8653,616.1133c-.9317-4.4439-5.132-9.3895-7.698-16.1986a17.16,17.16,0,1,0-9.2747,33.0423c3.1823-2.1359,6.2214-4.3578,8.83-6.4938a10.6675,10.6675,0,0,1-4.2289.86,10.8947,10.8947,0,1,1,10.88-10.8947,10.6327,10.6327,0,0,1-1.2472,5.0316C293.0912,619.2956,294.1376,617.4321,293.8653,616.1133Z" fill="#fff" opacity="0.2"/>
      <path d="M233.73,628.2837q-.86,0-1.72.0861c-.0144,2.3366.0573,4.4438.2149,6.2931a8.6554,8.6554,0,0,1,1.5052-.1147,10.89,10.89,0,0,1,10.8947,10.8947,10.2566,10.2566,0,0,1-.1863,2.0068,40.76,40.76,0,0,0,6.4364-1.3762c.0143-.2149.0143-.4156.0143-.6306A17.1606,17.1606,0,0,0,233.73,628.2837Z" fill="#fff" opacity="0.2"/>
      <path d="M243.5778,566.8866a17.3927,17.3927,0,0,0-3.1394.2867q-.8385,3.5479-1.5912,7.0815a10.4915,10.4915,0,0,1,4.7306-1.1038,10.8875,10.8875,0,1,1-7.9846,18.2772c-.4014,2.4514-.76,4.8453-1.1038,7.1819a17.1626,17.1626,0,1,0,9.0884-31.7235Z" fill="#fff" opacity="0.2"/>
      <path d="M284.3953,597.0843s-16.0146,11.61-17.8468,6.8663-3.5911-19.7668-3.5911-19.7668S258,615.8777,258,617.002s11.8673.1743,12.4708.1465S284.3953,597.0843,284.3953,597.0843Z" fill="#19171a" opacity="0.2"/>
      <path d="M288.3568,604.766c-3.3792,2.4037-20.3381,14.2937-27.34,15.8746-7.7942,1.76-17.3555-15.0636-14.8342-5.7828s6.0343,22.377,15.0857,20.6652c7.6521-1.4471,25.8981-17.8246,31.3574-22.8544C291.5029,610.2968,289.887,607.7153,288.3568,604.766Z" fill="#19171a" opacity="0.2"/>
      <path d="M293.914,607.7341l7.6667-5.0285s6.4974,4.649,9.4408,4.4814,11.0594-4.8688,11.0594-4.8688l-4.0737-3.3282,6.8765,2.0943,4.7572-2.0943a173.5763,173.5763,0,0,1-17.3327-6.6768c-7.04-3.3523-25.8132,6.6768-25.8132,6.6768Z" fill="url(#linear-gradient-90)"/>
      <path d="M288.2277,601.0321l5.6863,6.7019,1.7524-1.1494-4.7342-9.7577c-.72.3288-1.3743.6374-1.9468.9134A7.4083,7.4083,0,0,0,288.2277,601.0321Z" fill="#19171a" opacity="0.2"/>
      <path d="M250.9054,549.3544a7.7715,7.7715,0,0,1,9.5036-4.4112c3.1356,1.049,6.3071,4.0374,6.3071,11.8351,0,15.4208-2.72,52.9672-2.72,52.9672l24.8459-15.4208,5.0723,13.4094s-24.1472,21.22-32.5952,24.0364-17.7339-7.9451-17.7339-29.4C243.5849,585.0051,246.44,559.7811,250.9054,549.3544Z" fill="url(#linear-gradient-91)"/>
      <path d="M328.99,569.3164h44.9826a2.58,2.58,0,0,1,2.58,2.58v1.4425a0,0,0,0,1,0,0H328.99a0,0,0,0,1,0,0v-4.0228A0,0,0,0,1,328.99,569.3164Z" transform="translate(-303.3852 713.8815) rotate(-70.5637)" fill="url(#linear-gradient-92)"/>
      <path d="M301.0289,601.0846H352a0,0,0,0,1,0,0v1.2165a2.8063,2.8063,0,0,1-2.8063,2.8063H298.9357a0,0,0,0,1,0,0v-1.93A2.0932,2.0932,0,0,1,301.0289,601.0846Z" transform="translate(-217.2726 184.6622) rotate(-24.015)" fill="url(#linear-gradient-93)"/>
      <path d="M286.495,515.5443s-4.6933,12.4037-4.6933,16.4265,2.5936,10.979,2.3467,12.739c-.3391,2.4168-10.8114-5.28-13.9415-12.3193a25.5629,25.5629,0,0,1-1.8146-8.4654l9.7435-10.6426Z" fill="url(#linear-gradient-94)"/>
      <path d="M278.1358,513.2825l-1.6544,1.807c1.9109,3.7479,4.6176,8.9265,6.32,11.6221,1.3776-5.04,3.6938-11.1674,3.6938-11.1674Z" fill="#19171a" opacity="0.2"/>
      <path d="M305.4737,483.2414s2.0438,10.4022-.465,16.9884-.2019,10.5194-.2019,10.5194-5.123,2.5191-6.8663,6.5133-4.5254,5.34-9.2292,4.3847-11.9656-7.7829-12.7194-13.5984,2.3136-10.3293,5.81-6.6084,14.9584-1.7738,19.5142-8.6744S305.4737,483.2414,305.4737,483.2414Z" fill="url(#linear-gradient-95)"/>
      <ellipse cx="298.6707" cy="501.7615" rx="2.4305" ry="0.8381" transform="translate(-253.0349 693.0457) rotate(-78.3592)" fill="#19171a"/>
      <path d="M291.3637,517.3094a2.9216,2.9216,0,0,1-2.032-.7486c-1.5941-1.4451-1.3314-4.4729-1.32-4.6012a.6848.6848,0,0,1,1.3636.127c-.0622.6857-.0254,2.6455.8776,3.4609a1.8722,1.8722,0,0,0,1.71.33.6849.6849,0,0,1,.2607,1.3448A4.575,4.575,0,0,1,291.3637,517.3094Z" fill="#d65d5b"/>
      <path d="M295.7142,495.8078a.6841.6841,0,0,1-.4658-1.1857c3.0873-2.8714,8.12-.2166,8.3329-.1016a.6844.6844,0,0,1-.6477,1.2058c-.0441-.0241-4.3834-2.3073-6.7535-.1016A.6792.6792,0,0,1,295.7142,495.8078Z" fill="#d65d5b"/>
      <path d="M324.8837,601.0843l-6.8765-2.0943S316.9679,596.3622,324.8837,601.0843Z" fill="#19171a" opacity="0.2"/>
      <path d="M319.0967,603.9506l-3.1721-1.67A3.1041,3.1041,0,0,1,319.0967,603.9506Z" fill="#19171a" opacity="0.2"/>
      <path d="M315.1562,605.4884l-2.848-1.1514S314.9871,603.9131,315.1562,605.4884Z" fill="#19171a" opacity="0.2"/>
    </g>
  </g>
  <g id="Character_1" data-name="Character 1">
    <g id="Scheduling">
      <rect x="532.9027" y="243.5016" width="122.1636" height="84.2765" fill="url(#linear-gradient-96)"/>
      <g>
        <rect x="532.9027" y="246.3686" width="122.1636" height="84.2765" fill="url(#linear-gradient-97)"/>
        <polygon points="566.616 291.589 586.123 310.006 629.66 266.796 629.66 255.226 586.123 298.436 566.616 280.019 566.616 291.589" fill="url(#linear-gradient-98)"/>
      </g>
    </g>
    <g id="Woman_1" data-name="Woman 1">
      <g id="Leg-2" data-name="Leg">
        <path d="M774.0533,639.7615s.4367,8.3147-9.2408,16.46-1.6647,15.929-1.6647,15.929l36.6648-28.3394-13.9083-13.21Z" fill="url(#linear-gradient-99)"/>
        <path d="M737.2194,491.5277c-1.0532,1.58,11.5851,84.2552,11.5851,84.2552L777.7672,619.49,765.129,631.6019l-39.9044-43.7074-6.9626-96.3668Z" fill="url(#linear-gradient-100)"/>
        <path d="M743.0705,579.1179l-7.3724-57.2233,4.1315-7.2793c-1.0508-7.6241-1.9047-14.1909-2.3458-18.3555-3.1373-1.3036-5.8814-2.45-5.8814-2.45s-7.21,11.205-11.7874,19.2127l5.41,74.8722,39.9044,43.7074,8.2381-7.8949a54.3906,54.3906,0,0,0-3.6158-4.2168c-7.0212-7.3723-23.8723-35.2631-23.8723-35.2631l2.9255-8.4443Z" fill="#19171a" opacity="0.2"/>
        <polygon points="777.767 619.49 785.904 630.602 774.053 639.761 765.129 631.602 777.767 619.49" fill="url(#linear-gradient-101)"/>
        <path d="M684.56,488.8947s11.0584,54.2393,17.9042,84.7818,14.9787,75.303,14.9787,75.303h15.9733l-5.82-74.7764,2.7775-87.9413Z" fill="url(#linear-gradient-102)"/>
        <path d="M686.784,499.7383c9.4293,2.2815,19.278,2.75,25.4462,6.8962,3.887,2.6125,9.8063,8.9111,17.1185,12.0812l1.025-32.454-45.8137,2.633S685.4111,493.0692,686.784,499.7383Z" fill="#19171a" opacity="0.2"/>
        <polygon points="717.443 648.98 719.315 661.091 734.294 661.091 733.416 648.98 717.443 648.98" fill="url(#linear-gradient-103)"/>
        <path d="M719.3152,661.0912s-4.7393,6.8457-17.3776,7.3723-11.0585,11.5851-11.0585,11.5851h46.34l-2.9258-18.9574Z" fill="url(#linear-gradient-104)"/>
        <polygon points="777.767 619.49 765.129 631.602 767.938 634.17 779.221 621.475 777.767 619.49" fill="#19171a" opacity="0.2"/>
        <polygon points="733.416 648.979 717.443 648.979 717.587 649.911 733.79 654.14 733.416 648.979" fill="#19171a" opacity="0.2"/>
      </g>
      <g id="Head_and_Body-2" data-name="Head and Body">
        <path d="M675.0813,351.4535l-12.0052-25.4521-4.3047-17.6628-3.7051-6.2095v16.4166s-.5629,1.1854-4.7756-3.0274-7.54-.759-3.41,3.8048a27.8318,27.8318,0,0,1,5.6332,10.589l-2.68.733s.673,2.3776,4.1837,3.7818,9.0586,25.53,9.0586,25.53Z" fill="url(#linear-gradient-105)"/>
        <path d="M707.2263,388.8028S680.58,368.3045,677.8305,359.879l-2.7492-8.4255-12.0052,8.5037s7.3821,19.8,19.3775,32.3952S710.1641,402.9784,707.2263,388.8028Z" fill="url(#linear-gradient-106)"/>
        <path d="M686.9753,382.1526c-2.7927-.9455-17.1441-7.8093-17.1742-7.8237a87.0747,87.0747,0,0,0,12.6525,18.0235c4.4412,4.6633,9.3906,7.325,13.7162,8.115,3.921-2.5963,9.5666-7.44,8.8074-13.4308-1.9972-1.5869-5.1235-4.1151-8.5708-7.065C693.27,381.2032,688.7306,382.7469,686.9753,382.1526Z" fill="#19171a" opacity="0.2"/>
        <path d="M701.2559,377.1971s-22.313,18.3148-20.2066,36.57,8.4177,18.2553,8.7727,36.8617S676.8366,488.8947,677.89,493.81s43.1807,4.2128,53.7126,0S719.5988,353.0093,701.2559,377.1971Z" fill="url(#linear-gradient-107)"/>
        <path d="M701.535,450.2778c-6.3324-9.421-11.269-14.0934-14.7219-16.4024,1.5724,4.0866,2.8544,8.659,3.0089,16.7535.001.0542-.0014.1087-.0006.1631,1.8833,2.3223,3.7078,4.4489,5.08,6.156,5.0794,6.3191,1.8288,21.7659,6.6336,38.6169a17.4733,17.4733,0,0,0,.5676,1.6556,157.0028,157.0028,0,0,0,23.2889-1.8364C719.761,483.0312,710.2445,463.2351,701.535,450.2778Z" fill="#19171a" opacity="0.2"/>
        <path d="M687.9917,411.7429c4.9015-8.367,1.37-10.7421-3.9752-12.96a29.8021,29.8021,0,0,0-3.0906,12.3284Z" fill="#19171a" opacity="0.2"/>
        <path d="M713.9526,382.1527a129.5863,129.5863,0,0,1-12.6967,6.1624c-6.9539,2.8963-1.3842-7.8659-1.4247-12.3749s-.79-10.2686-.79-10.2686,16.4668-1.0532,16.6589,4.476Z" fill="url(#linear-gradient-108)"/>
        <path d="M699.8312,375.94a8.7241,8.7241,0,0,1-.1067,1.2584,76.3935,76.3935,0,0,0,13.6811-8.6308c.3171-.2557.606-.5021.882-.7443-3.1573-2.2531-10.759-2.2953-13.8753-2.2084l-1.3174.4876C699.2655,367.5054,699.7972,372.1564,699.8312,375.94Z" fill="#19171a" opacity="0.2"/>
        <path d="M712.0653,363.3956s-3.0175,11.0639-2.2631,14.5842,8.0465,5.7834,20.1161,2.766,12.07-4.7776,12.07-4.7776-12.07-13.0755-11.0638-19.8647,8.6039-21.0465-2.2631-32.94c-11.9468-13.0755-36.4605-8.2979-38.7236,10.31C688.2249,347.5543,706.03,365.4072,712.0653,363.3956Z" fill="#19171a"/>
        <path d="M750.5666,497.6769a90.656,90.656,0,0,1-11.038,5.7626,44.183,44.183,0,0,1-7.2679,2.437c-8.8448,2.0786-17.1591.2867-22.2625-10.5793a42.1327,42.1327,0,0,1-2.5372-7.2535c-.086-.301-.1577-.6021-.2294-.9032A309.2311,309.2311,0,0,0,695.62,450.6721c-1.0035-2.652-1.9639-5.1893-2.8527-7.5832-2.5086-6.7662-4.5012-12.5576-5.4043-17.5318a25.5994,25.5994,0,0,1-.3871-4.86,42.9226,42.9226,0,0,1,.7455-7.5976c2.2649-12.3712,9.7478-27.1506,22.8644-33.6588a5.9168,5.9168,0,0,1,7.9416,2.695,106.5184,106.5184,0,0,1,9.2175,30.5767c1.5338,9.8913,6.0207,20.3272,11.5971,29.4729q2,3.29,4.1572,6.3219c6.379,9.0024,13.4749,16.0409,18.994,18.9652.3726.2008.7167.4014,1.0464.6164a9.3077,9.3077,0,0,1,4.5013,6.0781C769.46,481.2775,762.0633,490.7674,750.5666,497.6769Z" fill="url(#linear-gradient-109)"/>
        <path d="M763.54,468.0892a14.013,14.013,0,1,1-20.04-19.5816q-2.15-3.0319-4.1572-6.3219a21.4915,21.4915,0,1,0,28.6989,31.9816A9.3077,9.3077,0,0,0,763.54,468.0892Z" fill="#fff" opacity="0.2"/>
        <path d="M718.2553,485.1337a21.3335,21.3335,0,0,0-10.7943,2.91,42.1327,42.1327,0,0,0,2.5372,7.2535,14.0342,14.0342,0,0,1,22.2625,10.5793,44.183,44.183,0,0,0,7.2679-2.437A21.51,21.51,0,0,0,718.2553,485.1337Z" fill="#fff" opacity="0.2"/>
        <path d="M687.7216,413.1a42.9226,42.9226,0,0,0-.7455,7.5976,14.0135,14.0135,0,0,1,5.7914,22.3914c.8888,2.3939,1.8492,4.9312,2.8527,7.5832A21.4924,21.4924,0,0,0,687.7216,413.1Z" fill="#fff" opacity="0.2"/>
        <path d="M710.1941,405.7664c6.1956-10.9566-16.287-7.446-16.287-7.446s-.738.4329-1.7894,1.1789a55.9333,55.9333,0,0,0-4.126,12.2436C693.8563,412.8323,705.6242,413.8483,710.1941,405.7664Z" fill="#19171a" opacity="0.2"/>
        <path d="M696.8472,327.4057s-6.3192,9.1276-6.67,16.5-4.2128,10.1808-4.2128,10.1808,3.8617,4.5638,3.8617,9.1276,2.1064,7.0213,7.0213,8.0745,14.7446-2.4575,17.9042-7.7234,2.1064-10.883-2.8085-8.7766-13.6138-7.9685-15.0957-16.5S696.8472,327.4057,696.8472,327.4057Z" fill="url(#linear-gradient-110)"/>
        <ellipse cx="695.6184" cy="348.0306" rx="2.5452" ry="0.8777" transform="translate(211.2226 956.6118) rotate(-78.0618)" fill="#19171a"/>
        <path d="M697.2867,365.3652a9.1588,9.1588,0,0,1-1.8241-.1785.7168.7168,0,0,1,.3094-1.4c.0336.0084,3.161.6726,4.5035-.8876a.7172.7172,0,0,1,1.0864.9366A5.286,5.286,0,0,1,697.2867,365.3652Z" fill="#d65d5b"/>
        <path d="M695.6184,386.3788c.138,0,13.9233,2.7659,16.0758,10.3619s-1.48,15.6028-23.8284,10.9909-53.5918-30.3534-53.5918-30.3534l11.4-12.4276s17.9342,14.7008,25.66,16.4384S695.6184,386.3788,695.6184,386.3788Z" fill="url(#linear-gradient-111)"/>
        <path d="M645.6768,364.9483,634.28,377.3769s-25.5738-34.1319-27.509-34.9489a76.8021,76.8021,0,0,1-11.5828-7.3253c-4.2-3.0247-6.9811-5.8774-7.4542-7.0528-.1147-.2868-.086-.4731.1-.53.2437-.0717.7677-.5743,1.47-.2016a58.6473,58.6473,0,0,1,5.5293,3.7252c-.1434-.1576-.8856-.6847-2.6631-2.4479-.258-.258-.516-.53-.76-.8171-2.1645-2.523-4.15-5.964-3.4044-5.964.7311,0,7.1617,4.49,8.4948,5.6794-.86-.8172-4.04-3.5651-5.617-6.2314-1.9208-3.2541-2.3187-5.6838,2.3688-1.0678,4.6876,4.6015,8.558,5.4186,8.558,5.4186l-1.9352-2.437a13.9986,13.9986,0,0,1-3.3114-6.7805c-.2723-2.1789,4.1428,1.62,7.999,7.0672a31.04,31.04,0,0,0,3.8848,4.5873,7.2782,7.2782,0,0,0,5.0357,2.4276c.79.1426,3.8684.1676,3.8684.1676a41.6312,41.6312,0,0,0,.1843,6.3642Z" fill="url(#linear-gradient-112)"/>
        <path d="M699.8877,342.6915a.7168.7168,0,0,1-.71-.6264,3.1583,3.1583,0,0,0-1.3271-2.557,3.7943,3.7943,0,0,0-2.9188.13.7163.7163,0,1,1-.616-1.2935,5.1409,5.1409,0,0,1,4.2221-.0945,4.47,4.47,0,0,1,2.0621,3.6349.7169.7169,0,0,1-.62.8014A.8183.8183,0,0,1,699.8877,342.6915Z" fill="#19171a"/>
      </g>
    </g>
  </g>
</svg>
