<svg xmlns="http://www.w3.org/2000/svg" viewBox="0 0 4680 3120"><defs><style>.cls-1{fill:#fff;}.cls-2{fill:#fddeb8;}.cls-3{fill:#abd0d6;}.cls-4{fill:#447674;}.cls-5{fill:#87c2be;}.cls-6{fill:#f9bc78;}.cls-7{fill:#501216;}.cls-8{fill:#f9b757;}.cls-9{fill:#e85926;}.cls-10{fill:#8a2230;}.cls-11{fill:#e64424;}.cls-12{fill:#e64054;}.cls-13{fill:#1d1d1b;}.cls-14{opacity:0.53;}.cls-15{fill:#ad4618;}.cls-16{fill:#397090;}.cls-17{fill:#f4a887;}.cls-18{fill:#c83949;}.cls-19{fill:#cb5b53;}.cls-20{fill:#1a394b;}.cls-21{fill:#e5782b;}.cls-22{fill:#400c0c;}.cls-23{fill:#83222f;}.cls-24{fill:#b92d43;}.cls-25{fill:#0f2b3a;}.cls-26{fill:#c02b3f;}.cls-27{fill:#ef8c6c;}.cls-28{fill:#adf0f7;}.cls-29{opacity:0.71;}.cls-30{fill:#f2c1a5;}</style></defs><title>03</title><g id="_03" data-name="03"><rect id="_03-2" data-name="03" class="cls-1" width="4680" height="3120"/><path class="cls-2" d="M2958.13,612.3c-1077.4,148.57-1831.11,705-1892.85,1314.2-25.14,248.05,60.46,533.87,261.22,717.36,505.5,462,1499.64,84.26,1918.14-214.54,298.2-212.91,395.7-451,393.88-548.6-1-55.37-26.43-95.69-26.43-95.69-39.15-62.11-125.52-106.58-204.16-104.47-22.47.61-28.52,4.64-41.95-.26-50.31-18.36-78.33-113.72-58.51-182.82,29-101,145.54-94.77,348.81-256.14,75.34-59.81,119.72-100.15,146.88-167.22,53-130.86-3.39-277.81-59.71-353.66C3613.35,545.27,3290.75,489.82,2958.13,612.3Z"/><path class="cls-2" d="M3770.79,384.78c1.65,2.08,14.2,18.3,13.15,40.17-2.44,50.36-74.52,79-97.77,88.18-28.09,11.14-73.52,29.16-119,8.82-8.69-3.89-38.67-17.31-52.24-50.6-1.88-4.62-15.09-37-.64-64s47.31-31.75,108.09-39.81C3689,358.67,3744.16,351.36,3770.79,384.78Z"/><path class="cls-2" d="M3507.63,1538.27c169.74,38.85,300.61,144.8,330.82,278,17.07,75.23,4.81,171.49-39.66,233.68-7.82,10.94-38.28,53.54-77.91,56.49-7.57.56-29.1,2.16-46.35-11.53a48.66,48.66,0,0,1-10.66-11.56c-16.28-26.78,36.46-80.5,60-134.81,25.17-58,15.71-113.76,8.82-154.32C3705.23,1632.52,3528,1547.68,3507.63,1538.27Z"/><path class="cls-2" d="M869.94,1860c-15.6,81.66-35.9,250.25,32.15,442.09,105.16,296.44,345.43,434.57,409,468.56-99.53-79.79-156.82-160.66-189.48-216.05C1078.24,2481,948,2260.09,990,2052.65c12.1-59.86,27.21-135-13.78-173.4C948.35,1853.14,904.11,1854.38,869.94,1860Z"/><path class="cls-3" d="M1245.26,913.31s105.12-17.6,99,119.9c0,0-6.14,36.4,17,62.54s254,18.16,135.59,225.69c0,0-54.09,21.14-22.28,97.92s174,81.81,114.65,253c0,0-34.36,35.82-20.25,86.66s69.38,94,47.36,137.37,35.28,176.37,35.28,176.37l-37.24,16.34s-123-265-194.65-304.81c-51.14-28.44-112-41.42-143.8-87.5-17.77-25.71-19.44-56-21.83-74.42-10.28-79.21,23.24-102.7,2.13-142.36-19.79-37.17-53.54-24.61-76.69-70.35-18.73-37-11.86-75.25-10.15-83.69,5.64-27.94,14.74-26.94,21.73-52.75,13.79-50.86-9.94-97.44-34.78-146.19-11.74-23-11.94-18.25-17.74-32.12-8.21-19.61-36-86,3.82-135.32C1175.15,919.05,1234.22,914.07,1245.26,913.31Z"/><path class="cls-4" d="M947.21,1564s100.54-93.37,252.17,96.76c0,0,47.65,46,162.58,63.25s286.55,468.19,274.92,514.78l-29,14.72s-22.31-49.23-56.47-52.38-90-40.9-97.41-136.15c-14.56-11.39-37.28-25.13-67.88-27.78-31.45-2.72-50.1,8.1-70.27,11.88-77.93,14.58-178.24-70.66-184.18-117.48-8.1-63.86-71-163.29-98.19-177.29S839,1614.09,947.21,1564Z"/><path class="cls-1" d="M1620.53,2059.22l-.85-1.22c-.88-1.25-88.13-126.79-96.63-213.58-9.59-97.94-37-231.93-164.65-400.12-69.09-91-98-190.33-110-257.62-13-72.6-9.73-125.12-9.7-125.65l.1-1.5,7.52.53-.1,1.49c0,.51-3.27,52.07,9.63,124,11.91,66.45,40.42,164.5,108.58,254.27,58.7,77.32,102.4,156.43,129.89,235.11,24.29,69.52,32.14,126.73,36.25,168.81,8.31,84.89,94.45,208.78,95.32,210l.87,1.24Zm-378.94-996.48c-.42,9-2,58,9.75,123.41,12,67,40.72,165.8,109.45,256.33,128.14,168.8,155.62,303.32,165.25,401.65,8,81.45,86.24,197.76,95.26,210.93l1.25-.85c-9.12-13.3-87-129.15-95-210.2-4.1-41.91-11.91-98.89-36.1-168.11-27.38-78.39-70.94-157.21-129.45-234.28-68.52-90.25-97.17-188.79-109.14-255.56-11.74-65.45-10.18-114.22-9.75-123.22Z"/><path class="cls-1" d="M1624.31,2251l-.55-1.38c-95.36-237.48-241-384.37-346.38-465.78-114.18-88.2-206.93-120.63-207.86-121l-1.42-.49,2.46-7.07,1.41.49c.93.32,94.82,33.17,209.86,122a1062.67,1062.67,0,0,1,183.27,181.44c67.53,85.26,123.26,182,165.65,287.61l.57,1.41Zm-552.4-590.44c12.14,4.44,100.44,38.36,207.3,120.91,105.48,81.48,251.16,228.37,346.78,465.66l1.41-.55c-42.21-104.77-97.61-200.8-164.65-285.45A1060.66,1060.66,0,0,0,1280,1780.14c-107-82.61-195.48-116.59-207.6-121Z"/><path class="cls-5" d="M1738.45,2402.83s-102.58-56.71-168.2-43.29-186.24-51.93-195.67-107.78-121-56.36-182.61-11.83-196,93.1-211.58,30.49-13.06-155-59.2-160-122.73-61.68-68.15-95,283.16-105,340.49-41.78,209.67,73.51,224.64,53.66,157.09-27.19,206.62,66.94,66.2,109.14,97,122.29S1844.08,2367,1738.45,2402.83Z"/><path class="cls-1" d="M1755,2397.5l-.82-1.24c-111.77-168.29-307-249.19-451-287.41-156.54-41.54-287.91-43.08-289.22-43.09l-1.49,0v-7.49l1.52,0c1.32,0,133.85,1.63,291,43.31,92.44,24.52,175.29,57.9,246.27,99.22,88.86,51.73,159.26,116.11,209.23,191.36l.84,1.26Zm-739.55-334.72c15,.29,140.55,3.91,288.48,43.17,144.21,38.26,339.5,119.18,451.93,287.42l1.25-.82c-49.66-74.32-119.43-138-207.4-189.16-70.75-41.18-153.35-74.46-245.53-98.91-147.73-39.19-273.6-42.88-288.73-43.19Z"/><polygon class="cls-6" points="1596.03 842.35 3002.06 466.1 3002.06 2129.08 1596.03 2589.84 1596.03 842.35"/><path class="cls-1" d="M1721,1134q.6,386.33,1.19,772.64c.09,58.57,60.94,100.27,120.77,82.75l574.6-168.27c38.77-11.36,65.15-44.92,65.15-82.88V981.42c0-57.62-59-99.27-118.31-83.56L1788.6,1050.33C1748.55,1060.93,1720.92,1095.12,1721,1134Z"/><polygon class="cls-7" points="1815.83 1670.99 1815.83 1192.44 1819.83 1192.44 1819.83 1665.66 2394.51 1498.93 2395.63 1502.77 1815.83 1670.99"/><polygon class="cls-7" points="1836.81 1220.12 1817.83 1195.69 1798.84 1220.12 1795.68 1217.66 1817.83 1189.18 1839.97 1217.66 1836.81 1220.12"/><polygon class="cls-7" points="2327.34 1242.61 2323.35 1242.4 2324.95 1211.5 2294.63 1217.56 2293.84 1213.63 2329.21 1206.57 2327.34 1242.61"/><polygon class="cls-7" points="2381.14 1529.17 2377.92 1526.81 2396.24 1501.88 2367.58 1490.25 2369.08 1486.54 2402.5 1500.1 2381.14 1529.17"/><path class="cls-8" d="M1903.58,1423.32v220.47l51.06-14.82V1412.14Z"/><path class="cls-8" d="M2010,1612.56q-.12-68.13-.26-136.26l40.14-11.53,1.62,135.75Z"/><path class="cls-8" d="M2103,1585.59q-.58-58-1.18-116l38.81-9.64.69,114.49Z"/><path class="cls-8" d="M2184.74,1561.87q-.66-86.5-1.33-173l38.42-9.31q-.14,85.83-.26,171.66Z"/><path class="cls-8" d="M2260.58,1539.75q-.66-54.88-1.33-109.78l38.49-8.54.94,107.38Z"/><polygon class="cls-7" points="1995.75 1397.29 1855.54 1326.81 1857.33 1323.24 1995.36 1392.62 2091.5 1322.12 2189.62 1364.38 2325.26 1207.73 2328.28 1210.35 2190.72 1369.21 2092.02 1326.7 1995.75 1397.29"/><path class="cls-9" d="M1965.44,1711v32.33l418.41-130.72v-27.79Z"/><path class="cls-9" d="M1965.44,1790.2v32.33l418.41-130.72V1664Z"/><path class="cls-10" d="M1805,2125.29v32.33l678.23-209.83q-.73-14.8-1.46-29.61Z"/><path class="cls-11" d="M2547.44,854.59l.39,1304.62L2942.56,2035q-.54-646.29-1.09-1292.59Z"/><polygon class="cls-10" points="2482.69 2037.9 2212.94 2126.88 2212.94 2151.84 2483.2 2057.8 2482.69 2037.9"/><path class="cls-10" d="M2482.69,2146v26.46L2027.87,2325v-30.58Z"/><polygon class="cls-12" points="1596.03 842.35 1596.03 1009.89 3002.06 610.13 3002.06 466.1 1596.03 842.35"/><ellipse class="cls-1" cx="1681.23" cy="912.2" rx="49.57" ry="49.6"/><path class="cls-2" d="M1817.83,836.51v52.22A24.2,24.2,0,0,0,1848.77,912l346.7-100.59a24.21,24.21,0,0,0,17.47-23.26V739.58a24.22,24.22,0,0,0-31-23.23c-115.57,33.84-231.13,62.67-346.7,96.92A24.23,24.23,0,0,0,1817.83,836.51Z"/><path class="cls-5" d="M3288.87,1027.82s-78.38-13.13-73.8,89.41c0,0,4.58,27.14-12.69,46.63s-189.43,13.55-101.11,168.3c0,0,40.34,15.76,16.61,73s-129.73,61-85.49,188.68c0,0,25.62,26.71,15.1,64.62s-51.74,70.1-35.32,102.44-26.3,131.52-26.3,131.52l27.76,12.18s91.75-197.59,145.16-227.29c38.13-21.21,83.49-30.89,107.23-65.25,13.25-19.18,14.5-41.78,16.28-55.5,7.66-59.06-17.34-76.58-1.59-106.16,14.76-27.72,39.92-18.35,57.19-52.46,14-27.59,8.84-56.11,7.57-62.41-4.21-20.83-11-20.08-16.21-39.33-10.28-37.93,7.42-72.66,25.94-109,8.75-17.19,8.9-13.61,13.23-24,6.12-14.62,26.84-64.13-2.85-100.91C3341.16,1032.09,3297.11,1028.38,3288.87,1027.82Z"/><path class="cls-3" d="M3495.93,1522.82s-75-69.63-188,72.15c0,0-35.54,34.34-121.24,47.17S2973,1991.27,2981.64,2026l21.65,11s16.64-36.71,42.12-39.07,67.08-30.49,72.63-101.52c10.86-8.5,27.8-18.74,50.62-20.71,23.45-2,37.36,6,52.4,8.85,58.11,10.88,132.91-52.69,137.34-87.61,6-47.61,53-121.76,73.22-132.2S3576.65,1560.17,3495.93,1522.82Z"/><path class="cls-13" d="M2998.31,1901.41l-6.91-4.71,1.45-2.07c.17-.23,16.54-23.8,33.4-54.84,22-40.46,34.92-75.42,37.44-101.12,3.08-31.45,8.94-74.22,27.1-126.2,20.55-58.81,53.21-117.93,97.07-175.7,50.65-66.73,71.85-139.62,80.71-189,9.57-53.37,7.18-91.74,7.16-92.12l-.17-2.48,8.37-.59.16,2.5c0,.39,2.47,39.77-7.25,94-9,50.33-30.61,124.62-82.3,192.7-95,125.15-115.38,224.82-122.51,297.67-6.38,65.16-71.64,159-72.3,159.93Z"/><path class="cls-13" d="M2991.79,2036.86l-7.81-3,.94-2.35c31.67-78.85,73.29-151.13,123.73-214.81a794.22,794.22,0,0,1,136.9-135.54c85.95-66.37,156.19-91,156.89-91.19l2.36-.81,2.74,7.88-2.37.82c-.69.23-69.73,24.42-154.61,90-78.45,60.6-186.86,170-257.85,346.76Z"/><path class="cls-4" d="M2780.91,2111.33s83.68-25.24,129.41-5.16,143.91-8.63,159.54-47.87,97.07-22.09,135,20,128.26,98.62,149.47,55.44,33.82-111,68.25-107.37,99.13-25.71,64.56-58.54-190-121-241.67-83.9-164.38,20.68-172.18,3.86-110.26-44.48-161.12,16.37-65.37,69.18-89.92,73.93S2709.53,2068.61,2780.91,2111.33Z"/><path class="cls-13" d="M2769.69,2106.79l-5.9-5.91,1.81-1.77c48.38-47.16,110-83.16,183.07-107,58.34-19,124.1-30.37,195.45-33.75,121.32-5.73,218.31,13.92,219.28,14.12l2.47.51-1.77,8.16-2.42-.5c-1-.2-96.83-19.65-217.26-14-110.78,5.25-265.4,33.51-373,138.35Z"/><g class="cls-14"><path class="cls-15" d="M2051.78,1598.58s29.49,19.61,55.86,19.75c0,0,120.36,175.92,182.68,212.13s180.88,56.72,180.88,56.72,37,145.41,62.2,177.89,8.11,211.63,8.11,211.63l337-111.15S2738.43,1938,2751.92,1887.18s0-287,0-287l-161.27,114.4L2387,1721.78c-44.69-16-107.94-44.26-171-96.26-70.29-57.94-107.77-118.44-137.09-107.84C2066.89,1522,2053.71,1539.05,2051.78,1598.58Z"/></g><path class="cls-16" d="M1432.21,2263.49v457.24c0,45.1,44.21,76.92,87,62.61L1933.6,2644.6a66,66,0,0,0,45.06-62.6V2133.09c0-44.6-43.3-76.36-85.83-63l-414.42,130.41A66,66,0,0,0,1432.21,2263.49Z"/><ellipse class="cls-1" cx="1549.77" cy="2315.73" rx="53.61" ry="53.64"/><ellipse class="cls-1" cx="1549.77" cy="2490.97" rx="53.61" ry="53.64"/><ellipse class="cls-1" cx="1549.77" cy="2660.54" rx="53.61" ry="53.64"/><path class="cls-5" d="M1637.16,2255.44v74.7a23.25,23.25,0,0,0,30.83,22l245.44-84.64a23.25,23.25,0,0,0,15.68-22v-70.37a23.26,23.26,0,0,0-30.48-22.12l-245.45,80.32A23.27,23.27,0,0,0,1637.16,2255.44Z"/><path class="cls-5" d="M1637.16,2427v84.36a18.72,18.72,0,0,0,24.81,17.71l254.52-87.78a18.72,18.72,0,0,0,12.62-17.7v-79.87a18.71,18.71,0,0,0-24.53-17.8l-254.52,83.29A18.72,18.72,0,0,0,1637.16,2427Z"/><path class="cls-5" d="M1637.16,2591.69v76.71a22.31,22.31,0,0,0,29.57,21.1l247.34-85.29a22.33,22.33,0,0,0,15-21.1v-72.36a22.31,22.31,0,0,0-29.24-21.21l-247.34,80.94A22.3,22.3,0,0,0,1637.16,2591.69Z"/><path class="cls-17" d="M2625.76,1485.22A734.33,734.33,0,0,1,2428.12,1345c-1.82-5.87-4.55-14.7-7.79-25.5-5-16.8-5.31-18.32-6.38-21.27-6.09-16.82-18.77-27-31.24-36.79-13.82-10.83-43.07-33.76-57.08-24.45-8.72,5.8-8,21.75-7.67,29.38.22,4.89,1.16,12.22,12.48,38.21,4.57,10.48,8.64,19,11.48,24.74-1.83-.56-22.42-6.79-31.07-7.65a2.6,2.6,0,0,0-1.51.33c-4.55,2.7,1.63,21.21,17.55,27,17.38,6.31,65.46,33,65.46,33s170.22,176.93,204.56,196.07,80,27.76,80,27.76Z"/><path class="cls-17" d="M2649.15,2605c1.25,7.08,5.38,22.21,13.52,52.51,6.89,25.64,12.89,46.63,17,60.73q33.93-12.45,69-26.39,42.11-16.74,81.54-33.92,15.32-78.24,30.64-156.48c-52.83-51.34-125.3-60.92-168.21-30.71C2648.75,2501.62,2642.85,2569.24,2649.15,2605Z"/><path class="cls-18" d="M2654.14,2619.64a613.85,613.85,0,0,1,199.33-88.47q6.54-30.2,13.09-60.38l-187.27-38.21c-8.06,28-14.77,53.92-20.38,77.52-10,42.07-13.82,65.36-8.58,93.65A153.86,153.86,0,0,0,2654.14,2619.64Z"/><path class="cls-17" d="M3051.55,2464.39q1.95,41.49,3.91,83l-151.62,77.27q-14.33-64.2-28.66-128.42S2928.22,2352.93,3051.55,2464.39Z"/><path class="cls-18" d="M2883,2523.45a197.41,197.41,0,0,1,55.93-32.09c48.48-18,91.68-12,112-7.71q-.6-14.47-1.19-28.94l-160-47.85-14.52,74.95v8.82Q2879.08,2507,2883,2523.45Z"/><path class="cls-17" d="M2680.72,1579.92q-45.34,14.67-90.53,29.74-110.62,36.91-220.45,76.3l-204.91-159.83c-54.45-26.46-88.14-36.05-106.12-40-14.7-3.24-16.76-2.26-17-1.46-1.15,3.49,41.83,20.32,44.49,26.36,0,0-14.74,12-15.13,18.19s-1.1,17.69-1.36,21.87,1.67,5.38,3.94,17.13c.33,1.67,3.94,16,14.61,22.45,12.82,7.72,28.82-.26,30.15-1-2.66-1.69-5.18-3.21-7.52-4.59-2.56-1.5-3.87-2.26-5.17-2.87-3.21-1.52-4.5-1.63-8.24-3.18-2.08-.86-3.86-1.73-5.34-2.51,2.62,1.32,5.45,2.62,8.52,3.84a101.69,101.69,0,0,0,23.63,6.19l30.91,1.16c14.88,23.09,28.42,41.38,38.31,54.14,0,0,61.77,79.67,130.46,123.53a115.94,115.94,0,0,0,11.65,6.54,121.92,121.92,0,0,0,41,11.14c78.47,7.71,216.07-24.65,216.07-24.65,11.38-2.67,13.57-3.3,16.1-4.13,42-13.72,96-54.74,96.41-109.62C2705.43,1613.85,2689.28,1590.5,2680.72,1579.92Z"/><path class="cls-19" d="M2538,1434.94c-4.17,13.28-12.35,46,1.47,81.3a112.2,112.2,0,0,0,15.11,26.85,178.06,178.06,0,0,0,17.18,17.52,213.59,213.59,0,0,0,26.86,19.67c17.75,10.88,59.51,28.77,116.67,45.19L2603,1473Z"/><path class="cls-16" d="M2625.14,2094.71s-58.23,151.12,20.57,512.36c0,0,252.18-156.63,405.84-142.68-.84-11.63-2.18-29-4.16-50.13-13.41-143.08-20.11-214.62-47.25-260.08-45.26-75.82-137.07-128.89-137.08-128.89h0S2623.25,1998.76,2625.14,2094.71Z"/><path class="cls-20" d="M2638.53,2062.94s72.63,38.87,128.82,9.17,164.36,31.54,185.21,22.76c0,0-42.36-40.5-66.38-51.09S2675.52,1983.58,2638.53,2062.94Z"/><path class="cls-8" d="M2551.25,1758.71s-16.3,58.17,25.67,120.54c0,0,11.48,55,27.39,80.48s24.48,61.28,18.43,71.77,1.42,36.76,60,40.39,72.17-41.69,96.18-37.49,95.84,19.53,107.25,9.38-6.55-41.16-21-53.26-1.39-108.06,10.88-143c36.73-104.42-42.3-252.3-126.41-276.44-38.28-11-87,1-116.7,27.33-15.33,13.57-25.15,33.35-44.16,72.36C2571.5,1706.38,2559.3,1736.94,2551.25,1758.71Z"/><path class="cls-17" d="M2625.53,1553.18l21.62,75.48s56.61,12.69,74.84-20.22l-26-94.09S2623.79,1465.67,2625.53,1553.18Z"/><path class="cls-18" d="M2695.8,1516.11s-26.19,57-64.69,59l-5.79-20.21S2657.28,1462.44,2695.8,1516.11Z"/><path class="cls-17" d="M2604.12,1397s-22.39,28.8-26.16,54a123.23,123.23,0,0,1-30.52,21.8,28.07,28.07,0,0,0,5.08,8.1,28.78,28.78,0,0,0,12.06,7.93s-9.77,70.56,10.2,72.78,69-5.53,109.35-46.71c0,0,48.93,2.06,48.88-28.87s-33.6-19.76-33.6-19.76S2699.15,1375.42,2604.12,1397Z"/><path class="cls-18" d="M2599.33,1403.68s9.14,93.65,105.87,61.21l-48.68-86.1S2613.34,1379.26,2599.33,1403.68Z"/><path class="cls-18" d="M2442.68,1660.11s17.86,77.92,0,122.43l44.93-5.09-5.51-132.27Z"/><path class="cls-21" d="M2547.72,1781.52a131.14,131.14,0,0,0,0,14.67c.56,9.87.84,14.8,2.52,16.81,6.45,7.69,37.45-4.3,60.75-20.12,17-11.5,46-36,66.77-86.17Z"/><path class="cls-20" d="M2967.89,2247.16s-97.43,123.53-174.48,132l-40.19,78.5S2930.11,2381.76,2967.89,2247.16Z"/><path class="cls-8" d="M2655.43,1588.32a188.64,188.64,0,0,0-27.9,1.43c-35.87,4.52-60,18.14-76.55,26.08-21,10.07-52.56,21.82-96.75,27.3a299,299,0,0,1,1.29,151.36s139.28-16.65,168.19-30c58-26.74,85.8-120.4,56.42-158.87C2672.86,1596.13,2663,1591.12,2655.43,1588.32Z"/><path class="cls-21" d="M2825.18,1937.9S2739,2017,2681.32,2013.56s-16.61-23.77-16.61-23.77S2748.6,1986.16,2825.18,1937.9Z"/><path class="cls-22" d="M2599.33,1355.48c-.17,55.59,25.22,100.11,61.15,111,7.65,2.33,20.87,4.67,38.93-.27,0,0,27.23-11,33.22,14.48s-24.74,33.1-36.62,33.63c0,0-62.36,142.19,36.45,138.75,0,0-33,176.86,73.24,171.68,0,0,62.91,124.65,146.26,62.09,0,0,156.1,39.87,184.5-62.18,0,0,118.18-36.84,38.07-151.15,0,0-28.74-34.91-76.23-34.55,0,0,77.33-54.43-150.25-140-34.29-21.24-50-44.32-58-62.14-12.54-28.08-9.27-50.81-30.64-75.53-11.64-13.48-24-19.93-35.19-25.75-47.24-24.6-104.68-23.84-143.76-7.45-6.33,2.66-12.95,6.05-26.69,11.24A386.5,386.5,0,0,1,2599.33,1355.48Z"/><path class="cls-23" d="M2973.63,1872.33c-89.6,37.25-177-112.21-149.48-162s-27.52-69.24-90.13-83.57-31.53-107.08-31.53-107.08c-4,0-7.76.1-11.17.31-7.14,17.32-54.54,139.93,37.31,136.74,0,0-33,176.86,73.24,171.67,0,0,62.91,124.66,146.26,62.09,0,0,105.36,26.91,158.71-20.1C2983.14,1923.25,3063.21,1835.09,2973.63,1872.33Z"/><path class="cls-21" d="M2728.07,2063c-58.07,17.12-98.87-25.39-90.82-36.67s-3.6-60.6-14.27-86.3,2-32.27,2-32.27c-35.41-6.61-48-28.55-48-28.55s11.48,55,27.4,80.48,24.47,61.28,18.43,71.77,1.42,36.76,60,40.4C2702.12,2073.1,2716.55,2069,2728.07,2063Z"/><path class="cls-18" d="M2705.2,1477.81l-9.19,23c8.86.29,16.45-3,19.27-8.89.48-1,2.53-5.28.46-9.21C2714,1479.41,2709.84,1477.47,2705.2,1477.81Z"/><ellipse class="cls-1" cx="2696.01" cy="1516.05" rx="10.32" ry="10.33"/><path class="cls-23" d="M2627.18,1368.11s-5.33,91.52,72.23,98.13c0,0-14.47-.92-29.1-12.31-19.54-15.21-29.68-51.87-30.08-75.14-.06-3.38,0-13.1-4.27-14.7C2633.27,1363.09,2629.78,1365.67,2627.18,1368.11Z"/><path class="cls-24" d="M2578,1451q-4.58,13.56-9.57,27.39-1.89,5.25-3.81,10.44a23.56,23.56,0,0,1-8.08-3.58,24.43,24.43,0,0,1-9.06-12.45c4.09-2.43,8.33-5.13,12.67-8.12A223.41,223.41,0,0,0,2578,1451Z"/><path class="cls-7" d="M2578.67,1525c-7.51,0-9.72-2.88-10.08-3.44l1.26-.81,1.23-.85c.06.07,5.91,7.28,35.59-5.51l1.18,2.75C2593.74,1523.26,2584.57,1525,2578.67,1525Z"/><ellipse class="cls-22" cx="2605.2" cy="1451.11" rx="9.43" ry="5.27" transform="translate(500.81 3564) rotate(-74.23)"/><ellipse class="cls-12" cx="2613.29" cy="1483.86" rx="24.73" ry="24.75"/><path class="cls-25" d="M2660.52,2069a698.9,698.9,0,0,0-18.92,115.39c-13.09,166.05,36.33,301.65,75.18,382.57l-71.07,40.09c-16.62-78-26.64-145.14-33-197-15.75-129.33-11-184.77-8.38-208.63a658.47,658.47,0,0,1,20.77-106.71,47.4,47.4,0,0,1,2.11-15.81,49.15,49.15,0,0,1,7.91-15,13.34,13.34,0,0,1,2.88-3.14C2645,2056.43,2658.31,2067.21,2660.52,2069Z"/><path class="cls-25" d="M3032.07,2268.77s-16.92,168-89.51,207c0,0,69.44-16,109-11.34Z"/><path class="cls-1" d="M2701.88,2561.12c-.79-3.93-1.61-7.87-2.45-11.71l2.94-.64c.83,3.86,1.66,7.81,2.45,11.76Zm-5.08-23.39c-.91-3.88-1.86-7.79-2.82-11.63l2.91-.73c1,3.85,1.92,7.78,2.83,11.68Zm-5.84-23.21c-1-3.79-2.11-7.67-3.22-11.53l2.89-.83c1.11,3.88,2.2,7.77,3.22,11.58Zm-6.61-23c-1.13-3.72-2.29-7.46-3.56-11.44l2.86-.91c1.27,4,2.44,7.74,3.57,11.47Zm-7.24-22.83c-1.27-3.85-2.52-7.63-3.77-11.38l2.84-.95q1.88,5.63,3.78,11.39Zm-7.58-22.76c-1.26-3.8-2.52-7.58-3.76-11.38l2.85-.94c1.24,3.8,2.49,7.58,3.76,11.38Zm-7.43-22.82c-1.26-4-2.41-7.79-3.51-11.5l2.88-.85c1.09,3.7,2.23,7.44,3.49,11.45Zm-6.81-23.06c-1.06-3.89-2.09-7.8-3.05-11.63l2.91-.73c.95,3.81,2,7.7,3,11.57Zm-5.84-23.34c-.88-3.93-1.73-7.89-2.51-11.77l2.95-.59c.77,3.86,1.61,7.79,2.49,11.7Zm-4.74-23.59c-.68-3.91-1.34-7.91-1.94-11.88l3-.45c.6,3.95,1.25,7.92,1.94,11.8Zm-3.62-23.8c-.5-3.87-1-7.78-1.43-11.94l3-.33c.46,4.15.93,8,1.42,11.89Zm-2.66-23.89-.32-3.24c-.28-2.91-.55-5.85-.78-8.74l3-.24c.23,2.87.49,5.79.78,8.69l.31,3.23Zm-1.95-24c-.23-4-.43-8-.58-12l3-.11c.15,3.95.34,8,.58,11.95Zm-.9-24c0-3-.07-5.94-.07-8.88,0-1,0-2.09,0-3.15l3,0c0,1.05,0,2.09,0,3.13,0,2.92,0,5.9.07,8.84Zm3.13-24-3-.08c.11-4,.26-8.05.45-12l3,.14C2639,2225.41,2638.82,2229.43,2638.71,2233.42Zm1.14-23.91-3-.2c.26-3.95.58-8,.94-12l3,.27C2640.43,2201.57,2640.12,2205.58,2639.85,2209.51Zm2.11-23.84-3-.33c.44-4,.91-8,1.42-11.94l3,.38C2642.86,2177.71,2642.39,2181.71,2642,2185.67Zm3.05-23.75-3-.44c.58-3.91,1.21-7.91,1.88-11.88l3,.5C2646.21,2154.05,2645.58,2158,2645,2161.92Zm4-23.61-2.95-.55c.73-3.91,1.51-7.88,2.32-11.8l2.94.6C2650.47,2130.47,2649.7,2134.42,2649,2138.31Zm4.84-23.45-2.93-.66c.87-3.87,1.8-7.8,2.75-11.71l2.91.71C2655.59,2107.09,2654.67,2111,2653.81,2114.86Zm5.68-23.26-2.9-.76c1-3.84,2.07-7.74,3.16-11.61l2.88.82C2661.55,2083.89,2660.49,2087.78,2659.49,2091.6Z"/><g class="cls-14"><path class="cls-15" d="M2999.79,590.82,2898.59,621l101.2-143.95V469l-420.05,112.4C2565.81,692,2604.44,806.62,2692,882.09c88.62,76.37,205.49,93.79,307.76,56.91Z"/></g><path class="cls-9" d="M3169.27,281.56l-191.89,273,309.37-92.94A326.94,326.94,0,0,0,3258,385.62,316.5,316.5,0,0,0,3169.27,281.56Z"/><path class="cls-10" d="M2920,596.57l191.88-272.94C2976.17,219.9,2783.52,245,2673.47,384.12c-114.08,144.17-96.19,356.16,40,473.49s339,95.58,453.1-48.59c70.16-88.68,90.38-203,63.89-305.18Z"/><path class="cls-26" d="M2920,596.57l-67.94,333.67c21.23,3.73,148.48,23.82,261.22-67.48,19.66-15.92,100.65-85.24,122.62-207.34a350.09,350.09,0,0,0-6.53-151.79Z"/><path class="cls-27" d="M2920,596.57l-302.17-111c10.94-30.6,42.19-105.19,117.83-161.72,15.81-11.81,109.58-79.56,235.55-60.33,67.89,10.37,116.2,41.59,140.68,60.1Z"/><g class="cls-14"><path class="cls-15" d="M3002.29,1073.31l-71.63,16.9A48.91,48.91,0,0,0,2893,1138.4l3.09,256.29a48.86,48.86,0,0,0,62.24,46.43l43.93-12.55Z"/></g><path class="cls-1" d="M2911.74,1108.32l3.09,256.28a48.86,48.86,0,0,0,62.24,46.44l424-121.17a48.91,48.91,0,0,0,35.43-47.48L3434.35,1007a48.85,48.85,0,0,0-60-47.14l-424.94,100.27A48.88,48.88,0,0,0,2911.74,1108.32Z"/><path class="cls-28" d="M2979.5,1347.81q-1-38.38-1.1-78-.08-18.6.07-36.94c0-.68,0-1.82.14-3.21a65.57,65.57,0,0,1,1.68-10.49c2.62-9.82,24.69-21.08,36.3-24.39a57.61,57.61,0,0,1,14.13-2.06c1.71,0,3.05.09,3.89.15,19.85,1.47,24.55,14.44,45.47,18.46,2.43.46,12.12,3.08,22.14.27,23.94-6.71,23.15-36.19,53.15-68.64,10.79-11.69,18.2-19.7,30.59-24.77,34.95-14.3,61.84,10.88,90.45,8.17,24.47-2.31,57.08-26.16,90.41-124.62q.66,120.95,1.31,241.89Z"/><g class="cls-29"><path class="cls-30" d="M3366.82,1137.48c-43.48,5.24-71.62,19.94-89.55,32.86-26.67,19.21-32.12,34.48-55.85,40.8-32.34,8.62-48.2-18.11-73.15-9.58-33.11,11.32-27.55,66.11-56.29,73.82-23,6.17-34.73-26.05-61.69-20.83s-45.84,42.55-50,71.37a96.35,96.35,0,0,0-.46,23.65l388.3-105.9Q3367.47,1190.57,3366.82,1137.48Z"/></g><rect class="cls-10" x="2972.34" y="1293.3" width="403.6" height="3.52" transform="translate(-228.91 880.82) rotate(-15.26)"/><rect class="cls-10" x="3366.82" y="1001.78" width="2.62" height="242.15"/><rect class="cls-10" x="3305.62" y="1016.01" width="2.62" height="242.15"/><rect class="cls-10" x="3236.25" y="1033.46" width="2.62" height="242.15"/><rect class="cls-10" x="3155.21" y="1057.22" width="2.62" height="242.15"/><rect class="cls-10" x="3069.99" y="1081.79" width="2.62" height="242.15"/><rect class="cls-10" x="2977.46" y="1107.7" width="2.62" height="242.15"/><rect class="cls-10" x="2987.7" y="1364.87" width="33.41" height="6.48" transform="translate(-254.11 838.74) rotate(-15.26)"/><rect class="cls-10" x="3054.6" y="1346.62" width="33.41" height="6.48" transform="translate(-246.95 855.7) rotate(-15.26)"/><rect class="cls-10" x="3121.5" y="1328.38" width="33.41" height="6.48" transform="translate(-239.8 872.66) rotate(-15.26)"/><rect class="cls-10" x="3191.94" y="1309.17" width="33.41" height="6.48" transform="matrix(0.96, -0.26, 0.26, 0.96, -232.26, 890.52)"/><rect class="cls-10" x="3258.84" y="1290.92" width="33.41" height="6.48" transform="translate(-225.1 907.47) rotate(-15.26)"/><rect class="cls-10" x="3327.84" y="1272.1" width="33.41" height="6.48" transform="translate(-217.72 924.97) rotate(-15.26)"/></g></svg>