<svg xmlns="http://www.w3.org/2000/svg" xmlns:xlink="http://www.w3.org/1999/xlink" viewBox="0 0 4680 3120"><defs><style>.cls-1,.cls-40,.cls-41,.cls-42{fill:none;}.cls-2,.cls-36{fill:#fff;}.cls-3{fill:#ffe3c2;}.cls-4{fill:#ffc68d;}.cls-5{clip-path:url(#clip-path);}.cls-6{fill:#003347;}.cls-7{fill:#338d99;}.cls-8{fill:#78c1d0;}.cls-9{fill:#fff4e9;}.cls-10{fill:#2d9d9f;}.cls-11{fill:#168e8e;}.cls-12{fill:#fff6eb;}.cls-13{fill:#f17c5b;}.cls-14{fill:#d04719;}.cls-15{fill:#ffbd58;}.cls-16{fill:#db3737;}.cls-17{fill:#5e1212;}.cls-18{fill:#e07553;}.cls-19{fill:#ffb957;}.cls-20{opacity:0.18;}.cls-21{fill:#ca5303;}.cls-22{fill:#b72700;}.cls-23{fill:#9b2100;}.cls-24{fill:#eb815a;}.cls-25{opacity:0.68;}.cls-26{opacity:0.23;}.cls-27{opacity:0.45;}.cls-28{fill:#e06e4b;}.cls-29{fill:#d8684e;}.cls-30{fill:#e57553;}.cls-31{opacity:0.51;}.cls-32{opacity:0.5;}.cls-33{opacity:0.29;}.cls-34{fill:#218787;}.cls-35{fill:#0e7777;}.cls-36,.cls-43{opacity:0.87;}.cls-37{fill:#ce1b1b;}.cls-38{fill:#55c9b2;}.cls-39{fill:#13a497;}.cls-40,.cls-41,.cls-42{stroke:#fff;stroke-linecap:round;stroke-miterlimit:10;}.cls-40{stroke-width:1.39px;}.cls-41{stroke-width:1.3px;}.cls-42{stroke-width:0.85px;}</style><clipPath id="clip-path"><path class="cls-1" d="M1387.84,2239.64S994.14,2178.17,922,1819s96.17-641.72,429.76-789,393.7-189.34,580-339.61,952.69-519.92,1442.57,0,474.84,1325.36-66.12,1622.89-1039.85,249.2-1202.14,162.17S1387.84,2239.64,1387.84,2239.64Z"/></clipPath></defs><title>10</title><g id="_10" data-name="10"><rect id="_10-2" data-name="10" class="cls-2" width="4680" height="3120"/><path class="cls-3" d="M3308.25,2313.27c-413.89,227.64-803.16,252.82-1035.88,213.09-26.42-4.49-50.82-9.84-73-15.82-37.82-10.19-69.22-22.23-93.24-35.11-162.3-87-718.29-235.79-718.29-235.79s-301.76-47.11-425.31-299.9A496.18,496.18,0,0,1,922,1819q-3.78-18.86-6.69-37.43c-11.12-70.93-12.66-138.71-5.25-202.84,28.25-244.51,186.67-436.13,441.7-548.71,333.6-147.27,393.71-189.34,580-339.61,51.25-41.33,146.37-99.25,267.55-150.7,319.41-135.61,819.88-226.22,1175,150.7C3864.24,1210.3,3849.22,2015.73,3308.25,2313.27Z"/><path class="cls-4" d="M2199.36,539.67V2510.54c-37.82-10.19-69.22-22.23-93.24-35.11-162.3-87-718.29-235.79-718.29-235.79s-301.76-47.11-425.31-299.9A496.18,496.18,0,0,1,922,1819q-3.78-18.86-6.69-37.43c-11.12-70.93-12.66-138.71-5.25-202.84,28.25-244.51,186.67-436.13,441.7-548.71,333.6-147.27,393.71-189.34,580-339.61C1983.06,649,2078.18,591.12,2199.36,539.67Z"/><g class="cls-5"><path class="cls-6" d="M2137.43,1892.3v705S1133.06,2501.79,1012,2300.47s-218.11-292.78-92.87-315.3S2137.43,1892.3,2137.43,1892.3Z"/><polygon class="cls-7" points="2176.73 1895.02 959.5 2175.18 959.5 2141.21 2176.73 1861.05 2176.73 1895.02"/><polygon class="cls-8" points="2176.73 1861.05 959.51 2141.21 816.9 1936.62 732.32 1815.25 1157.2 1736.96 1417 1689.09 2176.73 1861.05"/><path class="cls-9" d="M2002.52,520.43V1497l-1188,231.07s-1.12-17.64-1.76-47.64c-2.5-117.35,2.24-423.83,109.22-603.53,113.87-191.26,811.2-458.16,1020.92-535C1980.58,528.1,2002.52,520.43,2002.52,520.43Z"/><path class="cls-4" d="M1960.76,535.39v922.14l-1148,222.91q-.18-9-.32-19.36c-1.43-128.87,8-413.63,109.54-584.17,111-186.35,792.75-450.69,1021.65-535.21Z"/><path class="cls-9" d="M1943.64,541.7v899.74L812.45,1661.08c-1.43-128.87,8-413.63,109.54-584.17C1032.94,890.56,1714.74,626.22,1943.64,541.7Z"/><rect class="cls-10" x="2683.53" y="582.26" width="894.64" height="1968.51"/><rect class="cls-4" x="2728.61" y="633.39" width="804.48" height="1770.13"/><rect class="cls-3" x="2764.99" y="681.45" width="768.1" height="1722.07"/><rect class="cls-4" x="2728.61" y="938.39" width="804.48" height="51.13"/><rect class="cls-4" x="2728.61" y="1307.54" width="804.48" height="51.13"/><rect class="cls-4" x="2728.61" y="1699.36" width="804.48" height="51.13"/><rect class="cls-4" x="2728.61" y="2091.41" width="804.48" height="51.13"/><rect class="cls-11" x="2728.61" y="900.79" width="804.48" height="51.13"/><rect class="cls-11" x="2728.61" y="1269.94" width="804.48" height="51.13"/><rect class="cls-11" x="2728.61" y="1661.76" width="804.48" height="51.13"/><rect class="cls-11" x="2728.61" y="2053.81" width="804.48" height="51.13"/><rect class="cls-2" x="2736.35" y="661.23" width="61.55" height="239.56"/><rect class="cls-12" x="2728.33" y="661.23" width="61.55" height="239.56"/><rect class="cls-2" x="2803.46" y="715.16" width="42.66" height="185.63"/><rect class="cls-13" x="2797.9" y="715.16" width="42.66" height="185.63"/><rect class="cls-2" x="2854.69" y="683.08" width="65.79" height="217.71"/><rect class="cls-14" x="2846.12" y="683.08" width="65.79" height="217.71"/><rect class="cls-2" x="2929.06" y="729.74" width="65.79" height="171.05"/><rect class="cls-15" x="2920.49" y="729.74" width="65.79" height="171.05"/><rect class="cls-2" x="2994.3" y="639.68" width="29.11" height="261.11"/><rect class="cls-16" x="2990.51" y="639.68" width="29.11" height="261.11"/><rect class="cls-2" x="3031.73" y="661.23" width="61.55" height="239.56"/><rect class="cls-12" x="3023.71" y="661.23" width="61.55" height="239.56"/><rect class="cls-2" x="3098.84" y="715.16" width="42.66" height="185.63"/><rect class="cls-13" x="3093.28" y="715.16" width="42.66" height="185.63"/><rect class="cls-2" x="3150.07" y="683.08" width="65.79" height="217.71"/><rect class="cls-14" x="3141.5" y="683.08" width="65.79" height="217.71"/><rect class="cls-2" x="3224.44" y="729.74" width="65.79" height="171.05"/><rect class="cls-15" x="3215.87" y="729.74" width="65.79" height="171.05"/><rect class="cls-2" x="3294.84" y="639.12" width="29.11" height="261.11" transform="translate(-77.32 496.46) rotate(-8.48)"/><rect class="cls-16" x="3291.09" y="639.68" width="29.11" height="261.11" transform="translate(-77.45 495.92) rotate(-8.48)"/><rect class="cls-2" x="2736.65" y="1030.42" width="61.55" height="239.56"/><rect class="cls-12" x="2728.63" y="1030.42" width="61.55" height="239.56"/><rect class="cls-2" x="2803.76" y="1084.35" width="42.66" height="185.63"/><rect class="cls-13" x="2798.2" y="1084.35" width="42.66" height="185.63"/><rect class="cls-2" x="2854.99" y="1052.27" width="65.79" height="217.71"/><rect class="cls-14" x="2846.42" y="1052.27" width="65.79" height="217.71"/><rect class="cls-2" x="2929.36" y="1098.93" width="65.79" height="171.05"/><rect class="cls-15" x="2920.78" y="1098.93" width="65.79" height="171.05"/><rect class="cls-2" x="2994.6" y="1008.87" width="29.11" height="261.11"/><rect class="cls-16" x="2990.8" y="1008.87" width="29.11" height="261.11"/><rect class="cls-2" x="3032.03" y="1030.42" width="61.55" height="239.56"/><rect class="cls-12" x="3024.01" y="1030.42" width="61.55" height="239.56"/><rect class="cls-2" x="3099.14" y="1084.35" width="42.66" height="185.63"/><rect class="cls-13" x="3093.58" y="1084.35" width="42.66" height="185.63"/><rect class="cls-2" x="3150.37" y="1052.27" width="65.79" height="217.71"/><rect class="cls-14" x="3141.8" y="1052.27" width="65.79" height="217.71"/><rect class="cls-2" x="3224.74" y="1098.93" width="65.79" height="171.05"/><rect class="cls-15" x="3216.16" y="1098.93" width="65.79" height="171.05"/><rect class="cls-2" x="3295.13" y="1008.31" width="29.11" height="261.11" transform="translate(-131.77 500.54) rotate(-8.48)"/><rect class="cls-16" x="3291.38" y="1008.87" width="29.11" height="261.11" transform="translate(-131.89 500) rotate(-8.48)"/><rect class="cls-2" x="3199.08" y="1392.26" width="68.15" height="265.25" transform="translate(412.51 -671.14) rotate(12.65)"/><rect class="cls-12" x="3190.41" y="1390.32" width="68.15" height="265.25" transform="translate(411.87 -669.29) rotate(12.65)"/><rect class="cls-2" x="3293.97" y="1456.22" width="47.23" height="205.54"/><rect class="cls-13" x="3287.81" y="1456.22" width="47.23" height="205.54"/><rect class="cls-2" x="3350.69" y="1420.7" width="72.85" height="241.06"/><rect class="cls-4" x="3341.2" y="1420.7" width="72.85" height="241.06"/><rect class="cls-2" x="3433.03" y="1472.37" width="72.85" height="189.39"/><rect class="cls-15" x="3423.54" y="1472.37" width="72.85" height="189.39"/><rect class="cls-2" x="3505.27" y="1372.65" width="32.23" height="289.11"/><rect class="cls-13" x="3501.07" y="1372.65" width="32.23" height="289.11"/><rect class="cls-2" x="3216.17" y="1786.05" width="68.15" height="265.25"/><rect class="cls-12" x="3207.29" y="1786.05" width="68.15" height="265.25"/><rect class="cls-2" x="3290.48" y="1845.76" width="47.23" height="205.54"/><rect class="cls-13" x="3284.33" y="1845.76" width="47.23" height="205.54"/><rect class="cls-2" x="3347.21" y="1810.24" width="72.85" height="241.06"/><rect class="cls-4" x="3337.71" y="1810.24" width="72.85" height="241.06"/><rect class="cls-2" x="3429.55" y="1861.91" width="72.85" height="189.39"/><rect class="cls-15" x="3420.06" y="1861.91" width="72.85" height="189.39"/><rect class="cls-2" x="3501.78" y="1762.19" width="32.23" height="289.11"/><rect class="cls-13" x="3497.59" y="1762.19" width="32.23" height="289.11"/></g><path class="cls-17" d="M2824.67,1855.34c-.47,12.58-4,26.93-11.34,43.49-43.48,97.52-202.4,71.8-203.95-17-1-56.51,20.15-130.22,44.52-174.31,13.9-25.16,28.86-40.66,41.37-37.82,2.84.65-20.83,38.15,24.42,74.62C2757.25,1774.63,2826.94,1793.89,2824.67,1855.34Z"/><path d="M2824.67,1855.34c-.47,12.58-4,26.93-11.34,43.49-43.48,97.52-202.4,71.8-203.95-17-1-56.51,20.15-130.22,44.52-174.31a203.66,203.66,0,0,1,24.82,1.73s1.55,82.92,31.32,111.51C2732,1841.86,2793.7,1851.66,2824.67,1855.34Z"/><path class="cls-18" d="M2562.12,1924.77c-38.68-6.22-52.29-45.2-55-86.35a282.69,282.69,0,0,1-.06-33.94c2.84-51.07,145.84-107.81,164.57-87.39.45.48-2.16,15.29-4.06,35.18-3,31.68-4.25,76.25,11.43,96.46C2704.55,1881.64,2611.49,1932.71,2562.12,1924.77Z"/><path class="cls-14" d="M2667.58,1752.27c-20.6,33.81-65.35,70.65-92.84,83-35.7,16.07-64.64,4.41-67.61,3.13a282.69,282.69,0,0,1-.06-33.94c2.84-51.07,145.84-107.81,164.57-87.39C2672.09,1717.57,2669.48,1732.38,2667.58,1752.27Z"/><path class="cls-19" d="M2825.41,1881.08s-66.95,323.44-73.77,385.86-13,201.44-15.89,208.25S2289.18,2342.4,2275,2322.54c-8.43-11.81,5-39.44,18.57-69.94,9.28-20.81,18.63-42.93,21.16-62.26,5.94-45.39-2-101,3.1-155.71.25-2.76.54-5.53.87-8.29,6.8-57.31,39.15-124.27,51.07-163.42,4.86-15.94,7.54-26.43,10.83-33.15,4.77-9.79,10.81-11.58,26.62-10.56,26.67,1.72,102.7,0,102.7,0,0,.33,0,21,4.2,38h0c1.74,7.1,4.22,13.56,7.72,17.61,0,0,8.24,14.16,23.29,21.38a40.73,40.73,0,0,0,27.39,3c32.17-7.38,87.07-53,97.92-68.8s12,8.65,53.41,23.4c27,9.61,54,9.83,74.68,14.31C2809.61,1870.55,2818.88,1874.16,2825.41,1881.08Z"/><g class="cls-20"><path class="cls-21" d="M2825.41,1881.08s-66.95,323.44-73.77,385.86-13,201.44-15.89,208.25S2289.18,2342.4,2275,2322.54c-8.43-11.81,5-39.44,18.57-69.94,27.18,12.75,70.64,28.21,122.31,28.69,88.28.82,52.37-253.44,52.14-254.47l46.1-169.6c1.74,7.1,4.22,13.56,7.72,17.61,0,0,8.24,14.16,23.29,21.38-4.51,16.78-11.54,45.49-12.1,63.32-.82,26.39,56.67,151.87,87.46,164.18S2731,1935.6,2763.2,1895.17c12-15,23.57-23.55,35.32-27C2809.61,1870.55,2818.88,1874.16,2825.41,1881.08Z"/></g><polygon class="cls-14" points="2879.1 2462.74 2387.34 2737.14 1232.69 2239.64 1758.28 2106.17 1919.59 2157.48 2013.33 2187.31 2879.1 2462.74"/><path d="M2425.48,1534.31s-27.8,97.43-3.75,117.16,68-27.32,76.47-50-7.4-86.33-27.75-84.48S2425.48,1534.31,2425.48,1534.31Z"/><path class="cls-22" d="M1877.68,2240.47c5.64,14.69-55.54,27.65-98.84,17.6s-56.63-10.75-72.55-27.14c-12-12.39,138.94-53.92,213.3-73.45l93.73,29.83C1911.86,2202.31,1872.49,2227,1877.68,2240.47Z"/><polygon class="cls-23" points="1232.69 2239.64 1232.69 2287.55 2387.34 2810 2387.34 2737.14 1232.69 2239.64"/><polygon class="cls-17" points="2387.34 2737.14 2387.34 2810 2879.09 2515.45 2879.09 2462.74 2387.34 2737.14"/><path class="cls-3" d="M1310.6,636c-4.38,4.21-8.42,8.2-12.08,11.92-35.16,35.78-68.11,80.42-65.7,130.53,2.31,48.2,38.79,90.21,83.06,109.43,54.49,23.65,116,17.44,172.08,3.31,144.55-36.44,285.57-149.53,247.37-315.64-6.75-29.32-19.58-58-41.19-78.91C1595.52,401.08,1392.67,557.12,1310.6,636Z"/><path class="cls-24" d="M2713.41,1689.09c-16,43.16-49.34,35.15-49.34,35.15.63,25.28-32.68,54.26-66,75.23-27.16,17.11-78.55,38.73-115,21.32a58.26,58.26,0,0,1-21.91-18.24,165.57,165.57,0,0,1-11.46-17.65c-23.12-41-25-84.22-21.22-106.3.79-4.6,1.35-9.54,1.78-14.77,0,0,0-.29.08-.86,1.9-23.37,1.52-52.73,8-86.11,8-41.32,32.07-59.82,32.07-59.82,40.08-29,180.68,17.26,205.34,33.92,18.87,12.73,40.27,61.57,42.1,103.15C2718.46,1666.87,2717.17,1679,2713.41,1689.09Z"/><g class="cls-25"><path class="cls-14" d="M2717.89,1654.11c-3.76-.26-6.65-1.13-8.31-2.64-16.85-15.18-32.94.72-49.63,18.26s-28.35,27.48-108.11-23.38-53.65-75.88-82.83-82.55c-27.63-6.32-37.64,89-38.63,99.17,1.9-23.37,1.52-52.73,8-86.11,8-41.32,32.07-59.82,32.07-59.82,40.08-29,180.68,17.26,205.34,33.92C2694.66,1563.69,2716.06,1612.53,2717.89,1654.11Z"/></g><g class="cls-26"><path class="cls-14" d="M2483.11,1820.79a58.26,58.26,0,0,1-21.91-18.24,165.57,165.57,0,0,1-11.46-17.65c11.3-9.05,60.72-34.55,71.45-20.12C2531.68,1778.91,2501.39,1805.14,2483.11,1820.79Z"/></g><path class="cls-17" d="M2732.86,1644.93c-6.23,30.27-19,43.73-19.44,44.15h0c8-38.85-16-58-35.77-53.65a28.23,28.23,0,0,0-10.39,4.8h0c-12.79,9.25-19.19,27.21-19.19,27.21-58.59,15.38-93.74-52.38-93.74-52.38-32.07,9.26-45.63-29.59-60.43-67.82s-41.36-8.29-41.36-8.29c-10.51-12.6-8-58.93,25.94-76.19s54.89,0,54.89,0c5.67-1.76,11.11-3.16,16.32-4.25,73.58-15.41,102.07,31.38,102.07,31.38a115.25,115.25,0,0,1,27,10.18c23.54,12.43,51.17,37.55,56.27,87.25C2737.41,1610.94,2735.94,1630,2732.86,1644.93Z"/><path class="cls-17" d="M2456.88,1507.71s-19.73-12.87-35.15,6.86-53.65,82.64,0,136.9c0,0-12.4-125.58,30.8-112.5Z"/><path d="M2648.05,1667.46c-58.59,15.38-93.74-52.38-93.74-52.38s-14.8-37-9.87-72.75S2563,1672.35,2648.05,1667.46Z"/><path d="M2713.41,1689.09c8-38.85-16-58-35.77-53.65a28.23,28.23,0,0,0-10.39,4.8c.94-.81,47.9-41.17,65.61,4.69C2726.54,1675.68,2713.41,1689.09,2713.41,1689.09Z"/><path d="M2546.91,1496.08c-4.31-22.21-13.56-33.3-13.56-33.3,5.67-1.76,11.11-3.16,16.32-4.25C2554.58,1481.48,2550.08,1512.38,2546.91,1496.08Z"/><path d="M2678.72,1500.09c-4,17.15-17.31,36.94-17.73,22.5-.59-21-9.25-32.68-9.25-32.68A115.25,115.25,0,0,1,2678.72,1500.09Z"/><path class="cls-24" d="M2825.41,1881.08s-26.73-18.08-57.25,21.52-128.8,272.26-134.94,287.94c0,0-110.93-198-113.4-221.11s23.93-77.68,18.15-92.47-28.88-53-35.48-47.91-5.77,15-5.77,15l-26.12-31.35s48.39-32.18,43.44-43.73-43.85,15.13-57.81,26.54-18.91,13.29-13.14,31.74c0,0-17.07,36.6-17.61,48.15s23.74,71.42,31.4,103,69.54,323.6,120.69,371.45,130.36-13.55,195.54-125.17,94-237.85,87.45-279.93S2839,1890,2825.41,1881.08Z"/><g class="cls-27"><path class="cls-14" d="M2633.22,2190.54s29.33,53.62,25.21,92.4,17.32,8.29,18.15-43.3-31.18-78.26-31.18-78.26Z"/></g><path class="cls-28" d="M1721.17,2239.64s30.17-12.21,54.59-12.92,52.18-8.52,58.54-12.38c7.85-4.77,22.33-15.22,24.2-22.3,4.11-15.58-12.26-25.95-19.18-31-10-7.42-74.61-14.08-101.27,3.59S1721.17,2239.64,1721.17,2239.64Z"/><path class="cls-29" d="M1691.76,2214.34s-10.29,19.65,14.69,28.9,52.51,4.68,51.82-3.41-18.64-20.52-30.21-22.66-37.64-2.83-37.64-2.83"/><path class="cls-30" d="M1686.56,2176.15s-22.49,27.23-13,34.61,66.86,29.51,77.07,18.72-10.78-27.23-14.18-28.93S1686.56,2176.15,1686.56,2176.15Z"/><polygon class="cls-2" points="1750.09 2388.95 2093.28 2541.85 2353.83 2388.95 2030.48 2258.07 1750.09 2388.95"/><path class="cls-24" d="M2380.59,1829.77c-3.29,6.72-6,17.21-10.83,33.15-11.92,39.15-44.27,106.11-51.07,163.42-.33,2.76-.62,5.53-.87,8.29-23.67,27.84-67.93,67.84-85.38,81.37-22.69,17.58-43.13,18.15-120.3,38-52.84,13.59-152.2,26.38-209.63,33.1h0s0,0,0,0c-26.43,3.09-44,4.9-44,4.9-13.59,5.77-28,6.46-42,4.86L1760.45,2155c-6.42.41-12.48,1.26-17.15,3a119.79,119.79,0,0,1-14.11,4.09c12.59,9.28,25,18.46,36.67,27.06a114,114,0,0,0-22.56,2.9c3.41,7.1,4.5,13.16,4.16,18.06-.93,13.89-13.29,18.43-16.64,10.88-4.54-10.22-44.26-31.21-55.6-43.13-5.82-6.11,5-25.18,19.18-41.42a133.91,133.91,0,0,1,18-17.36c7.9-6.13,15.14-9.5,19.56-7.61,15.88,6.81,104.4,28.37,119.16,25.53s96.46-43.12,157.18-68.65,139-40.86,155.48-49.38S2309,1873.7,2348.2,1847.6c8.55-5.7,15.24-9.73,20.46-12.54A67.44,67.44,0,0,1,2380.59,1829.77Z"/><g class="cls-31"><path class="cls-14" d="M2380.59,1829.77c-3.29,6.72-6,17.21-10.83,33.15-11.92,39.15-44.27,106.11-51.07,163.42-.33,2.76-.62,5.53-.87,8.29-23.67,27.84-67.93,67.84-85.38,81.37-22.69,17.58-43.13,18.15-120.3,38-52.84,13.59-152.2,26.38-209.63,33.1,3.41-.81,221.91-42.19,267.5-59.29,46.19-17.32,118-87.45,136.95-132,14.91-35,48.13-124.12,61.7-160.76A67.44,67.44,0,0,1,2380.59,1829.77Z"/></g><g class="cls-32"><path class="cls-14" d="M1800.61,2151.75c0,4.64-21.6,2.07-40.16,3.23-6.42.41-12.48,1.26-17.15,3a119.79,119.79,0,0,1-14.11,4.09c-13.63,3.23-25.31,5.17-22.76,14.07,3.4,11.92,36.87,15.89,36.87,15.89,3.41,7.1,4.5,13.16,4.16,18.06-2.08-9.73-37.88-13.9-46.72-32-4.44-9.07,4.42-19,14.63-26.23,7.9-5.55,16.59-9.43,20.55-9.92a53.71,53.71,0,0,1,7-.12C1760.56,2142.29,1800.61,2146.44,1800.61,2151.75Z"/></g><path class="cls-24" d="M1816.52,2196.9a192.39,192.39,0,0,1-27.25-5.43,82.58,82.58,0,0,0-23.41-2.33c-11.65-8.6-24.08-17.78-36.67-27.06a119.79,119.79,0,0,0,14.11-4.09c4.67-1.75,10.73-2.6,17.15-3Z"/><path d="M1742.89,2141.85l17.56,13.13c-6.42.41-12.48,1.26-17.15,3a119.79,119.79,0,0,1-14.11,4.09l-13.82-10.19-21-15.46c-33.77-24.87-64.65-47.57-80.44-59a12.78,12.78,0,1,1,15.17-20.56l83.27,62.25Z"/><path d="M1863.23,2244.16l-29-4.52s-30-22.17-68.41-50.5a82.58,82.58,0,0,1,23.41,2.33,192.39,192.39,0,0,0,27.25,5.43l32.6,24.37Z"/><path class="cls-14" d="M1679.94,2183.92a31.54,31.54,0,0,1,10.53,5.92c3.42,2.67,6.76,5.45,10.13,8.18q10.28,8.3,20.31,16.87,2.82,2.43,5.61,4.89a62.69,62.69,0,0,0,5.63,4.81c.76.54,1.46-.58.93-1.2a43.41,43.41,0,0,0-4.87-4.62c-1.68-1.49-3.38-2.95-5.08-4.41q-5.2-4.44-10.53-8.75c-6.87-5.55-13.77-11.11-20.83-16.41-3.53-2.65-7.26-5-11.65-5.94a.34.34,0,0,0-.18.66Z"/><path class="cls-14" d="M1688.92,2220.06c8.65,3.05,17.33,5.9,26.17,8.35q6.5,1.82,13.06,3.37,3.28.78,6.57,1.52c1.1.24,2.2.48,3.3.7a13.88,13.88,0,0,0,3.55.54c.68,0,1.08-1,.38-1.39-1.9-1-4.44-1.15-6.5-1.59-2.28-.49-4.55-1-6.82-1.53-4.38-1-8.74-2.11-13.09-3.24-8.85-2.3-17.69-4.78-26.39-7.59-.54-.18-.77.67-.23.86Z"/><path class="cls-14" d="M2632.8,2193.44a185.32,185.32,0,0,1,20.86,46.48,183.28,183.28,0,0,1,5.34,23.59c1.28,8.31.65,17.48,3,25.55a2.19,2.19,0,0,0,4.19,0c2.26-8,.48-17.46-.68-25.56a157.42,157.42,0,0,0-29.25-72.07c-1.47-2-4.83-.19-3.44,2Z"/><path d="M2109.7,2448.17a636.69,636.69,0,0,1-86-39.36q-20.33-11.11-39.79-23.68-9.73-6.27-19.23-12.91-4.76-3.31-9.44-6.71c-3-2.22-5.92-4.9-9.55-6-2.06-.65-4.19,1.92-2.91,3.78,4,5.87,12.21,9.88,18,13.85q9.55,6.53,19.35,12.7,20.33,12.84,41.6,24.1a645.86,645.86,0,0,0,87,37.81c2.23.79,3.17-2.73,1-3.54Z"/><path d="M2052.57,2409.68c-7.77-4.24-15.38-8.73-22.81-13.54q-5.37-3.48-10.61-7.16c-3.24-2.27-6.47-5.62-10.36-6.51a1.58,1.58,0,0,0-1.76,2.3c1.91,3.45,5.87,5.44,9,7.68q5.24,3.71,10.59,7.2,11.49,7.51,23.55,14.07c2.65,1.45,5-2.6,2.37-4Z"/><path d="M2068.09,2402.61a46.89,46.89,0,0,1-6.63-4.06c-2-1.49-4-3.42-6.17-4.54a.41.41,0,0,0-.56.55c2.06,4.61,7.85,8,12.1,10.22,1.42.76,2.7-1.43,1.26-2.17Z"/><path d="M2072.32,2399.62c-5.1-3.48-10.13-7.09-15.32-10.43-.23-.15-.42.2-.21.35,5,3.66,10.15,7.08,15.22,10.6.32.23.63-.3.31-.52Z"/><path d="M2034.41,2504.25c8.36-13.09,19.23-24.07,30.55-34.6,12.53-11.66,25.22-23.16,37.83-34.72s25.25-23.33,37.85-35l18.91-17.53c6.38-5.92,14-11.59,19.41-18.41,2-2.56-.6-7.16-3.83-5-7.17,4.9-13.32,12-19.66,17.9l-18.81,17.61q-19.53,18.3-39,36.64c-12.6,11.94-25.3,23.78-37.79,35.84-11,10.61-21.53,21.77-29.71,34.74-1.71,2.71,2.56,5.18,4.27,2.5Z"/><path d="M2124.5,2427l7.38-6.64c2.22-2,4.93-3.91,6.63-6.37.74-1.06-.68-2.34-1.71-1.72-2.57,1.54-4.65,4.14-6.78,6.22l-7.11,6.93c-1,1,.52,2.54,1.59,1.58Z"/><path d="M2139.15,2411.91l4.29-3.41c1.29-1,2.89-2,3.79-3.34a1,1,0,0,0-1.07-1.4c-1.55.57-2.81,1.89-4.1,2.91l-4.54,3.61c-1.16.92.48,2.55,1.63,1.63Z"/><path d="M2022.66,2358.42a164.28,164.28,0,0,0,26.51,10.67q6.91,2.09,14,3.51c4,.8,8.86,2.46,12.74.93a1.75,1.75,0,0,0,.41-3.16c-3.41-2.48-8.53-2.31-12.6-3.15s-8.21-1.85-12.24-3a156.81,156.81,0,0,1-26.17-10.29c-3-1.5-5.64,3-2.63,4.51Z"/><path d="M2058.74,2358.42a68.12,68.12,0,0,0,13.09,4.11c3,.58,6.47,1.41,9.27-.15a4.67,4.67,0,0,0,2.51-5.2c-.19-1-1.7-2.64-1.45-3.49s3.13-.93,4.16-1.22a1.72,1.72,0,0,0,.41-3.1c-3.44-2.35-10-1-9.95,4,0,1.23,1.07,2.21,1.14,3.25q1.65,1.4-.9,2.05a21.69,21.69,0,0,1-4-.44,67.45,67.45,0,0,1-13.21-3.67c-2.44-.93-3.38,2.89-1.06,3.86Z"/><g class="cls-33"><path class="cls-6" d="M1589.48,1859.88l-175.17,89.57-451.79-9.71A496.18,496.18,0,0,1,922,1819q-3.78-18.86-6.69-37.43L1157.2,1737c150.12,25,284.1,56.79,292.82,58.75C1469,1800,1589.48,1859.88,1589.48,1859.88Z"/></g><polygon class="cls-6" points="1414.31 1949.45 1313.43 1885.72 1311.79 1859.88 1414.31 1920.1 1414.31 1949.45"/><polygon class="cls-10" points="1673.92 1884.86 1414.31 1949.45 1414.31 1920.1 1673.92 1854.88 1673.92 1884.86"/><polygon class="cls-34" points="1311.79 1859.88 1544.12 1818.7 1673.92 1854.88 1414.31 1920.1 1311.79 1859.88"/><polygon class="cls-10" points="1550.01 1855.59 1433.05 1882.71 1433.05 1727.55 1550.01 1727.55 1550.01 1855.59"/><polygon class="cls-6" points="1433.05 1882.71 1401.94 1870.16 1401.94 1727.55 1433.05 1727.55 1433.05 1882.71"/><polygon class="cls-35" points="1107.43 1874.87 1080.68 1861.05 993.98 1286.96 1765.87 1150.03 1809.91 1164.92 1107.43 1874.87"/><polygon class="cls-10" points="1888.68 1681.74 1107.43 1874.87 1020.15 1302.22 1809.91 1164.92 1888.68 1681.74"/><polygon class="cls-6" points="1860.48 1664.42 1849.77 1666.99 1127.21 1839.91 1050.28 1335.21 1048.57 1323.97 1788.8 1194.09 1860.48 1664.42"/><polygon class="cls-36" points="1849.77 1666.99 1127.21 1839.91 1050.28 1335.21 1779.7 1207.23 1849.77 1666.99"/><polygon class="cls-6" points="1080.68 1861.05 1107.43 1874.87 1020.15 1302.22 993.98 1286.96 1080.68 1861.05"/><path class="cls-14" d="M2682.45,1671.21c-4.86,1.18-7.44,7.26-9.43,11.37-2.67,5.53,1.72,11.58,7.88,10.24a15.48,15.48,0,0,0,10-7.74c2.28-4.22,2.32-8.73,2.71-13.38.24-2.88-2.06-5.79-4.57-6.8a7.66,7.66,0,0,0-8.12,1.54c-3,2.47-5.39,6-7.5,9.18a41.58,41.58,0,0,0-2.52,4.27,9.51,9.51,0,0,0-.22,9.37c1.29,2.83,5.25,4.07,8.07,3.29,4.72-1.31,5.84-5.33,8.08-9.09,1.71-2.87,3.86-5.29,5.76-8l-13.85-3.75a16.64,16.64,0,0,1-.49,6.23c0,.12-.44,1-.22.76-.65.58-.76.74-.33.47-.72.47-.88.54-.47.21l8.57,8.58c.75-3.72.95-7.74,2.08-11.35,1-3.29-2.27-6.15-5.39-5.39Z"/><path class="cls-17" d="M2442.88,1664.64a29.32,29.32,0,0,0-.79,15.62c1.88,7.48,13.33,5.84,13.35-1.81,0-4.06-.54-8.12-.54-12.18,0-7-10.06-8.24-12-1.63Z"/><path class="cls-17" d="M2539.87,1669.18c-5.23,3.7-6.68,11.4-7.07,17.39-.55,8.62,13.46,10.62,15.2,2,1-5,2.3-15-2.46-18.71-1.54-1.2-3.85-2-5.67-.73Z"/><path class="cls-14" d="M2477,1693.49c-3.77,5.91-6.53,13.66-5.37,20.75,1.13,6.93,7.43,11.11,14,12.22,1.11.19,2.24.33,3.37.41a27.06,27.06,0,0,0,3.36-.14l3.37-.2a12.92,12.92,0,0,0,3.4-.4,1,1,0,0,0,0-1.92c-1.91-.77-4.5-.53-6.53-.69-1.14-.09-2.23-.35-3.36-.46a32.91,32.91,0,0,1-3.29-.44c-3.33-.68-6.79-2.13-8.89-4.92-2.3-3.07-2.23-7.17-1.56-10.77a46.15,46.15,0,0,1,4-12,1.44,1.44,0,0,0-2.48-1.45Z"/><path class="cls-17" d="M2434.87,1631.6c4-3.21,9-4.95,13.9-6.44,2.63-.8,5.27-1.55,7.94-2.18,1.36-.32,2.82-.48,4.13-.93s2.65-1,3.94-1.56c.92-.39.32-1.6-.45-1.68a21.68,21.68,0,0,0-4.41-.1,34.34,34.34,0,0,0-4.37.94,87.72,87.72,0,0,0-8.57,2.53c-4.94,1.75-10.24,3.7-13.71,7.82a1.13,1.13,0,0,0,1.6,1.6Z"/><path class="cls-17" d="M2521.58,1623.94c6.28,2.75,12.29,6,18.3,9.23,3,1.62,5.92,3.29,8.82,5,1.45.88,2.89,1.76,4.32,2.66a10.85,10.85,0,0,0,4.59,1.9,1.07,1.07,0,0,0,.91-1.59,10.06,10.06,0,0,0-3.7-3.39c-1.42-.91-2.87-1.79-4.33-2.65-3-1.76-6-3.45-9.09-5a191.6,191.6,0,0,0-19-8.21c-1.17-.45-2,1.53-.86,2Z"/><path class="cls-37" d="M2546.78,1707.56c.56,2.23,1.08,4.46,1.73,6.67.32,1.06.62,2.12.94,3.18l.54,1.7a4,4,0,0,0,1,2,1.78,1.78,0,0,0,2.94-.78c.32-1.25-.4-2.7-.79-3.89s-.72-2.1-1.08-3.14c-.75-2.19-1.61-4.32-2.45-6.47a1.49,1.49,0,0,0-1.79-1,1.47,1.47,0,0,0-1,1.79Z"/><path class="cls-37" d="M2556.42,1707.91a50.19,50.19,0,0,1,1.83,4.84c.57,1.71,1,3.46,1.52,5.17a1.81,1.81,0,0,0,2.19,1.24,1.84,1.84,0,0,0,1.24-2.18,21.86,21.86,0,0,0-1.64-5.34,34.1,34.1,0,0,0-2.72-5.14,1.4,1.4,0,0,0-2.42,1.41Z"/><path class="cls-37" d="M2431.64,1697.77c-.09.32-.19.63-.28.94.1-.34-.1.27-.13.4s-.05.28-.08.41l-.37,1.79c-.12.6-.19,1.2-.27,1.81l-.12.84a3.5,3.5,0,0,0,0,1.61,1.7,1.7,0,0,0,1.41,1.21,1.72,1.72,0,0,0,1.68-.81,3.42,3.42,0,0,0,.39-1.55l.1-.84c.08-.6.17-1.21.21-1.82l.11-1.82c0-.13,0-.28,0-.42a1.31,1.31,0,0,0,0-.34c0-.25,0-.27,0-.07,0-.33,0-.66,0-1a1.33,1.33,0,0,0-2.6-.36Z"/><path class="cls-37" d="M2439.61,1699.42a14.12,14.12,0,0,0-1.48,3.54,15.62,15.62,0,0,0-.39,2,3.63,3.63,0,0,0,.17,2.35,1.53,1.53,0,0,0,2.38.31,2.11,2.11,0,0,0,.49-.89,5.05,5.05,0,0,0,.08-.68l.06-.48c0-.38-.05.29,0-.06s.13-.76.17-1.15c0-.19,0-.16,0,.07,0-.09,0-.17,0-.25s0-.28.07-.42c.1-.56.23-1.12.36-1.67s.23-1.16.37-1.74a1.28,1.28,0,0,0-.74-1.49,1.26,1.26,0,0,0-1.57.52Z"/><path class="cls-14" d="M2495.1,1842.55c.23,5.59,1.67,11.09,3.08,16.48.7,2.7,1.53,5.36,2.39,8,.42,1.29.85,2.57,1.29,3.85a6.5,6.5,0,0,0,2.2,3.58,1.37,1.37,0,0,0,2-.81,6.3,6.3,0,0,0-.55-3.78c-.46-1.27-.9-2.55-1.34-3.83-.89-2.64-1.69-5.3-2.51-8-1.62-5.24-2.77-10.63-4.64-15.78-.35-1-2-.92-1.92.26Z"/><path class="cls-14" d="M2467,1812.53l1.73.4a8.83,8.83,0,0,0,1,.16l.45,0,.2,0a.9.9,0,0,0,.61-.27.77.77,0,0,0,.13-.94c-.23-.4-.69-.48-1.09-.6a6.45,6.45,0,0,0-.87-.2l-1.73-.29a.92.92,0,0,0-.67.09.86.86,0,0,0,.21,1.59Z"/><path class="cls-14" d="M2461.07,1853.37c.38,0,.78-.09,1.17-.09l-.32,0a2.33,2.33,0,0,0,.38.08,2,2,0,0,0,.69,0l.3-.06a1.73,1.73,0,0,0,.51-.18,3.1,3.1,0,0,0,.57-.3,2,2,0,0,0,.47-.62.88.88,0,0,0-.31-1.18,2.11,2.11,0,0,0-.57-.31,2.27,2.27,0,0,0-.82,0,3.82,3.82,0,0,0-.82.15,1.66,1.66,0,0,0-.51.19,3.36,3.36,0,0,0-.41.34l.24-.18,0,0,.28-.12-1.07.41a1,1,0,0,0-.6.46,1.06,1.06,0,0,0-.12.65,1,1,0,0,0,1,.87Z"/><path class="cls-14" d="M2463.33,1857.77a4.93,4.93,0,0,1,.54,0l-.26,0,.5.1.23.07a5,5,0,0,0,.56.07l-.32,0c.26,0,.52.09.78.14a1.63,1.63,0,0,0,.44,0h.18a2.3,2.3,0,0,0,.39-.05,2.07,2.07,0,0,0,.34-.15.88.88,0,0,0,.4-1,1.45,1.45,0,0,0-.4-.63l-.15-.12a1.72,1.72,0,0,0-.55-.33,4.55,4.55,0,0,0-1.09-.2,4.12,4.12,0,0,0-1.82.39.92.92,0,0,0-.52.41.87.87,0,0,0-.11.55.88.88,0,0,0,.86.76Z"/><path class="cls-14" d="M1714.11,2167.2c-.83.89-.85,2.19-.94,3.33a8,8,0,0,0,.42,3.89c.88,2,3,3.28,5,3.93a.25.25,0,0,0,.19-.45c-1.7-.9-3.66-1.72-4.57-3.55a10.44,10.44,0,0,1,.17-6.9c.11-.2-.15-.42-.31-.25Z"/><path class="cls-14" d="M1757.48,2160.49a12.49,12.49,0,0,0,1.14,2.32c.23.36.48.71.74,1a5.27,5.27,0,0,0,.43.51c.14.17.29.38.52.42a.29.29,0,0,0,.35-.35c0-.21-.21-.35-.34-.5l-.42-.47a11.05,11.05,0,0,1-.72-1,11.73,11.73,0,0,1-1.14-2.16c-.14-.33-.7-.19-.56.16Z"/><path class="cls-14" d="M1759.45,2159.53a6.07,6.07,0,0,0,.61,2.17,5.36,5.36,0,0,0,.6.94c.22.29.5.72.88.77.19,0,.29-.2.26-.35s-.18-.29-.31-.42a4.32,4.32,0,0,1-.34-.39,4.92,4.92,0,0,1-.54-.83,5.26,5.26,0,0,1-.58-1.89.29.29,0,0,0-.29-.29.3.3,0,0,0-.29.29Z"/><path class="cls-14" d="M2471,1812.08c7.53-5.34,14.91-10.91,22.3-16.47,6.14-4.62,12.69-9.08,17.61-15.07a32.34,32.34,0,0,0,3.42-5c.76-1.39,1.87-3.15.79-4.64-.16-.22-.58-.1-.47.2.64,1.7-1,4-1.88,5.37a33.08,33.08,0,0,1-3.26,4.37,59.57,59.57,0,0,1-7.65,7.16c-6.47,5.22-13.24,10.09-19.86,15.11q-5.67,4.29-11.21,8.71c-.16.12,0,.39.21.27Z"/><path class="cls-14" d="M2442.6,1826.66a16.22,16.22,0,0,0,1.36,3.95c.54,1.32,1.09,2.64,1.64,4s1.08,2.52,1.64,3.78a17.47,17.47,0,0,0,1.9,3.76c.22.29.61,0,.55-.32a18.14,18.14,0,0,0-1.49-3.66c-.59-1.31-1.17-2.61-1.75-3.92s-1.12-2.52-1.67-3.79a18.93,18.93,0,0,0-1.84-3.85c-.1-.12-.36-.11-.34.09Z"/><path class="cls-2" d="M2802.94,1901.43c3.49-.54,6.65-1.56,10.25-1.31,3.29.23,6.3,1.92,9.56,1.86,1.94,0,3.83-2.48,2.46-4.29-5.1-6.7-18.83-5.64-24.54-.17-1.85,1.76.14,4.23,2.27,3.91Z"/><path class="cls-7" d="M1911.94,1858.71c-7,4.86-5.43,13.39.49,18.5,6.33,5.46,15.25,8.37,23.3,10,18.89,3.79,39.22,3.43,58.32,1.77a223.74,223.74,0,0,0,28.72-4c7.87-1.73,16.43-5.36,20.78-12.56a16.33,16.33,0,0,0-2.87-20.75c-5.6-5.17-13.35-6.93-20.58-8.49-17.35-3.77-35.16-5.3-52.77-2.58a87.72,87.72,0,0,0-24.34,7.53c-7.41,3.52-15.74,8.86-17.71,17.46-4.59,20,25.3,22.76,38.32,23.54a112,112,0,0,0,29-2.17c7.71-1.57,18-3.55,23.82-9.32,7.59-7.56,2.93-18-6-21.55-9.36-3.72-20.77-4.47-30.73-5.15a166.46,166.46,0,0,0-32.87,1.14c-9.26,1.22-23.65,1.47-27,12.06a8,8,0,0,0,3.62,8.9c15.4,8.73,35.18,9,52.47,9.17,18.16.15,36.28-2.49,52.5-11,3.37-1.77,4.24-5.6,3.67-9-1.56-9.43-12.1-11.46-19.94-12.72a199.74,199.74,0,0,0-30.79-2.64,197.35,197.35,0,0,0-60.63,9.35c-4.68,1.5-7.91,7.39-4.85,11.92,5.73,8.44,15.07,9.4,24.42,10.79,10.12,1.51,20.33,2.82,30.58,2.69,10-.13,20.09-1.55,29.38-5.25,8.6-3.43,18.94-10.33,15.1-21.12-3.15-8.85-16.78-11.47-24.81-13.33a122.19,122.19,0,0,0-32.46-3c-8.61.34-17.67,1-25.45,5.09-7.62,4-13.56,12.41-11.54,21.3,2.57,11.33,16.14,14.22,26.12,14.49a49.41,49.41,0,0,0,30.63-9.69c3.64-2.72,5.22-6.91,2.93-11.18-3-5.67-8.9-7.35-14.82-8.39a116.71,116.71,0,0,0-18.92-1.85,118,118,0,0,0-20.81,1.72c-5.64.94-12.31,1.88-16.68,5.93a11.38,11.38,0,0,0-1.09,16c3.68,4.16,9.9,6.25,15.07,7.85a63.64,63.64,0,0,0,36.88,0c8.95-2.68,7-15.51-2.16-16l-23-1.19c-3.59-.18-7.26-.14-10.84-.57a19.38,19.38,0,0,0-2.91-.6c.21-.08-1.84.78-.36.51l-.2,1.35a4.08,4.08,0,0,1,1.3-1.44,27.73,27.73,0,0,1,3.17-1.83,59.9,59.9,0,0,1,8.46-3,102.53,102.53,0,0,1,20.09-3.9,162.69,162.69,0,0,1,41,1.84c7.08,1.17,14.11,2.65,21.1,4.28,3.19.74,6.36,1.53,9.53,2.35,1.68.43,3.36.85,5,1.33,4.73,1.38-.77.49,1.52-3-6,9.23,8.74,17.8,14.76,8.63,4.33-6.61,1.46-15.2-4.92-19.28-6.22-4-15.14-5.08-22.24-6.72a239.51,239.51,0,0,0-46.45-6.42c-15.55-.45-31.37,1.3-46.17,6.23-6.55,2.19-13.51,4.67-18.08,10.11s-5.35,13.79-.31,19.39c5.3,5.88,13.44,6.22,20.78,6.63q14.4.8,28.81,1.59l-2.17-16a48.55,48.55,0,0,1-19.61,1.91c-4.66-.53-13.25-1.89-16.48-5.58l2.09,3.6-.07,1.13-2.1,3.6c1.94-2.42,7.73-2.51,10.66-3a92,92,0,0,1,12.72-1.11,102,102,0,0,1,13.08.52q3.57.38,7.08,1.08c1,.19,2.09.42,3.12.68.66.21.69.16.09-.14l2.94-11.18c-7.38,5.52-16.25,8.43-25.52,7.23a36.3,36.3,0,0,1-5.91-1.41c-1.61-.5-1.18-1.3-1.2-.19s.33-.81.4-.86c2.49-1.5,4-3,7-3.84,9.16-2.54,19.62-2.15,29-1.35a93.34,93.34,0,0,1,15.46,2.7c3.6.94,10.51,1.93,12.92,4.88l-2.1-3.59c.87-1.65.91-2,.11-1l-.66.5a41.92,41.92,0,0,0-3.94,1.92,58.69,58.69,0,0,1-9.64,2.87,81.36,81.36,0,0,1-19.77,1.44,178.51,178.51,0,0,1-20.25-1.91c-3.07-.44-6.14-.89-9.2-1.42-1.54-.27-5.36-.48-6.39-2l-4.85,11.91a181.26,181.26,0,0,1,48.89-8.78,190.32,190.32,0,0,1,24.12.66q6.33.59,12.6,1.67c1.6.28,3.28.51,4.85.94,2.33.65,1.3.83,1.18.13l3.67-9c-13.68,7.25-29.14,9.05-44.43,9-14.3-.09-31.73.32-44.52-6.9l3.62,8.89.36-1.12-2,3.47-.43,0c1-.31,2-.57,3.08-.78,1.53-.36,3.07-.66,4.61-1,3.32-.65,6.65-1.2,10-1.6a156.94,156.94,0,0,1,20.67-1.06,153.52,153.52,0,0,1,18.56,1.31c3.11.41,6.21,1,9.28,1.59,1.63.33,3.25.7,4.86,1.1,2.33.57,1,.4,1.32.15l.32-3.79c-.5.31-1,.6-1.52.89-1.28.07-3,1.1-4.25,1.51q-4.72,1.56-9.57,2.65a93.28,93.28,0,0,1-19.43,2.22,92.21,92.21,0,0,1-17.71-1.4c-1.69-.3-12.59-2-12.91-3.52-.63-3,10.34-7.58,12-8.3a76,76,0,0,1,16.77-4.95c11.22-2.06,23-1.71,34.29-.22a168.93,168.93,0,0,1,17.7,3.39c2.11.51,9.2,1.67,10,4.33,2.11,6.79-24.21,9.55-27.45,10a253.72,253.72,0,0,1-45.93,2.11,133.74,133.74,0,0,1-21.41-2.18,51.85,51.85,0,0,1-9.37-2.74,36.47,36.47,0,0,1-3.61-1.76,32.24,32.24,0,0,1-2.78-1.74q-1.48-1.47-1.47,1c4.75-4.38-1.56-12.88-7-9.09Z"/><path class="cls-38" d="M1926,1783.07s-43.56-39.85-46.6-66.47,45.4-21.44,51.09-3.82S1933,1766.41,1926,1783.07Z"/><path class="cls-39" d="M1918.41,1793.73s-1.37-31.35-14.38-48.59-41.67-10.45-44.41-2.19S1864.84,1769.34,1918.41,1793.73Z"/><path class="cls-40" d="M1912.74,1719.12s11.32,25,15.27,105.55c0,0,5.58-27.57-49.1-78.54"/><path class="cls-38" d="M1957.83,1791.45s-9.31-58.29,4.88-81,48.88,11.47,42.37,28.8S1973.62,1782.73,1957.83,1791.45Z"/><path class="cls-39" d="M1945.23,1795.06s18.44-25.39,19-47-26.13-34.11-33.41-29.35S1918.46,1742.64,1945.23,1795.06Z"/><path class="cls-40" d="M1987.21,1733.13s-6.69,26.61-53.72,92.13c0,0,21.53-18.11,10.43-92"/><path class="cls-38" d="M1992.26,1791.93s12.55-53.68,32.85-68.32,38.2,27.19,26.45,39.88S2009,1790,1992.26,1791.93Z"/><path class="cls-39" d="M1980.09,1790.6s24.91-15.44,33-33.91-10.53-38.71-18.51-37.18S1975.48,1735.82,1980.09,1790.6Z"/><path class="cls-41" d="M2038.27,1751.9s-15.19,20.64-79,60.66c0,0,25-8,41.54-75.88"/><path class="cls-38" d="M2017.33,1798.13s16.14-32.58,31.38-38.92,20.43,23.2,11,29.58S2028.38,1799.39,2017.33,1798.13Z"/><path class="cls-39" d="M2009.73,1795.44s18.31-6.16,26.29-16.8-.94-26.45-6.29-26.66S2015,1759.58,2009.73,1795.44Z"/><path class="cls-42" d="M2052.9,1779.35s-12.86,11-59.85,27.06c0,0,17.27-1.41,38.09-42.47"/><path class="cls-15" d="M2022.89,1845c0,19.33-25.72,35-57.45,35h0c-31.73,0-57.45-15.68-57.45-35v-48.3h0a228,228,0,0,0,114.9,0h0Z"/><g class="cls-43"><path class="cls-2" d="M1238.48,1369.84q-.26-5.1-.57-1.16.35-1.65-1,1.13a67.05,67.05,0,0,0-4,6.6c-2.61,4.44-5,9-7.51,13.5q-7.41,13.56-15,27c-5.05,9-10.07,18-15.15,26.94-4.35,7.65-13,18.37-11.76,27.65.41,3.08,3.23,6.78,6.92,5.28,5.69-2.31,9.42-7.62,12.48-12.8,3.28-5.54,6.35-11.21,9.49-16.83q9.19-16.45,18-33.13c5.85-11.11,11.94-22.17,17-33.64,2-4.43,5.06-10.11,2.33-14.91-2.07-3.62-7.59-5-10.46-1.57-1.3,1.56-2.08,4.07-.77,5.92Z"/></g><g class="cls-43"><path class="cls-2" d="M1383.13,1325.91c-4.28,4.71-7.12,10.23-10.49,15.6-3.46,5.54-6.89,11.08-10.24,16.69-6.36,10.65-12.81,21.23-19.11,31.92-13.1,22.21-26.3,44.36-39.41,66.56-26,44.13-52.53,88-79.06,131.82q-10.9,18-21.88,36c-3.75,6.13-7.26,12.38-10.78,18.64s-7.78,12.59-9.94,19.61c-1.64,5.35,5.26,8.88,9.07,5.28,4.67-4.4,7.89-10,11.48-15.29s7.42-10.77,10.9-16.3c6.6-10.5,13-21.1,19.54-31.66q20.26-33,40.07-66.16c26.25-44,52.19-88.19,77.39-132.81,6.91-12.23,13.65-24.53,20.39-36.85,3.44-6.3,7-12.55,10.16-19s7.28-12.65,9.39-19.65c1.26-4.2-4.46-7.69-7.48-4.36Z"/></g><g class="cls-43"><path class="cls-2" d="M1398,1428.67q-8.9,19.59-18.25,39-4.68,9.69-9.49,19.31c-3,6-6.57,11.84-8.73,18.13-.81,2.37,2.52,3.4,3.8,1.6,4.1-5.76,6.9-12.68,10.06-19q4.59-9.18,9.08-18.42,9.18-18.9,17.9-38c1.35-3-3-5.52-4.37-2.56Z"/></g><g class="cls-43"><path class="cls-2" d="M1536.74,1320.88c-9,12.69-16.5,26.83-24,40.48s-15,27.53-22.62,41.26c-15.15,27.47-29.68,55.3-44.2,83.11q-43.59,83.44-85.74,167.63-11.87,23.69-23.45,47.49c-3.74,7.63-7.6,15.22-11.19,22.92-3.71,8-8,16.53-9.52,25.19-.71,4,4.15,7.83,7.33,4.27,10.26-11.48,16.33-27.33,23.12-41,7-14.06,14-28.08,21-42.13q21.16-42.61,42.63-85.06,42.54-84,86.31-167.38c8.18-15.66,16.23-31.38,24.43-47,8-15.29,16.61-30.7,22.93-46.78,1.7-4.32-4.68-6.24-7-3Z"/></g><g class="cls-43"><path class="cls-2" d="M1601.84,1372.51c-11.41,15.93-21.18,33.19-30.71,50.29q-14.12,25.32-27.44,51c-17.87,34.61-35,69.65-51,105.18-4.42,9.83-8.64,19.75-12.86,29.67-4.51,10.62-8.45,20.83-10.22,32.3-.66,4.31,4.31,6.46,6.95,2.92,11.52-15.49,18.05-34,26-51.45s15.95-35.21,24.23-52.68q24.84-52.41,51.83-103.76c10.26-19.65,21.2-39.12,30.25-59.36a4.12,4.12,0,0,0-7.11-4.16Z"/></g><g class="cls-43"><path class="cls-2" d="M1631.11,1478.76c-6.67,16-12.45,32.29-19.12,48.26-6.56,15.73-15.46,31.16-20.2,47.52-.54,1.88,1.94,2.67,3,1.26,10-13.63,15.93-30.84,22.27-46.42,6.61-16.24,13-32.7,17.38-49.71.57-2.21-2.48-2.89-3.31-.91Z"/></g><g class="cls-43"><path class="cls-2" d="M1734.66,1394.24c-17.76,37.31-35.2,74.66-51.76,112.53q-24.5,56.06-47.62,112.71-6.54,15.94-13,31.91c-4.38,10.81-10,21.72-12,33.24a3.32,3.32,0,0,0,6,2.54c5.76-8.43,8.91-18.37,12.76-27.8s7.72-18.84,11.6-28.25q11.85-28.68,23.87-57.29c15.8-37.84,32-75.5,47.82-113.34,8.95-21.44,17.58-43,26.56-64.43,1-2.44-3.16-4.21-4.3-1.82Z"/></g><circle class="cls-2" cx="2199.36" cy="1063.47" r="261.76"/><path class="cls-2" d="M2276.55,800.61c-18.79-23-51.19-26.67-79-25-34.33,2.07-68.52,9.94-100.69,22-65,24.3-125.57,66.78-164.6,124.76-37.15,55.19-52.92,122.94-45.56,188.92,7.08,63.49,34,124.12,78.93,169.89a293,293,0,0,0,163.6,83.67c67.35,10.2,135.62-5,194.79-38.12,59.78-33.41,108.43-84.07,145.18-141.41,37.55-58.58,67.42-129.26,45.51-199.18-19.34-61.69-69.48-110.79-125.68-140.37-56.72-29.85-122.73-42-186.33-33.61-15.74,2.07-30.72,6.38-45.9,10.86-9.19,2.71-5.28,17.11,4,14.39,14.35-4.23,29.46-6.33,44.27-8.18a297.42,297.42,0,0,1,45.63-2.14,302.65,302.65,0,0,1,88.21,16c56.57,19.14,109.39,56.22,140.91,107.63,15.95,26,25.78,55.55,25.71,86.24-.09,34.16-11.38,67.35-26.5,97.62-28.89,57.85-70.23,111.32-121.7,150.78-51.65,39.6-115.23,65.66-180.79,66.87-58.93,1.08-117.6-18-165.65-51.93a267.11,267.11,0,0,1-101.94-143.5c-17.17-58.84-14.72-123,8.18-179.93,25.52-63.47,75.82-113,134.9-146a360.89,360.89,0,0,1,92.38-36,356.82,356.82,0,0,1,49.58-8.22c14-1.33,28.47-1.57,42.3,1.44,13.12,2.86,25,8.7,33.77,19.07,3.85,4.57,10.23-2,6.52-6.52Z"/><circle class="cls-2" cx="3089.61" cy="1367.33" r="228.13"/><path class="cls-2" d="M3167.79,1121.92c-21.55-15-48.46-16.59-73.71-13-25.52,3.65-50.72,12.79-74.11,23.38-47.79,21.65-91.07,54.06-124.5,94.57a337.84,337.84,0,0,0-69.91,145.23c-10.35,49.62-9.92,103.42,11.74,150.09a142.16,142.16,0,0,0,46.72,56.36c21.34,15.11,46.65,24,71.92,30,12.6,3,25.35,5.27,38.14,7.32,14.15,2.27,28.65,5.26,43,5.2,16.12-.06,31.66-4.81,46.88-9.61,13.67-4.31,27.32-8.71,40.81-13.57,27-9.74,53.72-21.23,77.78-37.07,22.72-14.95,43-33.45,60.65-54.06a450.75,450.75,0,0,0,46.22-65.52c14.81-25.2,28-51.6,37.17-79.41s13.93-57.46,10.53-86.54a166.19,166.19,0,0,0-22.39-66.39,196.2,196.2,0,0,0-46.58-52.58c-18.58-14.69-39.29-27.14-62.16-33.74-11.13-3.21-22.34-4.63-33.67-6.76-8.53-1.61-12.19,11.46-3.6,13.08,10.2,1.92,20.74,6.26,30.15,10.55,9.93,4.53,19.87,9.42,29.36,14.82a193.55,193.55,0,0,1,49.77,40.38c30.18,34.36,43.85,78.73,37.49,124.12-3.81,27.17-13.41,53.43-25.29,78a506.06,506.06,0,0,1-39.48,67.79,333.16,333.16,0,0,1-48.81,56.61c-19.31,17.65-41.23,31.73-64.81,43-24.58,11.75-50.49,20.42-76.38,28.76-13.53,4.36-27.39,9.26-41.73,9.73-13.41.44-27-2.2-40.16-4.21-47.08-7.17-97.2-18.12-129.51-56.1-30-35.33-38.11-85.29-35.38-130.26,3.13-51.54,20-101.57,47.48-145.2,26.88-42.73,64-78.54,107-104.88a356,356,0,0,1,67.6-32.13c23.27-8.17,48.33-15,73.21-13.14a75.18,75.18,0,0,1,34.91,11.34c4,2.52,7.38-3.59,3.63-6.21Z"/><path class="cls-24" d="M2168.14,1037.16a120.57,120.57,0,0,0-24.32-7.75l-1.19-.23-1.19-.24a1.76,1.76,0,0,1-.66-.12,1.67,1.67,0,0,0-.65-.12,154.34,154.34,0,0,1-17.28-4.59,24.22,24.22,0,0,1-10.49-7q-4.17-4.77-4.17-13.11v-.12q0-11,7.45-16.69t21.63-5.72a50.5,50.5,0,0,1,17.58,3.34,74.32,74.32,0,0,1,17.82,9.77l14.3-23.83a100.24,100.24,0,0,0-16-9.3,84.26,84.26,0,0,0-16.81-5.72c-2.05-.46-4.1-.81-6.13-1.1V934.54h-28.37v20.88a60.51,60.51,0,0,0-14.12,4.45,42.19,42.19,0,0,0-19.55,17.7q-6.61,11.68-6.62,28.84v.12q0,18.48,7.28,28.49t17.4,13.82q10.13,3.83,26.46,6.8a6.08,6.08,0,0,0,1,.17c.36,0,.69.11,1,.18a2.1,2.1,0,0,0,.66.12,1.18,1.18,0,0,1,.53.12,97.44,97.44,0,0,1,15.2,4,22.14,22.14,0,0,1,9.59,6.74q3.69,4.53,3.7,12.27v.12q0,11.69-7.93,17.7t-23.3,6a58.16,58.16,0,0,1-23.48-4.83,61.82,61.82,0,0,1-20-14.12l-15.73,23.36a58.09,58.09,0,0,0,15.43,12.16,85.41,85.41,0,0,0,20.74,8.16l11.38,2.92h.36V1150H2148v-20.62a66.57,66.57,0,0,0,15.85-4.53,43,43,0,0,0,20.26-17.34q6.9-11.51,6.91-28.19v-.24q0-17.27-6.55-27.35A39.1,39.1,0,0,0,2168.14,1037.16Z"/><path class="cls-24" d="M2320.46,1051.76a39.1,39.1,0,0,0-16.33-14.6,120.57,120.57,0,0,0-24.32-7.75l-1.19-.23-1.19-.24a1.76,1.76,0,0,1-.66-.12,1.71,1.71,0,0,0-.65-.12,154.34,154.34,0,0,1-17.28-4.59,24.22,24.22,0,0,1-10.49-7q-4.17-4.77-4.17-13.11v-.12q0-11,7.45-16.69t21.63-5.72a50.5,50.5,0,0,1,17.58,3.34,74.32,74.32,0,0,1,17.82,9.77l14.3-23.83a100.24,100.24,0,0,0-16-9.3,84.26,84.26,0,0,0-16.81-5.72c-2-.46-4.1-.81-6.13-1.1V934.54h-28.37v20.88a60.51,60.51,0,0,0-14.12,4.45,42.19,42.19,0,0,0-19.55,17.7q-6.61,11.68-6.62,28.84v.12q0,18.48,7.28,28.49t17.4,13.82q10.13,3.83,26.46,6.8a6.08,6.08,0,0,0,1,.17c.36,0,.69.11,1,.18a2.1,2.1,0,0,0,.66.12,1.18,1.18,0,0,1,.53.12,97.44,97.44,0,0,1,15.2,4,22.14,22.14,0,0,1,9.59,6.74q3.69,4.53,3.7,12.27v.12q0,11.69-7.93,17.7t-23.3,6a58.16,58.16,0,0,1-23.48-4.83,61.82,61.82,0,0,1-20-14.12l-15.73,23.36a58.09,58.09,0,0,0,15.43,12.16,85.41,85.41,0,0,0,20.74,8.16l11.38,2.92h.36V1150H2284v-20.62a66.71,66.71,0,0,0,15.85-4.53,43,43,0,0,0,20.26-17.34q6.9-11.51,6.91-28.19v-.24Q2327,1061.84,2320.46,1051.76Z"/><path class="cls-4" d="M2159.79,1043.67a119.86,119.86,0,0,0-24.31-7.74l-1.19-.24-1.19-.24a1.76,1.76,0,0,1-.66-.12,1.75,1.75,0,0,0-.65-.12,154,154,0,0,1-17.29-4.59,24.24,24.24,0,0,1-10.48-7q-4.18-4.77-4.18-13.11v-.12q0-11,7.45-16.69t21.64-5.72a50.54,50.54,0,0,1,17.58,3.34,74.26,74.26,0,0,1,17.81,9.77l14.31-23.83a100.24,100.24,0,0,0-16-9.3,84.26,84.26,0,0,0-16.81-5.72c-2.05-.46-4.1-.81-6.14-1.1V941.05h-28.36v20.88a60.6,60.6,0,0,0-14.13,4.45,42.21,42.21,0,0,0-19.54,17.7q-6.61,11.68-6.62,28.84v.12q0,18.48,7.27,28.49t17.4,13.82q10.13,3.83,26.46,6.8a6.38,6.38,0,0,0,1,.17c.35,0,.69.11,1,.18a2,2,0,0,0,.65.12,1.19,1.19,0,0,1,.54.12,97.74,97.74,0,0,1,15.2,4,22.14,22.14,0,0,1,9.59,6.74q3.69,4.53,3.7,12.27v.12q0,11.69-7.93,17.7t-23.3,6a58.12,58.12,0,0,1-23.48-4.83,61.82,61.82,0,0,1-20-14.12L2063.37,1114a58.3,58.3,0,0,0,15.44,12.16,85.25,85.25,0,0,0,20.74,8.16l11.38,2.92h.36v19.31h28.36v-20.62a66.44,66.44,0,0,0,15.85-4.53,42.94,42.94,0,0,0,20.27-17.34q6.9-11.5,6.91-28.19v-.23q0-17.28-6.56-27.36A39,39,0,0,0,2159.79,1043.67Z"/><path class="cls-4" d="M2312.11,1058.27a39,39,0,0,0-16.33-14.6,119.86,119.86,0,0,0-24.31-7.74l-1.19-.24-1.19-.24a1.76,1.76,0,0,1-.66-.12,1.75,1.75,0,0,0-.65-.12,154,154,0,0,1-17.29-4.59,24.24,24.24,0,0,1-10.48-7q-4.19-4.77-4.18-13.11v-.12q0-11,7.45-16.69t21.64-5.72a50.54,50.54,0,0,1,17.58,3.34,74.26,74.26,0,0,1,17.81,9.77l14.31-23.83a100.24,100.24,0,0,0-16-9.3,84.26,84.26,0,0,0-16.81-5.72c-2.05-.46-4.1-.81-6.14-1.1V941.05h-28.36v20.88a60.6,60.6,0,0,0-14.13,4.45,42.21,42.21,0,0,0-19.54,17.7q-6.62,11.68-6.62,28.84v.12q0,18.48,7.27,28.49t17.4,13.82q10.13,3.83,26.46,6.8a6.38,6.38,0,0,0,1,.17c.35,0,.69.11,1,.18a2,2,0,0,0,.65.12,1.19,1.19,0,0,1,.54.12,97.74,97.74,0,0,1,15.2,4,22.14,22.14,0,0,1,9.59,6.74q3.69,4.53,3.7,12.27v.12q0,11.69-7.93,17.7t-23.3,6a58.12,58.12,0,0,1-23.48-4.83,61.82,61.82,0,0,1-20-14.12L2199.36,1114a58.3,58.3,0,0,0,15.44,12.16,85.25,85.25,0,0,0,20.74,8.16l11.38,2.92h.36v19.31h28.36v-20.62a66.44,66.44,0,0,0,15.85-4.53,42.94,42.94,0,0,0,20.27-17.34q6.9-11.5,6.91-28.19v-.23Q2318.67,1068.35,2312.11,1058.27Z"/><path class="cls-24" d="M2989.13,1350.81a52.05,52.05,0,0,1,2.63-13.5q2-5.76,5.68-13.55,2.85-6,4.32-9.86a35.83,35.83,0,0,0,2-8.28,26.11,26.11,0,0,0-.54-9.09l0-.09q-1.73-7.47-6.39-10.67t-11.36-1.65q-6.8,1.58-9.41,7.26t-.67,14.51l0,.1L2952,1311.4l0-.09q-2.53-12.72,0-22.72a32.83,32.83,0,0,1,9.76-16.61q7.23-6.6,18.62-9.24,11.85-2.73,21.34-.5a30.06,30.06,0,0,1,15.77,9.2q6.3,7,8.9,18.24l0,.1a40.68,40.68,0,0,1,1,13.21,43.72,43.72,0,0,1-2.4,11q-1.8,4.85-5.13,11.76t-5.17,11.87a43.93,43.93,0,0,0-2.39,11.23,43.09,43.09,0,0,0,1.14,13.64l-22.76,5.26A56.63,56.63,0,0,1,2989.13,1350.81ZM2994,1383l23.24-5.37,5.39,23.34-23.24,5.37Z"/><path class="cls-24" d="M3116.6,1376.73a70.31,70.31,0,0,1,13-13.4q6.6-5,16.51-11.19,7.68-4.71,12.22-8a47.41,47.41,0,0,0,8.43-7.91,35.1,35.1,0,0,0,6.13-10.73l0-.13q3.57-9.75.64-16.86t-11.69-10.3q-8.88-3.26-16.07,1.27t-11.53,16l-.05.12-30.64-11.22,0-.13q6.54-16.32,16.84-25.82a44.51,44.51,0,0,1,23.41-11.64q13.13-2.15,28,3.3,15.51,5.68,24.63,15.26a40.82,40.82,0,0,1,11.11,22.16q2,12.57-3.41,27.33l0,.13a55.48,55.48,0,0,1-8.62,15.78,59.09,59.09,0,0,1-10.87,10.7q-5.64,4.18-14.56,9.57t-14.68,9.66a59.32,59.32,0,0,0-11,11,58.7,58.7,0,0,0-8.83,16.35l-29.77-10.9A76.62,76.62,0,0,1,3116.6,1376.73Zm-18.33,40.17,30.4,11.13-11.18,30.52-30.4-11.13Z"/><path class="cls-4" d="M2999.81,1348.69a52.14,52.14,0,0,1,2.63-13.5q2-5.76,5.68-13.55c1.9-4,3.33-7.28,4.32-9.86a35.24,35.24,0,0,0,2-8.27,25.68,25.68,0,0,0-.54-9.1l0-.09q-1.72-7.47-6.39-10.66t-11.36-1.66q-6.79,1.57-9.41,7.26t-.67,14.51l0,.1-23.43,5.41,0-.09q-2.53-12.72,0-22.72a32.8,32.8,0,0,1,9.76-16.61q7.23-6.6,18.62-9.24,11.85-2.73,21.34-.5a30.12,30.12,0,0,1,15.77,9.2q6.3,7,8.9,18.24l0,.1a41,41,0,0,1,1,13.21,43.72,43.72,0,0,1-2.4,11q-1.8,4.85-5.14,11.76c-2.22,4.62-3.94,8.57-5.16,11.88a43.74,43.74,0,0,0-2.39,11.23,43,43,0,0,0,1.14,13.63l-22.76,5.26A56.6,56.6,0,0,1,2999.81,1348.69Zm4.87,32.17,23.24-5.37,5.39,23.34-23.24,5.37Z"/><path class="cls-4" d="M3127.28,1374.61a70.31,70.31,0,0,1,13-13.4q6.6-5,16.51-11.19,7.68-4.71,12.22-8a47.71,47.71,0,0,0,8.43-7.9,35.27,35.27,0,0,0,6.13-10.74l.05-.13q3.57-9.75.64-16.85t-11.69-10.31q-8.88-3.25-16.07,1.27t-11.53,16l-.05.12-30.64-11.22,0-.12q6.54-16.34,16.83-25.83a44.57,44.57,0,0,1,23.42-11.64q13.13-2.15,28,3.31,15.51,5.67,24.63,15.26a40.76,40.76,0,0,1,11.11,22.15q2,12.57-3.41,27.34l-.05.12a55.48,55.48,0,0,1-8.62,15.78,59.49,59.49,0,0,1-10.87,10.71q-5.64,4.17-14.56,9.56t-14.68,9.66a59.32,59.32,0,0,0-11,11,58.7,58.7,0,0,0-8.83,16.35l-29.77-10.9A76.62,76.62,0,0,1,3127.28,1374.61ZM3109,1414.78l30.39,11.13-11.17,30.53-30.4-11.14Z"/><path class="cls-3" d="M798.69,1309.22c-9.16,32.58-17.86,65.49-23.72,98.85-6.22,35.42-8.78,71.56-10.44,107.47a1138.89,1138.89,0,0,0,8.63,204.21c9.38,70,23.82,139.19,44.58,206.77C835.39,1984,857,2041,887.56,2092.91A441.4,441.4,0,0,0,940,2165c19.61,21.7,41.83,40.44,67.86,54a223.45,223.45,0,0,0,24.38,11.06l-7.37-3.11a189,189,0,0,0,21.44,8.34c7.49,2.47,14.37,2.62,22,1.61,9.9-1.31,17.93-5,22.07-14.85,3.92-9.29,1.55-18.93-5-26.38-4.32-4.91-8.06-9.33-14-12.68-4-2.27-7.92-4.58-11.79-7-7.71-4.92-15.27-10-22.53-15.6l6.64,5.13c-6.75-5.25-13-11-19.42-16.6s-13.19-11.07-19.44-17.06a356.58,356.58,0,0,1-34.85-39l5.44,7c-27.36-35.6-48.6-75.48-66.09-116.74l3.44,8.17c-30.06-71.3-51-147-65.51-222.87q-6.51-34-11.13-68.24l1.18,8.73a1457.93,1457.93,0,0,1-12.58-154.5q-1-38.71.33-77.44c.92-25.74,2.79-51.42,3.6-77.16.89-28.62,2.51-57.17,5.51-85.65.94-8.93-7.62-16.7-15.71-17.79a18.13,18.13,0,0,0-19.87,13Z"/><path class="cls-3" d="M3464.83,2399.61c13.73-1.71,28-3.36,41.34-7.17,6.12-1.75,12.4-2.87,18.34-5.13,7.68-2.93,15.26-6.12,22.8-9.4.68-.3,8.08-3.71,8.12-3.65l-2,.84q-4.79,2,1.36-.6l3.4-1.44q-6.6,2.68-3.46,1.57c1.58-.49,3.19-1,4.74-1.55,7.94-2.75,15.48-7.4,22.75-11.58q8.3-4.78,16.39-9.95c5.36-3.43,11.34-6,16.44-9.76a539.44,539.44,0,0,0,119.57-121.62c33.36-47,59-98.47,78.56-152.58,21.67-59.81,35.85-122.07,46-184.8,5.62-35,9.17-70.32,12.29-105.59,1.41-16,2-32,2.7-48q.55-12,1.05-24a91.6,91.6,0,0,0-.28-16.39,118.75,118.75,0,0,0-3.28-15.42q-2.94-10.9-5.89-21.81a28.21,28.21,0,0,0-23.42-20.18c-10.15-1.36-23.51,3.34-28.07,13.45q-3.8,8.42-7.58,16.81l-3.81,8.42a113.53,113.53,0,0,0-5,11.71c-1.49,4.61-1.66,9.21-2.3,14.18-1.74,13.55-3.46,27.1-5.28,40.64l1.5-11.1c-3.89,28.91-7.59,57.85-11.48,86.77l1.57-11.67c-10.38,76.77-22.64,153.54-46.51,227.45-6.44,20-13.65,39.67-21.77,59l4.33-10.26c-2.81,6.64-5.57,13.31-8.37,19.95l4.3-10.21a631.27,631.27,0,0,1-80.39,137.89l6-7.78a508.69,508.69,0,0,1-43.57,49.54c-7.74,7.68-15.88,14.85-24,22.15-3.84,3.47-6.9,7.57-10.9,10.91q-6.47,5.41-13.15,10.57l6.38-4.93q-5.89,4.53-11.93,8.85c-2,1.44-4.07,2.8-6.08,4.22.32-.23-10.66,7.66-10.31,8.61-.11-.3,5.82-4.14,2.31-1.81l-3.08,2.05c-2.06,1.35-4.13,2.69-6.21,4q-6.24,3.93-12.62,7.63c-8.27,4.78-16.25,10-24.49,14.91q-12.59,7.44-25.75,13.82c-6.62,3.21-10.25,12.8-8,19.69,2.17,6.68,9.11,13.77,16.82,12.8Z"/><path class="cls-3" d="M3901.23,1469c-1.29-13.12-2.32-26.23-3.46-39.37-1.3-15-5.17-29.94-8.42-44.6-3-13.67-6.53-28.21-12-41.13-2.81-6.65-5.75-14-9.59-20.13-4.06-6.48-10.29-12-15.55-17.52-9.91-10.38-26.2-2-26.93,11.15-.38,7-1.54,14.31-.61,21.26a156.7,156.7,0,0,0,4.38,22c3.64,12.57,8.49,25.13,13.08,37.39,5,13.48,9,27.58,14.94,40.71,1.28,2.83,2.65,5.62,3.95,8.44q1,2.12,1.94,4.23c.33.71,1.72,3.85.82,1.69,2.71,6.54,5,13.3,7.38,20,2.61,7.23,8.89,12,16.79,11,6.9-.93,14-7.44,13.26-15Z"/><path class="cls-3" d="M2266.64,416.68a264.56,264.56,0,0,1,33.13-7.4c2.74-.41,5.48-.83,8.23-1.2l-3.46.5a30,30,0,0,0,8-1.2c1.18-.29,2.36-.64,3.54-.94q8.43-2.22,16.89-4.26c22.07-5.33,44.25-10.05,66.75-13.1l-8.83,1.19c15.16-2,30.31-4.14,45.47-6.2l-9.65,1.3c20.94-2.81,41.9-5.37,62.83-8.21l-10.41,1.4c52.34-7,105-11,157.73-14.48s105.25-5.54,157.9-7.51c29-1.08,58.21-2.49,87.12,1.29l-11.67-1.57c3.54.5,7,1.16,10.57,1.71l11.48,1.55c4.36-.43,8.68-1,13-1.81,1.49-.24,3-.47,4.49-.68l-10.66,1.43c5-.62,10.13-.86,15-2.14l-10,1.34c4.83,0,9.57-1.07,14.33-1.75l-9.33,1.25,1.65-.21A34.19,34.19,0,0,0,2940.34,340c5.64-9.64,7.1-25.05,0-34.53-3-4-5.82-8.63-9.63-11.94l5.87,7.6c-5.7-7.84-13.72-17.43-22.51-22.08-7.44-3.93-15.79-6.36-23.94-8.33A213.5,213.5,0,0,0,2849,265c-21.46-.89-43,.44-64.38,1.81-43.12,2.75-86.25,5.62-129.3,9.35-46.74,4-93.27,9.61-139.59,17.1-42.54,6.89-85,15-125.88,29-22.88,7.82-45.84,15.58-68.46,24.15-13,4.94-26.17,9.7-38.2,16.71-10.5,6.12-21,11.79-31.83,17.39-8.74,4.55-11.73,16.09-8.1,24.71a19.78,19.78,0,0,0,23.35,11.46Z"/><path class="cls-17" d="M2725.46,1537a111,111,0,0,1,20.28,43.3,105,105,0,0,1,2.5,23.51,102.68,102.68,0,0,1-.72,11.76c-.48,4-1.58,8.09-.54,12,.82,3.08,5.38,4.7,7.6,2,5.18-6.28,4.92-17.25,4.92-25a107,107,0,0,0-3.37-26.35,101.92,101.92,0,0,0-25.22-45.45c-2.65-2.77-7.89,1-5.45,4.2Z"/><path class="cls-17" d="M2382.9,1576.55a44.38,44.38,0,0,0-4.92,26.63c.89,6.81,4.38,20.57,12.66,21.69a2.44,2.44,0,0,0,3-2.31c.32-3.64-1.91-6.47-3.36-9.65a51.07,51.07,0,0,1-3.63-10.76,42,42,0,0,1,1.71-23.29c1.19-3.19-3.91-5.3-5.48-2.31Z"/><path class="cls-17" d="M2826.33,1814a94.64,94.64,0,0,1,9.47,27.6,92.26,92.26,0,0,1,1.36,15.2c0,4.65-.79,9.3-.63,13.92a1.41,1.41,0,0,0,2.76.37c2.7-9,1.25-20.3-.4-29.44a96.75,96.75,0,0,0-10.3-29c-.8-1.48-3.05-.16-2.26,1.33Z"/></g></svg>